{
date = "2013-03-12 14:12:56 +0200";
familyName = "Open Sans Hebrew Condensed";
fontMaster = (
{
alignmentZones = (
"{1536, 32}",
"{1434, 46}",
"{1290, 30}",
"{1024, 46}",
"{0, -31}",
"{-512, -46}"
);
ascender = 1536;
capHeight = 1434;
customParameters = (
{
name = TypoAscender;
value = 1536;
},
{
name = TypoDescender;
value = "-512";
}
);
descender = "-512";
id = "2E887DCB-F502-4FE4-8513-1FC10DF56BD7";
weightValue = 400;
width = Condensed;
widthValue = 3;
xHeight = 1024;
}
);
glyphs = (
{
glyphname = A;
lastChange = "2013-03-07 05:32:14 +0200";
layers = (
{
layerId = "2E887DCB-F502-4FE4-8513-1FC10DF56BD7";
name = "Regular Condensed";
paths = (
{
closed = 1;
nodes = (
"355 1463 LINE",
"236 975.999 OFFCURVE",
"118 487 OFFCURVE",
"0 0 CURVE",
"158 0 LINE",
"270 476 LINE",
"634 476 LINE",
"748 0 LINE",
"905 0 LINE",
"785 487 OFFCURVE",
"665 975.999 OFFCURVE",
"544 1463 CURVE"
);
},
{
closed = 1;
nodes = (
"455 1276 OFFCURVE",
"464 1219 OFFCURVE",
"479 1151 CURVE SMOOTH",
"511 1008 LINE",
"602 622 LINE",
"301 622 LINE",
"369 914 OFFCURVE",
"426 1137 OFFCURVE",
"449 1322 CURVE"
);
}
);
width = 906;
}
);
unicode = 0041;
},
{
glyphname = Aacute;
lastChange = "2013-03-07 05:32:14 +0200";
layers = (
{
layerId = "2E887DCB-F502-4FE4-8513-1FC10DF56BD7";
name = "Regular Condensed";
paths = (
{
closed = 1;
nodes = (
"355 1463 LINE",
"236 975.999 OFFCURVE",
"118 487 OFFCURVE",
"0 0 CURVE",
"158 0 LINE",
"270 476 LINE",
"634 476 LINE",
"748 0 LINE",
"905 0 LINE",
"785 487 OFFCURVE",
"665 975.999 OFFCURVE",
"544 1463 CURVE"
);
},
{
closed = 1;
nodes = (
"455 1276 OFFCURVE",
"464 1219 OFFCURVE",
"479 1151 CURVE SMOOTH",
"511 1008 LINE",
"602 622 LINE",
"301 622 LINE",
"369 914 OFFCURVE",
"426 1137 OFFCURVE",
"449 1322 CURVE"
);
},
{
closed = 1;
nodes = (
"546 1907 LINE",
"507 1821 OFFCURVE",
"432 1695 OFFCURVE",
"361 1601 CURVE",
"361 1579 LINE",
"454 1579 LINE",
"550 1658 OFFCURVE",
"694 1813 OFFCURVE",
"734 1888 CURVE",
"734 1907 LINE"
);
}
);
width = 906;
}
);
unicode = 00C1;
},
{
glyphname = Acircumflex;
lastChange = "2013-03-07 05:32:14 +0200";
layers = (
{
layerId = "2E887DCB-F502-4FE4-8513-1FC10DF56BD7";
name = "Regular Condensed";
paths = (
{
closed = 1;
nodes = (
"355 1463 LINE",
"236 975.999 OFFCURVE",
"118 487 OFFCURVE",
"0 0 CURVE",
"158 0 LINE",
"270 476 LINE",
"634 476 LINE",
"748 0 LINE",
"905 0 LINE",
"785 487 OFFCURVE",
"665 975.999 OFFCURVE",
"544 1463 CURVE"
);
},
{
closed = 1;
nodes = (
"455 1276 OFFCURVE",
"464 1219 OFFCURVE",
"479 1151 CURVE SMOOTH",
"511 1008 LINE",
"602 622 LINE",
"301 622 LINE",
"369 914 OFFCURVE",
"426 1137 OFFCURVE",
"449 1322 CURVE"
);
},
{
closed = 1;
nodes = (
"372 1907 LINE",
"334 1826 OFFCURVE",
"268 1724 OFFCURVE",
"175 1600 CURVE",
"175 1579 LINE",
"260 1579 LINE",
"318 1631 OFFCURVE",
"386 1708 OFFCURVE",
"450 1780 CURVE",
"540 1679 LINE SMOOTH",
"579 1635 OFFCURVE",
"612 1602 OFFCURVE",
"639 1579 CURVE",
"725 1579 LINE",
"725 1600 LINE",
"639 1711 OFFCURVE",
"555 1841 OFFCURVE",
"527 1907 CURVE"
);
}
);
width = 906;
}
);
unicode = 00C2;
},
{
glyphname = Adieresis;
lastChange = "2013-03-07 05:32:14 +0200";
layers = (
{
layerId = "2E887DCB-F502-4FE4-8513-1FC10DF56BD7";
name = "Regular Condensed";
paths = (
{
closed = 1;
nodes = (
"355 1463 LINE",
"236 975.999 OFFCURVE",
"118 487 OFFCURVE",
"0 0 CURVE",
"158 0 LINE",
"270 476 LINE",
"634 476 LINE",
"748 0 LINE",
"905 0 LINE",
"785 487 OFFCURVE",
"665 975.999 OFFCURVE",
"544 1463 CURVE"
);
},
{
closed = 1;
nodes = (
"455 1276 OFFCURVE",
"464 1219 OFFCURVE",
"479 1151 CURVE SMOOTH",
"511 1008 LINE",
"602 622 LINE",
"301 622 LINE",
"369 914 OFFCURVE",
"426 1137 OFFCURVE",
"449 1322 CURVE"
);
},
{
closed = 1;
nodes = (
"237 1828 OFFCURVE",
"200 1797 OFFCURVE",
"200 1732 CURVE SMOOTH",
"200 1666 OFFCURVE",
"237 1633 OFFCURVE",
"286 1633 CURVE SMOOTH",
"335 1633 OFFCURVE",
"371 1667 OFFCURVE",
"371 1732 CURVE SMOOTH",
"371 1795 OFFCURVE",
"335 1828 OFFCURVE",
"286 1828 CURVE SMOOTH"
);
},
{
closed = 1;
nodes = (
"573 1828 OFFCURVE",
"536 1796 OFFCURVE",
"536 1732 CURVE SMOOTH",
"536 1667 OFFCURVE",
"573 1633 OFFCURVE",
"621 1633 CURVE SMOOTH",
"671 1633 OFFCURVE",
"707 1666 OFFCURVE",
"707 1732 CURVE SMOOTH",
"707 1797 OFFCURVE",
"670 1828 OFFCURVE",
"621 1828 CURVE SMOOTH"
);
}
);
width = 906;
}
);
unicode = 00C4;
},
{
glyphname = Agrave;
lastChange = "2013-03-07 05:32:14 +0200";
layers = (
{
layerId = "2E887DCB-F502-4FE4-8513-1FC10DF56BD7";
name = "Regular Condensed";
paths = (
{
closed = 1;
nodes = (
"355 1463 LINE",
"236 975.999 OFFCURVE",
"118 487 OFFCURVE",
"0 0 CURVE",
"158 0 LINE",
"270 476 LINE",
"634 476 LINE",
"748 0 LINE",
"905 0 LINE",
"785 487 OFFCURVE",
"665 975.999 OFFCURVE",
"544 1463 CURVE"
);
},
{
closed = 1;
nodes = (
"455 1276 OFFCURVE",
"464 1219 OFFCURVE",
"479 1151 CURVE SMOOTH",
"511 1008 LINE",
"602 622 LINE",
"301 622 LINE",
"369 914 OFFCURVE",
"426 1137 OFFCURVE",
"449 1322 CURVE"
);
},
{
closed = 1;
nodes = (
"162 1907 LINE",
"162 1889 LINE",
"184 1848 OFFCURVE",
"225 1795 OFFCURVE",
"284 1731 CURVE SMOOTH",
"344 1667 OFFCURVE",
"397 1616 OFFCURVE",
"442 1579 CURVE",
"536 1579 LINE",
"536 1602 LINE",
"504 1642 OFFCURVE",
"469 1693 OFFCURVE",
"432 1754 CURVE SMOOTH",
"396 1814 OFFCURVE",
"369 1866 OFFCURVE",
"351 1907 CURVE"
);
}
);
width = 906;
}
);
unicode = 00C0;
},
{
glyphname = Aring;
lastChange = "2013-03-07 05:32:14 +0200";
layers = (
{
layerId = "2E887DCB-F502-4FE4-8513-1FC10DF56BD7";
name = "Regular Condensed";
paths = (
{
closed = 1;
nodes = (
"355 1463 LINE",
"236 975.999 OFFCURVE",
"118 487 OFFCURVE",
"0 0 CURVE",
"158 0 LINE",
"270 476 LINE",
"634 476 LINE",
"748 0 LINE",
"905 0 LINE",
"785 487 OFFCURVE",
"665 975.999 OFFCURVE",
"544 1463 CURVE"
);
},
{
closed = 1;
nodes = (
"455 1276 OFFCURVE",
"464 1219 OFFCURVE",
"479 1151 CURVE SMOOTH",
"511 1008 LINE",
"602 622 LINE",
"301 622 LINE",
"369 914 OFFCURVE",
"426 1137 OFFCURVE",
"449 1322 CURVE"
);
},
{
closed = 1;
nodes = (
"523 1690 OFFCURVE",
"565 1645 OFFCURVE",
"565 1579 CURVE SMOOTH",
"565 1511 OFFCURVE",
"518 1467 OFFCURVE",
"451 1467 CURVE SMOOTH",
"376 1467 OFFCURVE",
"337 1511 OFFCURVE",
"337 1579 CURVE SMOOTH",
"337 1645 OFFCURVE",
"384 1690 OFFCURVE",
"451 1690 CURVE SMOOTH"
);
},
{
closed = 1;
nodes = (
"323 1781 OFFCURVE",
"237 1702 OFFCURVE",
"237 1579 CURVE SMOOTH",
"237 1452 OFFCURVE",
"323 1377 OFFCURVE",
"451 1377 CURVE SMOOTH",
"582 1377 OFFCURVE",
"667 1457 OFFCURVE",
"667 1582 CURVE SMOOTH",
"667 1701 OFFCURVE",
"575 1781 OFFCURVE",
"451 1781 CURVE SMOOTH"
);
}
);
width = 906;
}
);
unicode = 00C5;
},
{
glyphname = Atilde;
lastChange = "2013-03-07 05:32:14 +0200";
layers = (
{
layerId = "2E887DCB-F502-4FE4-8513-1FC10DF56BD7";
name = "Regular Condensed";
paths = (
{
closed = 1;
nodes = (
"355 1463 LINE",
"236 975.999 OFFCURVE",
"118 487 OFFCURVE",
"0 0 CURVE",
"158 0 LINE",
"270 476 LINE",
"634 476 LINE",
"748 0 LINE",
"905 0 LINE",
"785 487 OFFCURVE",
"665 975.999 OFFCURVE",
"544 1463 CURVE"
);
},
{
closed = 1;
nodes = (
"455 1276 OFFCURVE",
"464 1219 OFFCURVE",
"479 1151 CURVE SMOOTH",
"511 1008 LINE",
"602 622 LINE",
"301 622 LINE",
"369 914 OFFCURVE",
"426 1137 OFFCURVE",
"449 1322 CURVE"
);
},
{
closed = 1;
nodes = (
"663 1821 LINE",
"650 1745 OFFCURVE",
"631 1699 OFFCURVE",
"585 1699 CURVE SMOOTH",
"514 1699 OFFCURVE",
"438 1819 OFFCURVE",
"337 1819 CURVE SMOOTH",
"232 1819 OFFCURVE",
"170 1732 OFFCURVE",
"154 1578 CURVE",
"250 1578 LINE",
"262 1657 OFFCURVE",
"290 1701 OFFCURVE",
"332 1701 CURVE SMOOTH",
"399 1701 OFFCURVE",
"477 1580 OFFCURVE",
"579 1580 CURVE SMOOTH",
"679 1580 OFFCURVE",
"746 1664 OFFCURVE",
"759 1821 CURVE"
);
}
);
width = 906;
}
);
unicode = 00C3;
},
{
glyphname = AE;
lastChange = "2013-03-07 05:32:14 +0200";
layers = (
{
layerId = "2E887DCB-F502-4FE4-8513-1FC10DF56BD7";
name = "Regular Condensed";
paths = (
{
closed = 1;
nodes = (
"446 1462 LINE",
"0 0 LINE",
"159 0 LINE",
"206 159 OFFCURVE",
"251 317 OFFCURVE",
"298 476 CURVE",
"576 476 LINE",
"576 0 LINE",
"1148 0 LINE",
"1148 141 LINE",
"732 141 LINE",
"732 693 LINE",
"1122 693 LINE",
"1122 834 LINE",
"732 834 LINE",
"732 1320 LINE",
"1148 1320 LINE",
"1148 1462 LINE"
);
},
{
closed = 1;
nodes = (
"576 622 LINE",
"341 622 LINE",
"392 794 OFFCURVE",
"441 966 OFFCURVE",
"492 1138 CURVE SMOOTH",
"545 1318 LINE",
"576 1318 LINE"
);
}
);
width = 1243;
}
);
unicode = 00C6;
},
{
glyphname = B;
lastChange = "2013-03-07 05:32:14 +0200";
layers = (
{
layerId = "2E887DCB-F502-4FE4-8513-1FC10DF56BD7";
name = "Regular Condensed";
paths = (
{
closed = 1;
nodes = (
"149 1462 LINE",
"149 0 LINE",
"520 0 LINE SMOOTH",
"742 0 OFFCURVE",
"873 157 OFFCURVE",
"873 418 CURVE SMOOTH",
"873 617 OFFCURVE",
"796 729 OFFCURVE",
"630 766 CURVE",
"630 774 LINE",
"767 801 OFFCURVE",
"843 919 OFFCURVE",
"843 1106 CURVE SMOOTH",
"843 1344 OFFCURVE",
"714 1462 OFFCURVE",
"460 1462 CURVE SMOOTH"
);
},
{
closed = 1;
nodes = (
"628 696 OFFCURVE",
"713 602 OFFCURVE",
"713 428 CURVE SMOOTH",
"713 234 OFFCURVE",
"641 138 OFFCURVE",
"495 138 CURVE SMOOTH",
"299 138 LINE",
"299 696 LINE",
"475 696 LINE SMOOTH"
);
},
{
closed = 1;
nodes = (
"610 1324 OFFCURVE",
"686 1247 OFFCURVE",
"686 1096 CURVE SMOOTH",
"686 919 OFFCURVE",
"625 831 OFFCURVE",
"464 831 CURVE SMOOTH",
"299 831 LINE",
"299 1324 LINE",
"459 1324 LINE SMOOTH"
);
}
);
width = 950;
}
);
unicode = 0042;
},
{
glyphname = C;
lastChange = "2013-03-07 05:32:13 +0200";
layers = (
{
layerId = "2E887DCB-F502-4FE4-8513-1FC10DF56BD7";
name = "Regular Condensed";
paths = (
{
closed = 1;
nodes = (
"276 1484 OFFCURVE",
"102 1191 OFFCURVE",
"102 719 CURVE SMOOTH",
"102 255 OFFCURVE",
"287 -20 OFFCURVE",
"580 -20 CURVE SMOOTH",
"674 -20 OFFCURVE",
"750 -2 OFFCURVE",
"808 33 CURVE",
"808 173 LINE",
"742 138 OFFCURVE",
"671 121 OFFCURVE",
"593 121 CURVE SMOOTH",
"386 121 OFFCURVE",
"262 351 OFFCURVE",
"262 731 CURVE SMOOTH",
"262 1110 OFFCURVE",
"385 1342 OFFCURVE",
"586 1342 CURVE SMOOTH",
"660 1342 OFFCURVE",
"725 1317 OFFCURVE",
"782 1279 CURVE",
"842 1410 LINE",
"760 1461 OFFCURVE",
"678 1484 OFFCURVE",
"583 1484 CURVE SMOOTH"
);
}
);
width = 889;
}
);
unicode = 0043;
},
{
glyphname = Ccedilla;
lastChange = "2013-03-07 05:32:14 +0200";
layers = (
{
layerId = "2E887DCB-F502-4FE4-8513-1FC10DF56BD7";
name = "Regular Condensed";
paths = (
{
closed = 1;
nodes = (
"276 1484 OFFCURVE",
"102 1191 OFFCURVE",
"102 719 CURVE SMOOTH",
"102 255 OFFCURVE",
"287 -20 OFFCURVE",
"580 -20 CURVE SMOOTH",
"674 -20 OFFCURVE",
"750 -2 OFFCURVE",
"808 33 CURVE",
"808 173 LINE",
"742 138 OFFCURVE",
"671 121 OFFCURVE",
"593 121 CURVE SMOOTH",
"386 121 OFFCURVE",
"262 351 OFFCURVE",
"262 731 CURVE SMOOTH",
"262 1110 OFFCURVE",
"385 1342 OFFCURVE",
"586 1342 CURVE SMOOTH",
"660 1342 OFFCURVE",
"725 1317 OFFCURVE",
"782 1279 CURVE",
"842 1410 LINE",
"760 1461 OFFCURVE",
"678 1484 OFFCURVE",
"583 1484 CURVE SMOOTH"
);
},
{
closed = 1;
nodes = (
"491 0 LINE",
"416 -159 LINE",
"521 -176 OFFCURVE",
"579 -213 OFFCURVE",
"579 -285 CURVE SMOOTH",
"579 -348 OFFCURVE",
"538 -388 OFFCURVE",
"448 -388 CURVE SMOOTH",
"414 -388 OFFCURVE",
"384 -383 OFFCURVE",
"356 -375 CURVE",
"356 -478 LINE",
"380 -487 OFFCURVE",
"413 -492 OFFCURVE",
"457 -492 CURVE SMOOTH",
"620 -492 OFFCURVE",
"710 -417 OFFCURVE",
"710 -281 CURVE SMOOTH",
"710 -187 OFFCURVE",
"653 -127 OFFCURVE",
"552 -102 CURVE",
"598 0 LINE"
);
}
);
width = 889;
}
);
unicode = 00C7;
},
{
glyphname = D;
lastChange = "2013-03-07 05:32:14 +0200";
layers = (
{
layerId = "2E887DCB-F502-4FE4-8513-1FC10DF56BD7";
name = "Regular Condensed";
paths = (
{
closed = 1;
nodes = (
"149 1462 LINE",
"149 0 LINE",
"442 0 LINE SMOOTH",
"772 0 OFFCURVE",
"942 250 OFFCURVE",
"942 745 CURVE SMOOTH",
"942 1212 OFFCURVE",
"768 1462 OFFCURVE",
"457 1462 CURVE SMOOTH"
);
},
{
closed = 1;
nodes = (
"669 1324 OFFCURVE",
"781 1122 OFFCURVE",
"781 738 CURVE SMOOTH",
"781 345 OFFCURVE",
"673 138 OFFCURVE",
"438 138 CURVE SMOOTH",
"305 138 LINE",
"305 1324 LINE",
"451 1324 LINE SMOOTH"
);
}
);
width = 1044;
}
);
unicode = 0044;
},
{
glyphname = Eth;
lastChange = "2013-03-07 05:32:14 +0200";
layers = (
{
layerId = "2E887DCB-F502-4FE4-8513-1FC10DF56BD7";
name = "Regular Condensed";
paths = (
{
closed = 1;
nodes = (
"149 1462 LINE",
"149 807 LINE",
"40 807 LINE",
"40 668 LINE",
"149 668 LINE",
"149 0 LINE",
"442 0 LINE SMOOTH",
"772 0 OFFCURVE",
"942 253 OFFCURVE",
"942 745 CURVE SMOOTH",
"942 1208 OFFCURVE",
"770 1462 OFFCURVE",
"457 1462 CURVE SMOOTH"
);
},
{
closed = 1;
nodes = (
"669 1324 OFFCURVE",
"781 1122 OFFCURVE",
"781 738 CURVE SMOOTH",
"781 345 OFFCURVE",
"673 138 OFFCURVE",
"438 138 CURVE SMOOTH",
"305 138 LINE",
"305 668 LINE",
"516 668 LINE",
"516 807 LINE",
"305 807 LINE",
"305 1324 LINE",
"451 1324 LINE SMOOTH"
);
}
);
width = 1044;
}
);
unicode = 00D0;
},
{
glyphname = E;
lastChange = "2013-03-07 05:32:13 +0200";
layers = (
{
layerId = "2E887DCB-F502-4FE4-8513-1FC10DF56BD7";
name = "Regular Condensed";
paths = (
{
closed = 1;
nodes = (
"150 1462 LINE",
"150 0 LINE",
"722 0 LINE",
"722 142 LINE",
"305 142 LINE",
"305 694 LINE",
"697 694 LINE",
"697 835 LINE",
"305 835 LINE",
"305 1321 LINE",
"722 1321 LINE",
"722 1462 LINE"
);
}
);
width = 816;
}
);
unicode = 0045;
},
{
glyphname = Eacute;
lastChange = "2013-03-07 05:32:14 +0200";
layers = (
{
layerId = "2E887DCB-F502-4FE4-8513-1FC10DF56BD7";
name = "Regular Condensed";
paths = (
{
closed = 1;
nodes = (
"150 1462 LINE",
"150 0 LINE",
"722 0 LINE",
"722 142 LINE",
"305 142 LINE",
"305 694 LINE",
"697 694 LINE",
"697 835 LINE",
"305 835 LINE",
"305 1321 LINE",
"722 1321 LINE",
"722 1462 LINE"
);
},
{
closed = 1;
nodes = (
"513 1907 LINE",
"474 1821 OFFCURVE",
"399 1695 OFFCURVE",
"328 1601 CURVE",
"328 1579 LINE",
"421 1579 LINE",
"517 1658 OFFCURVE",
"661 1813 OFFCURVE",
"701 1888 CURVE",
"701 1907 LINE"
);
}
);
width = 816;
}
);
unicode = 00C9;
},
{
glyphname = Ecircumflex;
lastChange = "2013-03-07 05:32:14 +0200";
layers = (
{
layerId = "2E887DCB-F502-4FE4-8513-1FC10DF56BD7";
name = "Regular Condensed";
paths = (
{
closed = 1;
nodes = (
"150 1462 LINE",
"150 0 LINE",
"722 0 LINE",
"722 142 LINE",
"305 142 LINE",
"305 694 LINE",
"697 694 LINE",
"697 835 LINE",
"305 835 LINE",
"305 1321 LINE",
"722 1321 LINE",
"722 1462 LINE"
);
},
{
closed = 1;
nodes = (
"352 1907 LINE",
"314 1826 OFFCURVE",
"248 1724 OFFCURVE",
"155 1600 CURVE",
"155 1579 LINE",
"240 1579 LINE",
"298 1631 OFFCURVE",
"366 1708 OFFCURVE",
"430 1780 CURVE",
"520 1679 LINE SMOOTH",
"559 1635 OFFCURVE",
"592 1602 OFFCURVE",
"619 1579 CURVE",
"705 1579 LINE",
"705 1600 LINE",
"619 1711 OFFCURVE",
"535 1841 OFFCURVE",
"507 1907 CURVE"
);
}
);
width = 816;
}
);
unicode = 00CA;
},
{
glyphname = Edieresis;
lastChange = "2013-03-07 05:32:14 +0200";
layers = (
{
layerId = "2E887DCB-F502-4FE4-8513-1FC10DF56BD7";
name = "Regular Condensed";
paths = (
{
closed = 1;
nodes = (
"150 1462 LINE",
"150 0 LINE",
"722 0 LINE",
"722 142 LINE",
"305 142 LINE",
"305 694 LINE",
"697 694 LINE",
"697 835 LINE",
"305 835 LINE",
"305 1321 LINE",
"722 1321 LINE",
"722 1462 LINE"
);
},
{
closed = 1;
nodes = (
"216 1828 OFFCURVE",
"179 1797 OFFCURVE",
"179 1732 CURVE SMOOTH",
"179 1666 OFFCURVE",
"216 1633 OFFCURVE",
"265 1633 CURVE SMOOTH",
"314 1633 OFFCURVE",
"350 1667 OFFCURVE",
"350 1732 CURVE SMOOTH",
"350 1795 OFFCURVE",
"314 1828 OFFCURVE",
"265 1828 CURVE SMOOTH"
);
},
{
closed = 1;
nodes = (
"552 1828 OFFCURVE",
"515 1796 OFFCURVE",
"515 1732 CURVE SMOOTH",
"515 1667 OFFCURVE",
"552 1633 OFFCURVE",
"600 1633 CURVE SMOOTH",
"650 1633 OFFCURVE",
"686 1666 OFFCURVE",
"686 1732 CURVE SMOOTH",
"686 1797 OFFCURVE",
"649 1828 OFFCURVE",
"600 1828 CURVE SMOOTH"
);
}
);
width = 816;
}
);
unicode = 00CB;
},
{
glyphname = Egrave;
lastChange = "2013-03-07 05:32:14 +0200";
layers = (
{
layerId = "2E887DCB-F502-4FE4-8513-1FC10DF56BD7";
name = "Regular Condensed";
paths = (
{
closed = 1;
nodes = (
"150 1462 LINE",
"150 0 LINE",
"722 0 LINE",
"722 142 LINE",
"305 142 LINE",
"305 694 LINE",
"697 694 LINE",
"697 835 LINE",
"305 835 LINE",
"305 1321 LINE",
"722 1321 LINE",
"722 1462 LINE"
);
},
{
closed = 1;
nodes = (
"163 1907 LINE",
"163 1889 LINE",
"185 1848 OFFCURVE",
"226 1795 OFFCURVE",
"285 1731 CURVE SMOOTH",
"345 1667 OFFCURVE",
"398 1616 OFFCURVE",
"443 1579 CURVE",
"537 1579 LINE",
"537 1602 LINE",
"505 1642 OFFCURVE",
"470 1693 OFFCURVE",
"433 1754 CURVE SMOOTH",
"397 1814 OFFCURVE",
"370 1866 OFFCURVE",
"352 1907 CURVE"
);
}
);
width = 816;
}
);
unicode = 00C8;
},
{
glyphname = F;
lastChange = "2013-03-07 05:32:13 +0200";
layers = (
{
layerId = "2E887DCB-F502-4FE4-8513-1FC10DF56BD7";
name = "Regular Condensed";
paths = (
{
closed = 1;
nodes = (
"150 1462 LINE",
"150 0 LINE",
"305 0 LINE",
"305 631 LINE",
"698 631 LINE",
"698 772 LINE",
"305 772 LINE",
"305 1321 LINE",
"722 1321 LINE",
"722 1462 LINE"
);
}
);
width = 765;
}
);
unicode = 0046;
},
{
glyphname = G;
lastChange = "2013-03-07 05:32:13 +0200";
layers = (
{
layerId = "2E887DCB-F502-4FE4-8513-1FC10DF56BD7";
name = "Regular Condensed";
paths = (
{
closed = 1;
nodes = (
"298 1483 OFFCURVE",
"102 1201 OFFCURVE",
"102 734 CURVE SMOOTH",
"102 255 OFFCURVE",
"288 -20 OFFCURVE",
"614 -20 CURVE SMOOTH",
"741 -20 OFFCURVE",
"863 3 OFFCURVE",
"978.999 50 CURVE",
"978.999 761 LINE",
"617 761 LINE",
"617 619 LINE",
"825 619 LINE",
"825 152 LINE",
"766 131 OFFCURVE",
"698 121 OFFCURVE",
"621 121 CURVE SMOOTH",
"394 121 OFFCURVE",
"263 344 OFFCURVE",
"263 731 CURVE SMOOTH",
"263 1119 OFFCURVE",
"401 1342 OFFCURVE",
"653 1342 CURVE SMOOTH",
"733 1342 OFFCURVE",
"818 1314 OFFCURVE",
"907 1259 CURVE",
"928 1303 OFFCURVE",
"947 1346 OFFCURVE",
"967 1390 CURVE",
"867 1452 OFFCURVE",
"760 1483 OFFCURVE",
"647 1483 CURVE SMOOTH"
);
}
);
width = 1087;
}
);
unicode = 0047;
},
{
glyphname = H;
lastChange = "2013-03-07 05:32:13 +0200";
layers = (
{
layerId = "2E887DCB-F502-4FE4-8513-1FC10DF56BD7";
name = "Regular Condensed";
paths = (
{
closed = 1;
nodes = (
"765 1462 LINE",
"765 835 LINE",
"305 835 LINE",
"305 1462 LINE",
"150 1462 LINE",
"150 0 LINE",
"305 0 LINE",
"305 693 LINE",
"765 693 LINE",
"765 0 LINE",
"921 0 LINE",
"921 1462 LINE"
);
}
);
width = 1071;
}
);
unicode = 0048;
},
{
glyphname = I;
lastChange = "2013-03-07 05:32:13 +0200";
layers = (
{
layerId = "2E887DCB-F502-4FE4-8513-1FC10DF56BD7";
name = "Regular Condensed";
paths = (
{
closed = 1;
nodes = (
"166 1462 LINE",
"166 0 LINE",
"316 0 LINE",
"316 1462 LINE"
);
}
);
width = 483;
}
);
unicode = 0049;
},
{
glyphname = Iacute;
lastChange = "2013-03-07 05:32:14 +0200";
layers = (
{
layerId = "2E887DCB-F502-4FE4-8513-1FC10DF56BD7";
name = "Regular Condensed";
paths = (
{
closed = 1;
nodes = (
"166 1462 LINE",
"166 0 LINE",
"316 0 LINE",
"316 1462 LINE"
);
},
{
closed = 1;
nodes = (
"343 1907 LINE",
"304 1821 OFFCURVE",
"229 1695 OFFCURVE",
"158 1601 CURVE",
"158 1579 LINE",
"251 1579 LINE",
"347 1658 OFFCURVE",
"491 1813 OFFCURVE",
"531 1888 CURVE",
"531 1907 LINE"
);
}
);
width = 483;
}
);
unicode = 00CD;
},
{
glyphname = Icircumflex;
lastChange = "2013-03-07 05:32:14 +0200";
layers = (
{
layerId = "2E887DCB-F502-4FE4-8513-1FC10DF56BD7";
name = "Regular Condensed";
paths = (
{
closed = 1;
nodes = (
"166 1462 LINE",
"166 0 LINE",
"316 0 LINE",
"316 1462 LINE"
);
},
{
closed = 1;
nodes = (
"163 1907 LINE",
"125 1826 OFFCURVE",
"59 1724 OFFCURVE",
"-34 1600 CURVE",
"-34 1579 LINE",
"51 1579 LINE",
"109 1631 OFFCURVE",
"177 1708 OFFCURVE",
"241 1780 CURVE",
"331 1679 LINE SMOOTH",
"370 1635 OFFCURVE",
"403 1602 OFFCURVE",
"430 1579 CURVE",
"516 1579 LINE",
"516 1600 LINE",
"430 1711 OFFCURVE",
"346 1841 OFFCURVE",
"318 1907 CURVE"
);
}
);
width = 483;
}
);
unicode = 00CE;
},
{
glyphname = Idieresis;
lastChange = "2013-03-07 05:32:14 +0200";
layers = (
{
layerId = "2E887DCB-F502-4FE4-8513-1FC10DF56BD7";
name = "Regular Condensed";
paths = (
{
closed = 1;
nodes = (
"166 1462 LINE",
"166 0 LINE",
"316 0 LINE",
"316 1462 LINE"
);
},
{
closed = 1;
nodes = (
"26 1828 OFFCURVE",
"-11 1797 OFFCURVE",
"-11 1732 CURVE SMOOTH",
"-11 1666 OFFCURVE",
"26 1633 OFFCURVE",
"75 1633 CURVE SMOOTH",
"124 1633 OFFCURVE",
"160 1667 OFFCURVE",
"160 1732 CURVE SMOOTH",
"160 1795 OFFCURVE",
"124 1828 OFFCURVE",
"75 1828 CURVE SMOOTH"
);
},
{
closed = 1;
nodes = (
"362 1828 OFFCURVE",
"325 1796 OFFCURVE",
"325 1732 CURVE SMOOTH",
"325 1667 OFFCURVE",
"362 1633 OFFCURVE",
"410 1633 CURVE SMOOTH",
"460 1633 OFFCURVE",
"496 1666 OFFCURVE",
"496 1732 CURVE SMOOTH",
"496 1797 OFFCURVE",
"459 1828 OFFCURVE",
"410 1828 CURVE SMOOTH"
);
}
);
width = 483;
}
);
unicode = 00CF;
},
{
glyphname = Igrave;
lastChange = "2013-03-07 05:32:14 +0200";
layers = (
{
layerId = "2E887DCB-F502-4FE4-8513-1FC10DF56BD7";
name = "Regular Condensed";
paths = (
{
closed = 1;
nodes = (
"166 1462 LINE",
"166 0 LINE",
"316 0 LINE",
"316 1462 LINE"
);
},
{
closed = 1;
nodes = (
"-39 1907 LINE",
"-39 1889 LINE",
"-17 1848 OFFCURVE",
"24 1795 OFFCURVE",
"83 1731 CURVE SMOOTH",
"143 1667 OFFCURVE",
"196 1616 OFFCURVE",
"241 1579 CURVE",
"335 1579 LINE",
"335 1602 LINE",
"303 1642 OFFCURVE",
"268 1693 OFFCURVE",
"231 1754 CURVE SMOOTH",
"195 1814 OFFCURVE",
"168 1866 OFFCURVE",
"150 1907 CURVE"
);
}
);
width = 483;
}
);
unicode = 00CC;
},
{
glyphname = J;
lastChange = "2013-03-07 05:32:13 +0200";
layers = (
{
layerId = "2E887DCB-F502-4FE4-8513-1FC10DF56BD7";
name = "Regular Condensed";
paths = (
{
closed = 1;
nodes = (
"143 1462 LINE",
"143 -7 LINE SMOOTH",
"143 -171 OFFCURVE",
"98.9999 -242 OFFCURVE",
"7 -242 CURVE SMOOTH",
"-36 -242 OFFCURVE",
"-75 -235 OFFCURVE",
"-111 -222 CURVE",
"-111 -361 LINE",
"-75 -378 OFFCURVE",
"-31 -386 OFFCURVE",
"23 -386 CURVE SMOOTH",
"194 -387 OFFCURVE",
"300 -249 OFFCURVE",
"298 -1 CURVE",
"298 1462 LINE"
);
}
);
width = 444;
}
);
unicode = 004A;
},
{
glyphname = K;
lastChange = "2013-03-07 05:32:13 +0200";
layers = (
{
layerId = "2E887DCB-F502-4FE4-8513-1FC10DF56BD7";
name = "Regular Condensed";
paths = (
{
closed = 1;
nodes = (
"708 1462 LINE",
"514 1102 OFFCURVE",
"347 791 OFFCURVE",
"305 704 CURVE",
"305 1462 LINE",
"149 1462 LINE",
"149 0 LINE",
"305 0 LINE",
"305 558 LINE",
"416 694 LINE",
"520 463 OFFCURVE",
"623 231 OFFCURVE",
"726 0 CURVE",
"895 0 LINE",
"769 273 OFFCURVE",
"644 548 OFFCURVE",
"518 822 CURVE",
"875 1462 LINE"
);
}
);
width = 896;
}
);
unicode = 004B;
},
{
glyphname = L;
lastChange = "2013-03-07 05:32:13 +0200";
layers = (
{
layerId = "2E887DCB-F502-4FE4-8513-1FC10DF56BD7";
name = "Regular Condensed";
paths = (
{
closed = 1;
nodes = (
"150 1462 LINE",
"150 0 LINE",
"706 0 LINE",
"706 142 LINE",
"305 142 LINE",
"305 1462 LINE"
);
}
);
width = 748;
}
);
unicode = 004C;
},
{
glyphname = M;
lastChange = "2013-03-07 05:32:13 +0200";
layers = (
{
layerId = "2E887DCB-F502-4FE4-8513-1FC10DF56BD7";
name = "Regular Condensed";
paths = (
{
closed = 1;
nodes = (
"1074 1462 LINE",
"788 395 LINE SMOOTH",
"760 295 OFFCURVE",
"742 218 OFFCURVE",
"733 164 CURVE",
"725 164 LINE",
"714 232 OFFCURVE",
"697 309 OFFCURVE",
"673 397 CURVE SMOOTH",
"384 1462 LINE",
"149 1462 LINE",
"149 0 LINE",
"295 0 LINE",
"295 1037 LINE SMOOTH",
"295 1088 OFFCURVE",
"291 1177 OFFCURVE",
"282 1302 CURVE",
"291 1302 LINE",
"644 0 LINE",
"816 0 LINE",
"1167 1300 LINE",
"1175 1300 LINE",
"1167 1178 OFFCURVE",
"1164 1089 OFFCURVE",
"1164 1035 CURVE SMOOTH",
"1164 0 LINE",
"1314 0 LINE",
"1314 1462 LINE"
);
}
);
width = 1465;
}
);
unicode = 004D;
},
{
glyphname = N;
lastChange = "2013-03-07 05:32:13 +0200";
layers = (
{
layerId = "2E887DCB-F502-4FE4-8513-1FC10DF56BD7";
name = "Regular Condensed";
paths = (
{
closed = 1;
nodes = (
"857 1462 LINE",
"857 514 LINE SMOOTH",
"857 433 OFFCURVE",
"861 344 OFFCURVE",
"868 248 CURVE",
"861 248 LINE",
"345 1462 LINE",
"150 1462 LINE",
"150 0 LINE",
"297 0 LINE",
"297 966 LINE SMOOTH",
"297 1053 OFFCURVE",
"292 1140 OFFCURVE",
"281 1228 CURVE",
"291 1228 LINE",
"810 0 LINE",
"1004 0 LINE",
"1004 1462 LINE"
);
}
);
width = 1153;
}
);
unicode = 004E;
},
{
glyphname = Ntilde;
lastChange = "2013-03-07 05:32:14 +0200";
layers = (
{
layerId = "2E887DCB-F502-4FE4-8513-1FC10DF56BD7";
name = "Regular Condensed";
paths = (
{
closed = 1;
nodes = (
"857 1462 LINE",
"857 514 LINE SMOOTH",
"857 433 OFFCURVE",
"861 344 OFFCURVE",
"868 248 CURVE",
"861 248 LINE",
"345 1462 LINE",
"150 1462 LINE",
"150 0 LINE",
"297 0 LINE",
"297 966 LINE SMOOTH",
"297 1053 OFFCURVE",
"292 1140 OFFCURVE",
"281 1228 CURVE",
"291 1228 LINE",
"810 0 LINE",
"1004 0 LINE",
"1004 1462 LINE"
);
},
{
closed = 1;
nodes = (
"799 1821 LINE",
"786 1745 OFFCURVE",
"767 1699 OFFCURVE",
"721 1699 CURVE SMOOTH",
"650 1699 OFFCURVE",
"574 1819 OFFCURVE",
"473 1819 CURVE SMOOTH",
"368 1819 OFFCURVE",
"306 1732 OFFCURVE",
"290 1578 CURVE",
"386 1578 LINE",
"398 1657 OFFCURVE",
"426 1701 OFFCURVE",
"468 1701 CURVE SMOOTH",
"535 1701 OFFCURVE",
"613 1580 OFFCURVE",
"715 1580 CURVE SMOOTH",
"815 1580 OFFCURVE",
"882 1664 OFFCURVE",
"895 1821 CURVE"
);
}
);
width = 1153;
}
);
unicode = 00D1;
},
{
glyphname = O;
lastChange = "2013-03-07 05:32:14 +0200";
layers = (
{
layerId = "2E887DCB-F502-4FE4-8513-1FC10DF56BD7";
name = "Regular Condensed";
paths = (
{
closed = 1;
nodes = (
"256 1483 OFFCURVE",
"102 1233 OFFCURVE",
"102 735 CURVE SMOOTH",
"102 254 OFFCURVE",
"258 -20 OFFCURVE",
"557 -20 CURVE SMOOTH",
"853 -20 OFFCURVE",
"1013 253 OFFCURVE",
"1013 733 CURVE SMOOTH",
"1013 1212 OFFCURVE",
"853 1483 OFFCURVE",
"560 1483 CURVE SMOOTH"
);
},
{
closed = 1;
nodes = (
"754 1341 OFFCURVE",
"853 1135 OFFCURVE",
"853 733 CURVE SMOOTH",
"853 326 OFFCURVE",
"751 122 OFFCURVE",
"557 122 CURVE SMOOTH",
"364 122 OFFCURVE",
"262 331 OFFCURVE",
"262 733 CURVE SMOOTH",
"262 1130 OFFCURVE",
"361 1341 OFFCURVE",
"560 1341 CURVE SMOOTH"
);
}
);
width = 1116;
}
);
unicode = 004F;
},
{
glyphname = Oacute;
lastChange = "2013-03-07 05:32:14 +0200";
layers = (
{
layerId = "2E887DCB-F502-4FE4-8513-1FC10DF56BD7";
name = "Regular Condensed";
paths = (
{
closed = 1;
nodes = (
"256 1483 OFFCURVE",
"102 1233 OFFCURVE",
"102 735 CURVE SMOOTH",
"102 254 OFFCURVE",
"258 -20 OFFCURVE",
"557 -20 CURVE SMOOTH",
"853 -20 OFFCURVE",
"1013 253 OFFCURVE",
"1013 733 CURVE SMOOTH",
"1013 1212 OFFCURVE",
"853 1483 OFFCURVE",
"560 1483 CURVE SMOOTH"
);
},
{
closed = 1;
nodes = (
"754 1341 OFFCURVE",
"853 1135 OFFCURVE",
"853 733 CURVE SMOOTH",
"853 326 OFFCURVE",
"751 122 OFFCURVE",
"557 122 CURVE SMOOTH",
"364 122 OFFCURVE",
"262 331 OFFCURVE",
"262 733 CURVE SMOOTH",
"262 1130 OFFCURVE",
"361 1341 OFFCURVE",
"560 1341 CURVE SMOOTH"
);
},
{
closed = 1;
nodes = (
"649 1907 LINE",
"610 1821 OFFCURVE",
"535 1695 OFFCURVE",
"464 1601 CURVE",
"464 1579 LINE",
"557 1579 LINE",
"653 1658 OFFCURVE",
"797 1813 OFFCURVE",
"837 1888 CURVE",
"837 1907 LINE"
);
}
);
width = 1116;
}
);
unicode = 00D3;
},
{
glyphname = Ocircumflex;
lastChange = "2013-03-07 05:32:14 +0200";
layers = (
{
layerId = "2E887DCB-F502-4FE4-8513-1FC10DF56BD7";
name = "Regular Condensed";
paths = (
{
closed = 1;
nodes = (
"256 1483 OFFCURVE",
"102 1233 OFFCURVE",
"102 735 CURVE SMOOTH",
"102 254 OFFCURVE",
"258 -20 OFFCURVE",
"557 -20 CURVE SMOOTH",
"853 -20 OFFCURVE",
"1013 253 OFFCURVE",
"1013 733 CURVE SMOOTH",
"1013 1212 OFFCURVE",
"853 1483 OFFCURVE",
"560 1483 CURVE SMOOTH"
);
},
{
closed = 1;
nodes = (
"754 1341 OFFCURVE",
"853 1135 OFFCURVE",
"853 733 CURVE SMOOTH",
"853 326 OFFCURVE",
"751 122 OFFCURVE",
"557 122 CURVE SMOOTH",
"364 122 OFFCURVE",
"262 331 OFFCURVE",
"262 733 CURVE SMOOTH",
"262 1130 OFFCURVE",
"361 1341 OFFCURVE",
"560 1341 CURVE SMOOTH"
);
},
{
closed = 1;
nodes = (
"478 1907 LINE",
"440 1826 OFFCURVE",
"374 1724 OFFCURVE",
"281 1600 CURVE",
"281 1579 LINE",
"366 1579 LINE",
"424 1631 OFFCURVE",
"492 1708 OFFCURVE",
"556 1780 CURVE",
"646 1679 LINE SMOOTH",
"685 1635 OFFCURVE",
"718 1602 OFFCURVE",
"745 1579 CURVE",
"831 1579 LINE",
"831 1600 LINE",
"745 1711 OFFCURVE",
"661 1841 OFFCURVE",
"633 1907 CURVE"
);
}
);
width = 1116;
}
);
unicode = 00D4;
},
{
glyphname = Odieresis;
lastChange = "2013-03-07 05:32:14 +0200";
layers = (
{
layerId = "2E887DCB-F502-4FE4-8513-1FC10DF56BD7";
name = "Regular Condensed";
paths = (
{
closed = 1;
nodes = (
"256 1483 OFFCURVE",
"102 1233 OFFCURVE",
"102 735 CURVE SMOOTH",
"102 254 OFFCURVE",
"258 -20 OFFCURVE",
"557 -20 CURVE SMOOTH",
"853 -20 OFFCURVE",
"1013 253 OFFCURVE",
"1013 733 CURVE SMOOTH",
"1013 1212 OFFCURVE",
"853 1483 OFFCURVE",
"560 1483 CURVE SMOOTH"
);
},
{
closed = 1;
nodes = (
"754 1341 OFFCURVE",
"853 1135 OFFCURVE",
"853 733 CURVE SMOOTH",
"853 326 OFFCURVE",
"751 122 OFFCURVE",
"557 122 CURVE SMOOTH",
"364 122 OFFCURVE",
"262 331 OFFCURVE",
"262 733 CURVE SMOOTH",
"262 1130 OFFCURVE",
"361 1341 OFFCURVE",
"560 1341 CURVE SMOOTH"
);
},
{
closed = 1;
nodes = (
"347 1828 OFFCURVE",
"310 1797 OFFCURVE",
"310 1732 CURVE SMOOTH",
"310 1666 OFFCURVE",
"347 1633 OFFCURVE",
"396 1633 CURVE SMOOTH",
"445 1633 OFFCURVE",
"481 1667 OFFCURVE",
"481 1732 CURVE SMOOTH",
"481 1795 OFFCURVE",
"445 1828 OFFCURVE",
"396 1828 CURVE SMOOTH"
);
},
{
closed = 1;
nodes = (
"683 1828 OFFCURVE",
"646 1796 OFFCURVE",
"646 1732 CURVE SMOOTH",
"646 1667 OFFCURVE",
"683 1633 OFFCURVE",
"731 1633 CURVE SMOOTH",
"781 1633 OFFCURVE",
"817 1666 OFFCURVE",
"817 1732 CURVE SMOOTH",
"817 1797 OFFCURVE",
"780 1828 OFFCURVE",
"731 1828 CURVE SMOOTH"
);
}
);
width = 1116;
}
);
unicode = 00D6;
},
{
glyphname = Ograve;
lastChange = "2013-03-07 05:32:14 +0200";
layers = (
{
layerId = "2E887DCB-F502-4FE4-8513-1FC10DF56BD7";
name = "Regular Condensed";
paths = (
{
closed = 1;
nodes = (
"256 1483 OFFCURVE",
"102 1233 OFFCURVE",
"102 735 CURVE SMOOTH",
"102 254 OFFCURVE",
"258 -20 OFFCURVE",
"557 -20 CURVE SMOOTH",
"853 -20 OFFCURVE",
"1013 253 OFFCURVE",
"1013 733 CURVE SMOOTH",
"1013 1212 OFFCURVE",
"853 1483 OFFCURVE",
"560 1483 CURVE SMOOTH"
);
},
{
closed = 1;
nodes = (
"754 1341 OFFCURVE",
"853 1135 OFFCURVE",
"853 733 CURVE SMOOTH",
"853 326 OFFCURVE",
"751 122 OFFCURVE",
"557 122 CURVE SMOOTH",
"364 122 OFFCURVE",
"262 331 OFFCURVE",
"262 733 CURVE SMOOTH",
"262 1130 OFFCURVE",
"361 1341 OFFCURVE",
"560 1341 CURVE SMOOTH"
);
},
{
closed = 1;
nodes = (
"270 1907 LINE",
"270 1889 LINE",
"292 1848 OFFCURVE",
"333 1795 OFFCURVE",
"392 1731 CURVE SMOOTH",
"452 1667 OFFCURVE",
"505 1616 OFFCURVE",
"550 1579 CURVE",
"644 1579 LINE",
"644 1602 LINE",
"612 1642 OFFCURVE",
"577 1693 OFFCURVE",
"540 1754 CURVE SMOOTH",
"504 1814 OFFCURVE",
"477 1866 OFFCURVE",
"459 1907 CURVE"
);
}
);
width = 1116;
}
);
unicode = 00D2;
},
{
glyphname = Oslash;
lastChange = "2013-03-07 05:32:14 +0200";
layers = (
{
layerId = "2E887DCB-F502-4FE4-8513-1FC10DF56BD7";
name = "Regular Condensed";
paths = (
{
closed = 1;
nodes = (
"824 1373 LINE",
"751 1446 OFFCURVE",
"663 1483 OFFCURVE",
"560 1483 CURVE SMOOTH",
"258 1483 OFFCURVE",
"102 1235 OFFCURVE",
"102 735 CURVE SMOOTH",
"102 490 OFFCURVE",
"141 303 OFFCURVE",
"219 174 CURVE",
"182 99.9999 OFFCURVE",
"145 26 OFFCURVE",
"108 -46 CURVE",
"217 -96 LINE",
"304 75 LINE",
"373 11 OFFCURVE",
"457 -20 OFFCURVE",
"557 -20 CURVE SMOOTH",
"853 -20 OFFCURVE",
"1013 253 OFFCURVE",
"1013 733 CURVE SMOOTH",
"1013 963 OFFCURVE",
"977.999 1142 OFFCURVE",
"906 1269 CURVE",
"1022 1495 LINE",
"985.999 1512 OFFCURVE",
"948 1529 OFFCURVE",
"912 1547 CURVE"
);
},
{
closed = 1;
nodes = (
"838 998.999 OFFCURVE",
"851 879 OFFCURVE",
"851 739 CURVE SMOOTH",
"851 328 OFFCURVE",
"752 122 OFFCURVE",
"557 122 CURVE SMOOTH",
"480 122 OFFCURVE",
"419 152 OFFCURVE",
"374 213 CURVE",
"816 1086 LINE"
);
},
{
closed = 1;
nodes = (
"643 1341 OFFCURVE",
"708 1305 OFFCURVE",
"755 1232 CURVE",
"308 350 LINE",
"277 444 OFFCURVE",
"262 572 OFFCURVE",
"262 733 CURVE SMOOTH",
"262 1130 OFFCURVE",
"361 1341 OFFCURVE",
"560 1341 CURVE SMOOTH"
);
}
);
width = 1116;
}
);
unicode = 00D8;
},
{
glyphname = Otilde;
lastChange = "2013-03-07 05:32:14 +0200";
layers = (
{
layerId = "2E887DCB-F502-4FE4-8513-1FC10DF56BD7";
name = "Regular Condensed";
paths = (
{
closed = 1;
nodes = (
"256 1483 OFFCURVE",
"102 1233 OFFCURVE",
"102 735 CURVE SMOOTH",
"102 254 OFFCURVE",
"258 -20 OFFCURVE",
"557 -20 CURVE SMOOTH",
"853 -20 OFFCURVE",
"1013 253 OFFCURVE",
"1013 733 CURVE SMOOTH",
"1013 1212 OFFCURVE",
"853 1483 OFFCURVE",
"560 1483 CURVE SMOOTH"
);
},
{
closed = 1;
nodes = (
"754 1341 OFFCURVE",
"853 1135 OFFCURVE",
"853 733 CURVE SMOOTH",
"853 326 OFFCURVE",
"751 122 OFFCURVE",
"557 122 CURVE SMOOTH",
"364 122 OFFCURVE",
"262 331 OFFCURVE",
"262 733 CURVE SMOOTH",
"262 1130 OFFCURVE",
"361 1341 OFFCURVE",
"560 1341 CURVE SMOOTH"
);
},
{
closed = 1;
nodes = (
"774 1821 LINE",
"761 1745 OFFCURVE",
"742 1699 OFFCURVE",
"696 1699 CURVE SMOOTH",
"625 1699 OFFCURVE",
"549 1819 OFFCURVE",
"448 1819 CURVE SMOOTH",
"343 1819 OFFCURVE",
"281 1732 OFFCURVE",
"265 1578 CURVE",
"361 1578 LINE",
"373 1657 OFFCURVE",
"401 1701 OFFCURVE",
"443 1701 CURVE SMOOTH",
"510 1701 OFFCURVE",
"588 1580 OFFCURVE",
"690 1580 CURVE SMOOTH",
"790 1580 OFFCURVE",
"857 1664 OFFCURVE",
"870 1821 CURVE"
);
}
);
width = 1116;
}
);
unicode = 00D5;
},
{
glyphname = OE;
lastChange = "2013-03-07 05:32:14 +0200";
layers = (
{
layerId = "2E887DCB-F502-4FE4-8513-1FC10DF56BD7";
name = "Regular Condensed";
paths = (
{
closed = 1;
nodes = (
"276 1473 OFFCURVE",
"102 1217 OFFCURVE",
"102 735 CURVE SMOOTH",
"102 246 OFFCURVE",
"269 -10 OFFCURVE",
"593 -10 CURVE SMOOTH",
"652 -8 OFFCURVE",
"709 0 OFFCURVE",
"766 0 CURVE SMOOTH",
"1209 0 LINE",
"1209 141 LINE",
"792 141 LINE",
"792 693 LINE",
"1182 693 LINE",
"1182 834 LINE",
"792 834 LINE",
"792 1321 LINE",
"1209 1321 LINE",
"1209 1462 LINE",
"729 1462 LINE",
"686 1468 OFFCURVE",
"643 1473 OFFCURVE",
"599 1473 CURVE SMOOTH"
);
},
{
closed = 1;
nodes = (
"613 1327 OFFCURVE",
"625 1327 OFFCURVE",
"637 1326 CURVE",
"637 136 LINE",
"626 135 OFFCURVE",
"614 135 OFFCURVE",
"603 135 CURVE SMOOTH",
"369 135 OFFCURVE",
"263 314 OFFCURVE",
"263 733 CURVE SMOOTH",
"263 1150 OFFCURVE",
"370 1327 OFFCURVE",
"601 1327 CURVE SMOOTH"
);
}
);
width = 1303;
}
);
unicode = 0152;
},
{
glyphname = P;
lastChange = "2013-03-07 05:32:14 +0200";
layers = (
{
layerId = "2E887DCB-F502-4FE4-8513-1FC10DF56BD7";
name = "Regular Condensed";
paths = (
{
closed = 1;
nodes = (
"149 1462 LINE",
"149 0 LINE",
"305 0 LINE",
"305 579 LINE",
"397 579 LINE SMOOTH",
"676 579 OFFCURVE",
"822 727 OFFCURVE",
"822 1032 CURVE SMOOTH",
"822 1326 OFFCURVE",
"690 1462 OFFCURVE",
"406 1462 CURVE SMOOTH"
);
},
{
closed = 1;
nodes = (
"580 1324 OFFCURVE",
"665 1237 OFFCURVE",
"665 1028 CURVE SMOOTH",
"665 805 OFFCURVE",
"583 717 OFFCURVE",
"388 717 CURVE SMOOTH",
"305 717 LINE",
"305 1324 LINE",
"400 1324 LINE SMOOTH"
);
}
);
width = 887;
}
);
unicode = 0050;
},
{
glyphname = Thorn;
lastChange = "2013-03-07 05:32:14 +0200";
layers = (
{
layerId = "2E887DCB-F502-4FE4-8513-1FC10DF56BD7";
name = "Regular Condensed";
paths = (
{
closed = 1;
nodes = (
"149 1462 LINE",
"149 0 LINE",
"305 0 LINE",
"305 321 LINE",
"399 321 LINE SMOOTH",
"678 321 OFFCURVE",
"822 478 OFFCURVE",
"822 782 CURVE SMOOTH",
"822 1068 OFFCURVE",
"690 1204 OFFCURVE",
"405 1204 CURVE SMOOTH",
"305 1204 LINE",
"305 1462 LINE"
);
},
{
closed = 1;
nodes = (
"584 1062 OFFCURVE",
"665 972.999 OFFCURVE",
"665 770 CURVE SMOOTH",
"665 547 OFFCURVE",
"585 461 OFFCURVE",
"388 461 CURVE SMOOTH",
"305 461 LINE",
"305 1062 LINE",
"400 1062 LINE SMOOTH"
);
}
);
width = 887;
}
);
unicode = 00DE;
},
{
glyphname = Q;
lastChange = "2013-03-07 05:32:14 +0200";
layers = (
{
layerId = "2E887DCB-F502-4FE4-8513-1FC10DF56BD7";
name = "Regular Condensed";
paths = (
{
closed = 1;
nodes = (
"256 1483 OFFCURVE",
"102 1233 OFFCURVE",
"102 735 CURVE SMOOTH",
"102 254 OFFCURVE",
"258 -20 OFFCURVE",
"557 -20 CURVE SMOOTH",
"570 -20 OFFCURVE",
"583 -16 OFFCURVE",
"596 -17 CURVE",
"787 -348 LINE",
"973.999 -348 LINE",
"743 23 LINE",
"919 116 OFFCURVE",
"1013 362 OFFCURVE",
"1013 733 CURVE SMOOTH",
"1013 1212 OFFCURVE",
"853 1483 OFFCURVE",
"560 1483 CURVE SMOOTH"
);
},
{
closed = 1;
nodes = (
"754 1341 OFFCURVE",
"853 1135 OFFCURVE",
"853 733 CURVE SMOOTH",
"853 326 OFFCURVE",
"751 122 OFFCURVE",
"557 122 CURVE SMOOTH",
"364 122 OFFCURVE",
"262 331 OFFCURVE",
"262 733 CURVE SMOOTH",
"262 1130 OFFCURVE",
"361 1341 OFFCURVE",
"560 1341 CURVE SMOOTH"
);
}
);
width = 1116;
}
);
unicode = 0051;
},
{
glyphname = R;
lastChange = "2013-03-07 05:32:14 +0200";
layers = (
{
layerId = "2E887DCB-F502-4FE4-8513-1FC10DF56BD7";
name = "Regular Condensed";
paths = (
{
closed = 1;
nodes = (
"150 1462 LINE",
"150 0 LINE",
"305 0 LINE",
"305 616 LINE",
"462 616 LINE",
"721 0 LINE",
"891 0 LINE",
"604 655 LINE",
"758 723 OFFCURVE",
"823 852 OFFCURVE",
"823 1049 CURVE SMOOTH",
"823 1325 OFFCURVE",
"692 1462 OFFCURVE",
"401 1462 CURVE SMOOTH"
);
},
{
closed = 1;
nodes = (
"583 1320 OFFCURVE",
"665 1240 OFFCURVE",
"665 1043 CURVE SMOOTH",
"665 851 OFFCURVE",
"581 753 OFFCURVE",
"420 753 CURVE SMOOTH",
"305 753 LINE",
"305 1320 LINE",
"401 1320 LINE SMOOTH"
);
}
);
width = 921;
}
);
unicode = 0052;
},
{
glyphname = S;
lastChange = "2013-03-07 05:32:13 +0200";
layers = (
{
layerId = "2E887DCB-F502-4FE4-8513-1FC10DF56BD7";
name = "Regular Condensed";
paths = (
{
closed = 1;
nodes = (
"240 1483 OFFCURVE",
"92 1326 OFFCURVE",
"92 1101 CURVE SMOOTH",
"92 887 OFFCURVE",
"176 787 OFFCURVE",
"380 672 CURVE SMOOTH",
"499 600 OFFCURVE",
"590 514 OFFCURVE",
"590 375 CURVE SMOOTH",
"590 231 OFFCURVE",
"502 121 OFFCURVE",
"367 121 CURVE SMOOTH",
"273 121 OFFCURVE",
"160 151 OFFCURVE",
"80 198 CURVE",
"80 38 LINE",
"157 0 OFFCURVE",
"255 -20 OFFCURVE",
"375 -20 CURVE SMOOTH",
"597 -20 OFFCURVE",
"745 139 OFFCURVE",
"745 389 CURVE SMOOTH",
"745 570 OFFCURVE",
"665 693 OFFCURVE",
"469 799 CURVE SMOOTH",
"280 905 OFFCURVE",
"245 967.999 OFFCURVE",
"245 1105 CURVE SMOOTH",
"245 1242 OFFCURVE",
"332 1338 OFFCURVE",
"453 1338 CURVE SMOOTH",
"531 1338 OFFCURVE",
"604 1314 OFFCURVE",
"675 1276 CURVE",
"693 1321 OFFCURVE",
"711 1366 OFFCURVE",
"730 1411 CURVE",
"660 1452 OFFCURVE",
"559 1483 OFFCURVE",
"446 1483 CURVE SMOOTH"
);
}
);
width = 821;
}
);
unicode = 0053;
},
{
glyphname = Scaron;
lastChange = "2013-03-07 05:32:14 +0200";
layers = (
{
layerId = "2E887DCB-F502-4FE4-8513-1FC10DF56BD7";
name = "Regular Condensed";
paths = (
{
closed = 1;
nodes = (
"240 1483 OFFCURVE",
"92 1326 OFFCURVE",
"92 1101 CURVE SMOOTH",
"92 887 OFFCURVE",
"176 787 OFFCURVE",
"380 672 CURVE SMOOTH",
"499 600 OFFCURVE",
"590 514 OFFCURVE",
"590 375 CURVE SMOOTH",
"590 231 OFFCURVE",
"502 121 OFFCURVE",
"367 121 CURVE SMOOTH",
"273 121 OFFCURVE",
"160 151 OFFCURVE",
"80 198 CURVE",
"80 38 LINE",
"157 0 OFFCURVE",
"255 -20 OFFCURVE",
"375 -20 CURVE SMOOTH",
"597 -20 OFFCURVE",
"745 139 OFFCURVE",
"745 389 CURVE SMOOTH",
"745 570 OFFCURVE",
"665 693 OFFCURVE",
"469 799 CURVE SMOOTH",
"280 905 OFFCURVE",
"245 967.999 OFFCURVE",
"245 1105 CURVE SMOOTH",
"245 1242 OFFCURVE",
"332 1338 OFFCURVE",
"453 1338 CURVE SMOOTH",
"531 1338 OFFCURVE",
"604 1314 OFFCURVE",
"675 1276 CURVE",
"693 1321 OFFCURVE",
"711 1366 OFFCURVE",
"730 1411 CURVE",
"660 1452 OFFCURVE",
"559 1483 OFFCURVE",
"446 1483 CURVE SMOOTH"
);
},
{
closed = 1;
nodes = (
"627 1907 LINE",
"591 1877 OFFCURVE",
"523 1806 OFFCURVE",
"440 1705 CURVE",
"374 1779 OFFCURVE",
"306 1856 OFFCURVE",
"248 1907 CURVE",
"163 1907 LINE",
"163 1885 LINE",
"253 1765 OFFCURVE",
"318 1663 OFFCURVE",
"360 1579 CURVE",
"515 1579 LINE",
"545 1642 OFFCURVE",
"630 1777 OFFCURVE",
"713 1885 CURVE",
"713 1907 LINE"
);
}
);
width = 821;
}
);
unicode = 0160;
},
{
glyphname = T;
lastChange = "2013-03-07 05:32:13 +0200";
layers = (
{
layerId = "2E887DCB-F502-4FE4-8513-1FC10DF56BD7";
name = "Regular Condensed";
paths = (
{
closed = 1;
nodes = (
"18 1462 LINE",
"18 1320 LINE",
"306 1320 LINE",
"306 0 LINE",
"461 0 LINE",
"461 1320 LINE",
"748 1320 LINE",
"748 1462 LINE"
);
}
);
width = 768;
}
);
unicode = 0054;
},
{
glyphname = U;
lastChange = "2013-03-07 05:32:13 +0200";
layers = (
{
layerId = "2E887DCB-F502-4FE4-8513-1FC10DF56BD7";
name = "Regular Condensed";
paths = (
{
closed = 1;
nodes = (
"763 1462 LINE",
"763 476 LINE SMOOTH",
"763 245 OFFCURVE",
"683 123 OFFCURVE",
"532 123 CURVE SMOOTH",
"379 123 OFFCURVE",
"295 244 OFFCURVE",
"295 475 CURVE SMOOTH",
"295 1462 LINE",
"139 1462 LINE",
"139 490 LINE SMOOTH",
"139 159 OFFCURVE",
"275 -20 OFFCURVE",
"529 -20 CURVE SMOOTH",
"786 -20 OFFCURVE",
"918 153 OFFCURVE",
"918 489 CURVE SMOOTH",
"918 1462 LINE"
);
}
);
width = 1058;
}
);
unicode = 0055;
},
{
glyphname = Uacute;
lastChange = "2013-03-07 05:32:14 +0200";
layers = (
{
layerId = "2E887DCB-F502-4FE4-8513-1FC10DF56BD7";
name = "Regular Condensed";
paths = (
{
closed = 1;
nodes = (
"763 1462 LINE",
"763 476 LINE SMOOTH",
"763 245 OFFCURVE",
"683 123 OFFCURVE",
"532 123 CURVE SMOOTH",
"379 123 OFFCURVE",
"295 244 OFFCURVE",
"295 475 CURVE SMOOTH",
"295 1462 LINE",
"139 1462 LINE",
"139 490 LINE SMOOTH",
"139 159 OFFCURVE",
"275 -20 OFFCURVE",
"529 -20 CURVE SMOOTH",
"786 -20 OFFCURVE",
"918 153 OFFCURVE",
"918 489 CURVE SMOOTH",
"918 1462 LINE"
);
},
{
closed = 1;
nodes = (
"614 1907 LINE",
"575 1821 OFFCURVE",
"500 1695 OFFCURVE",
"429 1601 CURVE",
"429 1579 LINE",
"522 1579 LINE",
"618 1658 OFFCURVE",
"762 1813 OFFCURVE",
"802 1888 CURVE",
"802 1907 LINE"
);
}
);
width = 1058;
}
);
unicode = 00DA;
},
{
glyphname = Ucircumflex;
lastChange = "2013-03-07 05:32:14 +0200";
layers = (
{
layerId = "2E887DCB-F502-4FE4-8513-1FC10DF56BD7";
name = "Regular Condensed";
paths = (
{
closed = 1;
nodes = (
"763 1462 LINE",
"763 476 LINE SMOOTH",
"763 245 OFFCURVE",
"683 123 OFFCURVE",
"532 123 CURVE SMOOTH",
"379 123 OFFCURVE",
"295 244 OFFCURVE",
"295 475 CURVE SMOOTH",
"295 1462 LINE",
"139 1462 LINE",
"139 490 LINE SMOOTH",
"139 159 OFFCURVE",
"275 -20 OFFCURVE",
"529 -20 CURVE SMOOTH",
"786 -20 OFFCURVE",
"918 153 OFFCURVE",
"918 489 CURVE SMOOTH",
"918 1462 LINE"
);
},
{
closed = 1;
nodes = (
"451 1907 LINE",
"413 1826 OFFCURVE",
"347 1724 OFFCURVE",
"254 1600 CURVE",
"254 1579 LINE",
"339 1579 LINE",
"397 1631 OFFCURVE",
"465 1708 OFFCURVE",
"529 1780 CURVE",
"619 1679 LINE SMOOTH",
"658 1635 OFFCURVE",
"691 1602 OFFCURVE",
"718 1579 CURVE",
"804 1579 LINE",
"804 1600 LINE",
"718 1711 OFFCURVE",
"634 1841 OFFCURVE",
"606 1907 CURVE"
);
}
);
width = 1058;
}
);
unicode = 00DB;
},
{
glyphname = Udieresis;
lastChange = "2013-03-07 05:32:14 +0200";
layers = (
{
layerId = "2E887DCB-F502-4FE4-8513-1FC10DF56BD7";
name = "Regular Condensed";
paths = (
{
closed = 1;
nodes = (
"763 1462 LINE",
"763 476 LINE SMOOTH",
"763 245 OFFCURVE",
"683 123 OFFCURVE",
"532 123 CURVE SMOOTH",
"379 123 OFFCURVE",
"295 244 OFFCURVE",
"295 475 CURVE SMOOTH",
"295 1462 LINE",
"139 1462 LINE",
"139 490 LINE SMOOTH",
"139 159 OFFCURVE",
"275 -20 OFFCURVE",
"529 -20 CURVE SMOOTH",
"786 -20 OFFCURVE",
"918 153 OFFCURVE",
"918 489 CURVE SMOOTH",
"918 1462 LINE"
);
},
{
closed = 1;
nodes = (
"313 1828 OFFCURVE",
"276 1797 OFFCURVE",
"276 1732 CURVE SMOOTH",
"276 1666 OFFCURVE",
"313 1633 OFFCURVE",
"362 1633 CURVE SMOOTH",
"411 1633 OFFCURVE",
"447 1667 OFFCURVE",
"447 1732 CURVE SMOOTH",
"447 1795 OFFCURVE",
"411 1828 OFFCURVE",
"362 1828 CURVE SMOOTH"
);
},
{
closed = 1;
nodes = (
"649 1828 OFFCURVE",
"612 1796 OFFCURVE",
"612 1732 CURVE SMOOTH",
"612 1667 OFFCURVE",
"649 1633 OFFCURVE",
"697 1633 CURVE SMOOTH",
"747 1633 OFFCURVE",
"783 1666 OFFCURVE",
"783 1732 CURVE SMOOTH",
"783 1797 OFFCURVE",
"746 1828 OFFCURVE",
"697 1828 CURVE SMOOTH"
);
}
);
width = 1058;
}
);
unicode = 00DC;
},
{
glyphname = Ugrave;
lastChange = "2013-03-07 05:32:14 +0200";
layers = (
{
layerId = "2E887DCB-F502-4FE4-8513-1FC10DF56BD7";
name = "Regular Condensed";
paths = (
{
closed = 1;
nodes = (
"763 1462 LINE",
"763 476 LINE SMOOTH",
"763 245 OFFCURVE",
"683 123 OFFCURVE",
"532 123 CURVE SMOOTH",
"379 123 OFFCURVE",
"295 244 OFFCURVE",
"295 475 CURVE SMOOTH",
"295 1462 LINE",
"139 1462 LINE",
"139 490 LINE SMOOTH",
"139 159 OFFCURVE",
"275 -20 OFFCURVE",
"529 -20 CURVE SMOOTH",
"786 -20 OFFCURVE",
"918 153 OFFCURVE",
"918 489 CURVE SMOOTH",
"918 1462 LINE"
);
},
{
closed = 1;
nodes = (
"255 1907 LINE",
"255 1889 LINE",
"277 1848 OFFCURVE",
"318 1795 OFFCURVE",
"377 1731 CURVE SMOOTH",
"437 1667 OFFCURVE",
"490 1616 OFFCURVE",
"535 1579 CURVE",
"629 1579 LINE",
"629 1602 LINE",
"597 1642 OFFCURVE",
"562 1693 OFFCURVE",
"525 1754 CURVE SMOOTH",
"489 1814 OFFCURVE",
"462 1866 OFFCURVE",
"444 1907 CURVE"
);
}
);
width = 1058;
}
);
unicode = 00D9;
},
{
glyphname = V;
lastChange = "2013-03-07 05:32:13 +0200";
layers = (
{
layerId = "2E887DCB-F502-4FE4-8513-1FC10DF56BD7";
name = "Regular Condensed";
paths = (
{
closed = 1;
nodes = (
"717 1462 LINE",
"475 408 LINE SMOOTH",
"461 341 OFFCURVE",
"446 250 OFFCURVE",
"434 160 CURVE",
"419 289 OFFCURVE",
"412 339 OFFCURVE",
"381 478 CURVE SMOOTH",
"306 806 OFFCURVE",
"232 1133 OFFCURVE",
"158 1462 CURVE",
"0 1462 LINE",
"114 974.999 OFFCURVE",
"228 487 OFFCURVE",
"343 0 CURVE",
"530 0 LINE",
"875 1462 LINE"
);
}
);
width = 876;
}
);
unicode = 0056;
},
{
glyphname = W;
lastChange = "2013-03-07 05:32:13 +0200";
layers = (
{
layerId = "2E887DCB-F502-4FE4-8513-1FC10DF56BD7";
name = "Regular Condensed";
paths = (
{
closed = 1;
nodes = (
"1300 1462 LINE",
"1116 515 LINE SMOOTH",
"1099 434 OFFCURVE",
"1081 315 OFFCURVE",
"1061 155 CURVE",
"1045 274 OFFCURVE",
"1025 417 OFFCURVE",
"983.999 625 CURVE SMOOTH",
"819 1462 LINE",
"651 1462 LINE",
"458 479 LINE SMOOTH",
"438 374 OFFCURVE",
"424 267 OFFCURVE",
"409 156 CURVE",
"395 263 OFFCURVE",
"361 435 OFFCURVE",
"328 627 CURVE SMOOTH",
"275 905 OFFCURVE",
"223 1183 OFFCURVE",
"169 1462 CURVE",
"12 1462 LINE",
"112 974.999 OFFCURVE",
"211 487 OFFCURVE",
"310 0 CURVE",
"500 0 LINE",
"644 741 LINE SMOOTH",
"664 855 OFFCURVE",
"685 969.999 OFFCURVE",
"706 1085 CURVE SMOOTH",
"721 1180 LINE SMOOTH",
"725 1209 OFFCURVE",
"729 1238 OFFCURVE",
"733 1268 CURVE",
"773 955 OFFCURVE",
"784 924 OFFCURVE",
"822 741 CURVE SMOOTH",
"968.999 0 LINE",
"1161 0 LINE",
"1260 487 OFFCURVE",
"1357 974.999 OFFCURVE",
"1456 1462 CURVE"
);
}
);
width = 1470;
}
);
unicode = 0057;
},
{
glyphname = X;
lastChange = "2013-03-07 05:32:13 +0200";
layers = (
{
layerId = "2E887DCB-F502-4FE4-8513-1FC10DF56BD7";
name = "Regular Condensed";
paths = (
{
closed = 1;
nodes = (
"615 1462 LINE",
"419 896 LINE",
"210 1462 LINE",
"50 1462 LINE",
"329 771 LINE",
"13 0 LINE",
"173 0 LINE",
"407 623 LINE",
"623 0 LINE",
"785 0 LINE",
"502 752 LINE",
"776 1462 LINE"
);
}
);
width = 799;
}
);
unicode = 0058;
},
{
glyphname = Y;
lastChange = "2013-03-07 05:32:13 +0200";
layers = (
{
layerId = "2E887DCB-F502-4FE4-8513-1FC10DF56BD7";
name = "Regular Condensed";
paths = (
{
closed = 1;
nodes = (
"613 1462 LINE",
"389 766 LINE",
"164 1462 LINE",
"0 1462 LINE",
"310 572 LINE",
"310 0 LINE",
"465 0 LINE",
"465 576 LINE",
"777 1462 LINE"
);
}
);
width = 777;
}
);
unicode = 0059;
},
{
glyphname = Yacute;
lastChange = "2013-03-07 05:32:14 +0200";
layers = (
{
layerId = "2E887DCB-F502-4FE4-8513-1FC10DF56BD7";
name = "Regular Condensed";
paths = (
{
closed = 1;
nodes = (
"613 1462 LINE",
"389 766 LINE",
"164 1462 LINE",
"0 1462 LINE",
"310 572 LINE",
"310 0 LINE",
"465 0 LINE",
"465 576 LINE",
"777 1462 LINE"
);
},
{
closed = 1;
nodes = (
"481 1907 LINE",
"442 1821 OFFCURVE",
"367 1695 OFFCURVE",
"296 1601 CURVE",
"296 1579 LINE",
"389 1579 LINE",
"485 1658 OFFCURVE",
"629 1813 OFFCURVE",
"669 1888 CURVE",
"669 1907 LINE"
);
}
);
width = 777;
}
);
unicode = 00DD;
},
{
glyphname = Ydieresis;
lastChange = "2013-03-07 05:32:14 +0200";
layers = (
{
layerId = "2E887DCB-F502-4FE4-8513-1FC10DF56BD7";
name = "Regular Condensed";
paths = (
{
closed = 1;
nodes = (
"613 1462 LINE",
"389 766 LINE",
"164 1462 LINE",
"0 1462 LINE",
"310 572 LINE",
"310 0 LINE",
"465 0 LINE",
"465 576 LINE",
"777 1462 LINE"
);
},
{
closed = 1;
nodes = (
"174 1828 OFFCURVE",
"137 1797 OFFCURVE",
"137 1732 CURVE SMOOTH",
"137 1666 OFFCURVE",
"174 1633 OFFCURVE",
"223 1633 CURVE SMOOTH",
"272 1633 OFFCURVE",
"308 1667 OFFCURVE",
"308 1732 CURVE SMOOTH",
"308 1795 OFFCURVE",
"272 1828 OFFCURVE",
"223 1828 CURVE SMOOTH"
);
},
{
closed = 1;
nodes = (
"510 1828 OFFCURVE",
"473 1796 OFFCURVE",
"473 1732 CURVE SMOOTH",
"473 1667 OFFCURVE",
"510 1633 OFFCURVE",
"558 1633 CURVE SMOOTH",
"608 1633 OFFCURVE",
"644 1666 OFFCURVE",
"644 1732 CURVE SMOOTH",
"644 1797 OFFCURVE",
"607 1828 OFFCURVE",
"558 1828 CURVE SMOOTH"
);
}
);
width = 777;
}
);
unicode = 0178;
},
{
glyphname = Z;
lastChange = "2013-03-07 05:32:13 +0200";
layers = (
{
layerId = "2E887DCB-F502-4FE4-8513-1FC10DF56BD7";
name = "Regular Condensed";
paths = (
{
closed = 1;
nodes = (
"61 1462 LINE",
"61 1319 LINE",
"491 1319 LINE",
"52 122 LINE",
"52 0 LINE",
"679 0 LINE",
"679 142 LINE",
"223 142 LINE",
"666 1339 LINE",
"666 1462 LINE"
);
}
);
width = 720;
}
);
unicode = 005A;
},
{
glyphname = Zcaron;
lastChange = "2013-03-07 05:32:14 +0200";
layers = (
{
layerId = "2E887DCB-F502-4FE4-8513-1FC10DF56BD7";
name = "Regular Condensed";
paths = (
{
closed = 1;
nodes = (
"61 1462 LINE",
"61 1319 LINE",
"491 1319 LINE",
"52 122 LINE",
"52 0 LINE",
"679 0 LINE",
"679 142 LINE",
"223 142 LINE",
"666 1339 LINE",
"666 1462 LINE"
);
},
{
closed = 1;
nodes = (
"551 1907 LINE",
"515 1877 OFFCURVE",
"447 1806 OFFCURVE",
"364 1705 CURVE",
"298 1779 OFFCURVE",
"230 1856 OFFCURVE",
"172 1907 CURVE",
"87 1907 LINE",
"87 1885 LINE",
"177 1765 OFFCURVE",
"242 1663 OFFCURVE",
"284 1579 CURVE",
"439 1579 LINE",
"469 1642 OFFCURVE",
"554 1777 OFFCURVE",
"637 1885 CURVE",
"637 1907 LINE"
);
}
);
width = 720;
}
);
unicode = 017D;
},
{
glyphname = a;
lastChange = "2013-03-07 05:32:14 +0200";
layers = (
{
layerId = "2E887DCB-F502-4FE4-8513-1FC10DF56BD7";
name = "Regular Condensed";
paths = (
{
closed = 1;
nodes = (
"325 1116 OFFCURVE",
"233 1089 OFFCURVE",
"146 1034 CURVE",
"166 996.999 OFFCURVE",
"184 960 OFFCURVE",
"204 923 CURVE",
"276 967.999 OFFCURVE",
"343 989.999 OFFCURVE",
"407 989.999 CURVE SMOOTH",
"518 989.999 OFFCURVE",
"561 911 OFFCURVE",
"561 743 CURVE SMOOTH",
"561 657 LINE",
"434 651 LINE SMOOTH",
"200 640 OFFCURVE",
"70 518 OFFCURVE",
"70 303 CURVE SMOOTH",
"70 97.9999 OFFCURVE",
"164 -18 OFFCURVE",
"324 -18 CURVE SMOOTH",
"426 -18 OFFCURVE",
"507 32 OFFCURVE",
"565 152 CURVE",
"570 152 LINE",
"596 0 LINE",
"712 0 LINE",
"712 741 LINE SMOOTH",
"712 999.999 OFFCURVE",
"618 1116 OFFCURVE",
"424 1116 CURVE SMOOTH"
);
},
{
closed = 1;
nodes = (
"561 440 LINE SMOOTH",
"561 228 OFFCURVE",
"488 102 OFFCURVE",
"365 102 CURVE SMOOTH",
"279 102 OFFCURVE",
"228 165 OFFCURVE",
"228 301 CURVE SMOOTH",
"228 454 OFFCURVE",
"301 533 OFFCURVE",
"459 541 CURVE SMOOTH",
"493 543 OFFCURVE",
"527 545 OFFCURVE",
"561 546 CURVE"
);
}
);
width = 841;
}
);
unicode = 0061;
},
{
glyphname = aacute;
lastChange = "2013-03-07 05:32:14 +0200";
layers = (
{
layerId = "2E887DCB-F502-4FE4-8513-1FC10DF56BD7";
name = "Regular Condensed";
paths = (
{
closed = 1;
nodes = (
"325 1116 OFFCURVE",
"233 1089 OFFCURVE",
"146 1034 CURVE",
"166 996.999 OFFCURVE",
"184 960 OFFCURVE",
"204 923 CURVE",
"276 967.999 OFFCURVE",
"343 989.999 OFFCURVE",
"407 989.999 CURVE SMOOTH",
"518 989.999 OFFCURVE",
"561 911 OFFCURVE",
"561 743 CURVE SMOOTH",
"561 657 LINE",
"434 651 LINE SMOOTH",
"200 640 OFFCURVE",
"70 518 OFFCURVE",
"70 303 CURVE SMOOTH",
"70 97.9999 OFFCURVE",
"164 -18 OFFCURVE",
"324 -18 CURVE SMOOTH",
"426 -18 OFFCURVE",
"507 32 OFFCURVE",
"565 152 CURVE",
"570 152 LINE",
"596 0 LINE",
"712 0 LINE",
"712 741 LINE SMOOTH",
"712 999.999 OFFCURVE",
"618 1116 OFFCURVE",
"424 1116 CURVE SMOOTH"
);
},
{
closed = 1;
nodes = (
"561 440 LINE SMOOTH",
"561 228 OFFCURVE",
"488 102 OFFCURVE",
"365 102 CURVE SMOOTH",
"279 102 OFFCURVE",
"228 165 OFFCURVE",
"228 301 CURVE SMOOTH",
"228 454 OFFCURVE",
"301 533 OFFCURVE",
"459 541 CURVE SMOOTH",
"493 543 OFFCURVE",
"527 545 OFFCURVE",
"561 546 CURVE"
);
},
{
closed = 1;
nodes = (
"499 1569 LINE",
"460 1483 OFFCURVE",
"385 1357 OFFCURVE",
"314 1263 CURVE",
"314 1241 LINE",
"407 1241 LINE",
"503 1320 OFFCURVE",
"647 1475 OFFCURVE",
"687 1550 CURVE",
"687 1569 LINE"
);
}
);
width = 841;
}
);
unicode = 00E1;
},
{
glyphname = acircumflex;
lastChange = "2013-03-07 05:32:14 +0200";
layers = (
{
layerId = "2E887DCB-F502-4FE4-8513-1FC10DF56BD7";
name = "Regular Condensed";
paths = (
{
closed = 1;
nodes = (
"325 1116 OFFCURVE",
"233 1089 OFFCURVE",
"146 1034 CURVE",
"166 996.999 OFFCURVE",
"184 960 OFFCURVE",
"204 923 CURVE",
"276 967.999 OFFCURVE",
"343 989.999 OFFCURVE",
"407 989.999 CURVE SMOOTH",
"518 989.999 OFFCURVE",
"561 911 OFFCURVE",
"561 743 CURVE SMOOTH",
"561 657 LINE",
"434 651 LINE SMOOTH",
"200 640 OFFCURVE",
"70 518 OFFCURVE",
"70 303 CURVE SMOOTH",
"70 97.9999 OFFCURVE",
"164 -18 OFFCURVE",
"324 -18 CURVE SMOOTH",
"426 -18 OFFCURVE",
"507 32 OFFCURVE",
"565 152 CURVE",
"570 152 LINE",
"596 0 LINE",
"712 0 LINE",
"712 741 LINE SMOOTH",
"712 999.999 OFFCURVE",
"618 1116 OFFCURVE",
"424 1116 CURVE SMOOTH"
);
},
{
closed = 1;
nodes = (
"561 440 LINE SMOOTH",
"561 228 OFFCURVE",
"488 102 OFFCURVE",
"365 102 CURVE SMOOTH",
"279 102 OFFCURVE",
"228 165 OFFCURVE",
"228 301 CURVE SMOOTH",
"228 454 OFFCURVE",
"301 533 OFFCURVE",
"459 541 CURVE SMOOTH",
"493 543 OFFCURVE",
"527 545 OFFCURVE",
"561 546 CURVE"
);
},
{
closed = 1;
nodes = (
"343 1570 LINE",
"305 1489 OFFCURVE",
"239 1387 OFFCURVE",
"146 1263 CURVE",
"146 1242 LINE",
"231 1242 LINE",
"289 1294 OFFCURVE",
"357 1371 OFFCURVE",
"421 1443 CURVE",
"511 1342 LINE SMOOTH",
"550 1298 OFFCURVE",
"583 1265 OFFCURVE",
"610 1242 CURVE",
"696 1242 LINE",
"696 1263 LINE",
"610 1374 OFFCURVE",
"526 1504 OFFCURVE",
"498 1570 CURVE"
);
}
);
width = 841;
}
);
unicode = 00E2;
},
{
glyphname = adieresis;
lastChange = "2013-03-07 05:32:14 +0200";
layers = (
{
layerId = "2E887DCB-F502-4FE4-8513-1FC10DF56BD7";
name = "Regular Condensed";
paths = (
{
closed = 1;
nodes = (
"325 1116 OFFCURVE",
"233 1089 OFFCURVE",
"146 1034 CURVE",
"166 996.999 OFFCURVE",
"184 960 OFFCURVE",
"204 923 CURVE",
"276 967.999 OFFCURVE",
"343 989.999 OFFCURVE",
"407 989.999 CURVE SMOOTH",
"518 989.999 OFFCURVE",
"561 911 OFFCURVE",
"561 743 CURVE SMOOTH",
"561 657 LINE",
"434 651 LINE SMOOTH",
"200 640 OFFCURVE",
"70 518 OFFCURVE",
"70 303 CURVE SMOOTH",
"70 97.9999 OFFCURVE",
"164 -18 OFFCURVE",
"324 -18 CURVE SMOOTH",
"426 -18 OFFCURVE",
"507 32 OFFCURVE",
"565 152 CURVE",
"570 152 LINE",
"596 0 LINE",
"712 0 LINE",
"712 741 LINE SMOOTH",
"712 999.999 OFFCURVE",
"618 1116 OFFCURVE",
"424 1116 CURVE SMOOTH"
);
},
{
closed = 1;
nodes = (
"561 440 LINE SMOOTH",
"561 228 OFFCURVE",
"488 102 OFFCURVE",
"365 102 CURVE SMOOTH",
"279 102 OFFCURVE",
"228 165 OFFCURVE",
"228 301 CURVE SMOOTH",
"228 454 OFFCURVE",
"301 533 OFFCURVE",
"459 541 CURVE SMOOTH",
"493 543 OFFCURVE",
"527 545 OFFCURVE",
"561 546 CURVE"
);
},
{
closed = 1;
nodes = (
"202 1490 OFFCURVE",
"165 1459 OFFCURVE",
"165 1394 CURVE SMOOTH",
"165 1328 OFFCURVE",
"202 1295 OFFCURVE",
"251 1295 CURVE SMOOTH",
"300 1295 OFFCURVE",
"336 1329 OFFCURVE",
"336 1394 CURVE SMOOTH",
"336 1457 OFFCURVE",
"300 1490 OFFCURVE",
"251 1490 CURVE SMOOTH"
);
},
{
closed = 1;
nodes = (
"538 1490 OFFCURVE",
"501 1458 OFFCURVE",
"501 1394 CURVE SMOOTH",
"501 1329 OFFCURVE",
"538 1295 OFFCURVE",
"586 1295 CURVE SMOOTH",
"636 1295 OFFCURVE",
"672 1328 OFFCURVE",
"672 1394 CURVE SMOOTH",
"672 1459 OFFCURVE",
"635 1490 OFFCURVE",
"586 1490 CURVE SMOOTH"
);
}
);
width = 841;
}
);
unicode = 00E4;
},
{
glyphname = agrave;
lastChange = "2013-03-07 05:32:14 +0200";
layers = (
{
layerId = "2E887DCB-F502-4FE4-8513-1FC10DF56BD7";
name = "Regular Condensed";
paths = (
{
closed = 1;
nodes = (
"325 1116 OFFCURVE",
"233 1089 OFFCURVE",
"146 1034 CURVE",
"166 996.999 OFFCURVE",
"184 960 OFFCURVE",
"204 923 CURVE",
"276 967.999 OFFCURVE",
"343 989.999 OFFCURVE",
"407 989.999 CURVE SMOOTH",
"518 989.999 OFFCURVE",
"561 911 OFFCURVE",
"561 743 CURVE SMOOTH",
"561 657 LINE",
"434 651 LINE SMOOTH",
"200 640 OFFCURVE",
"70 518 OFFCURVE",
"70 303 CURVE SMOOTH",
"70 97.9999 OFFCURVE",
"164 -18 OFFCURVE",
"324 -18 CURVE SMOOTH",
"426 -18 OFFCURVE",
"507 32 OFFCURVE",
"565 152 CURVE",
"570 152 LINE",
"596 0 LINE",
"712 0 LINE",
"712 741 LINE SMOOTH",
"712 999.999 OFFCURVE",
"618 1116 OFFCURVE",
"424 1116 CURVE SMOOTH"
);
},
{
closed = 1;
nodes = (
"561 440 LINE SMOOTH",
"561 228 OFFCURVE",
"488 102 OFFCURVE",
"365 102 CURVE SMOOTH",
"279 102 OFFCURVE",
"228 165 OFFCURVE",
"228 301 CURVE SMOOTH",
"228 454 OFFCURVE",
"301 533 OFFCURVE",
"459 541 CURVE SMOOTH",
"493 543 OFFCURVE",
"527 545 OFFCURVE",
"561 546 CURVE"
);
},
{
closed = 1;
nodes = (
"157 1569 LINE",
"157 1551 LINE",
"179 1510 OFFCURVE",
"220 1457 OFFCURVE",
"279 1393 CURVE SMOOTH",
"339 1329 OFFCURVE",
"392 1278 OFFCURVE",
"437 1241 CURVE",
"531 1241 LINE",
"531 1264 LINE",
"499 1304 OFFCURVE",
"464 1355 OFFCURVE",
"427 1416 CURVE SMOOTH",
"391 1476 OFFCURVE",
"364 1528 OFFCURVE",
"346 1569 CURVE"
);
}
);
width = 841;
}
);
unicode = 00E0;
},
{
glyphname = aring;
lastChange = "2013-03-07 05:32:14 +0200";
layers = (
{
layerId = "2E887DCB-F502-4FE4-8513-1FC10DF56BD7";
name = "Regular Condensed";
paths = (
{
closed = 1;
nodes = (
"325 1116 OFFCURVE",
"233 1089 OFFCURVE",
"146 1034 CURVE",
"166 996.999 OFFCURVE",
"184 960 OFFCURVE",
"204 923 CURVE",
"276 967.999 OFFCURVE",
"343 989.999 OFFCURVE",
"407 989.999 CURVE SMOOTH",
"518 989.999 OFFCURVE",
"561 911 OFFCURVE",
"561 743 CURVE SMOOTH",
"561 657 LINE",
"434 651 LINE SMOOTH",
"200 640 OFFCURVE",
"70 518 OFFCURVE",
"70 303 CURVE SMOOTH",
"70 97.9999 OFFCURVE",
"164 -18 OFFCURVE",
"324 -18 CURVE SMOOTH",
"426 -18 OFFCURVE",
"507 32 OFFCURVE",
"565 152 CURVE",
"570 152 LINE",
"596 0 LINE",
"712 0 LINE",
"712 741 LINE SMOOTH",
"712 999.999 OFFCURVE",
"618 1116 OFFCURVE",
"424 1116 CURVE SMOOTH"
);
},
{
closed = 1;
nodes = (
"561 440 LINE SMOOTH",
"561 228 OFFCURVE",
"488 102 OFFCURVE",
"365 102 CURVE SMOOTH",
"279 102 OFFCURVE",
"228 165 OFFCURVE",
"228 301 CURVE SMOOTH",
"228 454 OFFCURVE",
"301 533 OFFCURVE",
"459 541 CURVE SMOOTH",
"493 543 OFFCURVE",
"527 545 OFFCURVE",
"561 546 CURVE"
);
},
{
closed = 1;
nodes = (
"492 1560 OFFCURVE",
"534 1515 OFFCURVE",
"534 1449 CURVE SMOOTH",
"534 1381 OFFCURVE",
"487 1337 OFFCURVE",
"420 1337 CURVE SMOOTH",
"345 1337 OFFCURVE",
"306 1381 OFFCURVE",
"306 1449 CURVE SMOOTH",
"306 1515 OFFCURVE",
"353 1560 OFFCURVE",
"420 1560 CURVE SMOOTH"
);
},
{
closed = 1;
nodes = (
"292 1651 OFFCURVE",
"206 1572 OFFCURVE",
"206 1449 CURVE SMOOTH",
"206 1322 OFFCURVE",
"292 1247 OFFCURVE",
"420 1247 CURVE SMOOTH",
"551 1247 OFFCURVE",
"636 1327 OFFCURVE",
"636 1452 CURVE SMOOTH",
"636 1571 OFFCURVE",
"544 1651 OFFCURVE",
"420 1651 CURVE SMOOTH"
);
}
);
width = 841;
}
);
unicode = 00E5;
},
{
glyphname = atilde;
lastChange = "2013-03-07 05:32:14 +0200";
layers = (
{
layerId = "2E887DCB-F502-4FE4-8513-1FC10DF56BD7";
name = "Regular Condensed";
paths = (
{
closed = 1;
nodes = (
"325 1116 OFFCURVE",
"233 1089 OFFCURVE",
"146 1034 CURVE",
"166 996.999 OFFCURVE",
"184 960 OFFCURVE",
"204 923 CURVE",
"276 967.999 OFFCURVE",
"343 989.999 OFFCURVE",
"407 989.999 CURVE SMOOTH",
"518 989.999 OFFCURVE",
"561 911 OFFCURVE",
"561 743 CURVE SMOOTH",
"561 657 LINE",
"434 651 LINE SMOOTH",
"200 640 OFFCURVE",
"70 518 OFFCURVE",
"70 303 CURVE SMOOTH",
"70 97.9999 OFFCURVE",
"164 -18 OFFCURVE",
"324 -18 CURVE SMOOTH",
"426 -18 OFFCURVE",
"507 32 OFFCURVE",
"565 152 CURVE",
"570 152 LINE",
"596 0 LINE",
"712 0 LINE",
"712 741 LINE SMOOTH",
"712 999.999 OFFCURVE",
"618 1116 OFFCURVE",
"424 1116 CURVE SMOOTH"
);
},
{
closed = 1;
nodes = (
"561 440 LINE SMOOTH",
"561 228 OFFCURVE",
"488 102 OFFCURVE",
"365 102 CURVE SMOOTH",
"279 102 OFFCURVE",
"228 165 OFFCURVE",
"228 301 CURVE SMOOTH",
"228 454 OFFCURVE",
"301 533 OFFCURVE",
"459 541 CURVE SMOOTH",
"493 543 OFFCURVE",
"527 545 OFFCURVE",
"561 546 CURVE"
);
},
{
closed = 1;
nodes = (
"640 1483 LINE",
"627 1407 OFFCURVE",
"608 1361 OFFCURVE",
"562 1361 CURVE SMOOTH",
"491 1361 OFFCURVE",
"415 1481 OFFCURVE",
"314 1481 CURVE SMOOTH",
"209 1481 OFFCURVE",
"147 1394 OFFCURVE",
"131 1240 CURVE",
"227 1240 LINE",
"239 1319 OFFCURVE",
"267 1363 OFFCURVE",
"309 1363 CURVE SMOOTH",
"376 1363 OFFCURVE",
"454 1242 OFFCURVE",
"556 1242 CURVE SMOOTH",
"656 1242 OFFCURVE",
"723 1326 OFFCURVE",
"736 1483 CURVE"
);
}
);
width = 841;
}
);
unicode = 00E3;
},
{
glyphname = ae;
lastChange = "2013-03-07 05:32:14 +0200";
layers = (
{
layerId = "2E887DCB-F502-4FE4-8513-1FC10DF56BD7";
name = "Regular Condensed";
paths = (
{
closed = 1;
nodes = (
"802 1115 OFFCURVE",
"720 1067 OFFCURVE",
"661 969.999 CURVE",
"614 1066 OFFCURVE",
"531 1114 OFFCURVE",
"414 1114 CURVE SMOOTH",
"302 1114 OFFCURVE",
"221 1080 OFFCURVE",
"146 1034 CURVE",
"166 996.999 OFFCURVE",
"184 960 OFFCURVE",
"204 923 CURVE",
"276 967.999 OFFCURVE",
"343 989.999 OFFCURVE",
"407 989.999 CURVE SMOOTH",
"514 989.999 OFFCURVE",
"561 907 OFFCURVE",
"561 743 CURVE SMOOTH",
"561 657 LINE",
"434 651 LINE SMOOTH",
"200 640 OFFCURVE",
"70 518 OFFCURVE",
"70 303 CURVE SMOOTH",
"70 101 OFFCURVE",
"167 -20 OFFCURVE",
"332 -20 CURVE SMOOTH",
"466 -20 OFFCURVE",
"561 44 OFFCURVE",
"627 200 CURVE",
"687 58 OFFCURVE",
"800 -20 OFFCURVE",
"945 -20 CURVE SMOOTH",
"1040 -20 OFFCURVE",
"1123 3 OFFCURVE",
"1196 48 CURVE",
"1196 180 LINE",
"1121 133 OFFCURVE",
"1035 108 OFFCURVE",
"960 108 CURVE SMOOTH",
"804 108 OFFCURVE",
"720 246 OFFCURVE",
"714 525 CURVE",
"1235 525 LINE",
"1235 631 LINE SMOOTH",
"1235 929 OFFCURVE",
"1111 1115 OFFCURVE",
"908 1115 CURVE SMOOTH"
);
},
{
closed = 1;
nodes = (
"561 440 LINE SMOOTH",
"561 228 OFFCURVE",
"488 102 OFFCURVE",
"365 102 CURVE SMOOTH",
"279 102 OFFCURVE",
"228 165 OFFCURVE",
"228 301 CURVE SMOOTH",
"228 460 OFFCURVE",
"301 533 OFFCURVE",
"459 541 CURVE SMOOTH",
"493 543 OFFCURVE",
"527 545 OFFCURVE",
"561 546 CURVE"
);
},
{
closed = 1;
nodes = (
"1017 987.999 OFFCURVE",
"1087 856 OFFCURVE",
"1087 646 CURVE",
"717 646 LINE",
"730 874 OFFCURVE",
"793 987.999 OFFCURVE",
"907 987.999 CURVE SMOOTH"
);
}
);
width = 1321;
}
);
unicode = 00E6;
},
{
glyphname = b;
lastChange = "2013-03-07 05:32:14 +0200";
layers = (
{
layerId = "2E887DCB-F502-4FE4-8513-1FC10DF56BD7";
name = "Regular Condensed";
paths = (
{
closed = 1;
nodes = (
"134 1556 LINE",
"134 0 LINE",
"251 0 LINE",
"259 47 OFFCURVE",
"267 94.9999 OFFCURVE",
"274 142 CURVE",
"285 142 LINE",
"344 34 OFFCURVE",
"429 -20 OFFCURVE",
"531 -20 CURVE SMOOTH",
"730 -20 OFFCURVE",
"846 179 OFFCURVE",
"846 549 CURVE SMOOTH",
"846 920 OFFCURVE",
"731 1114 OFFCURVE",
"525 1114 CURVE SMOOTH",
"425 1114 OFFCURVE",
"348 1063 OFFCURVE",
"288 950 CURVE",
"278 950 LINE",
"281 1013 OFFCURVE",
"284 1061 OFFCURVE",
"285 1096 CURVE SMOOTH",
"285 1556 LINE"
);
},
{
closed = 1;
nodes = (
"629 979.999 OFFCURVE",
"690 836 OFFCURVE",
"690 550 CURVE SMOOTH",
"690 253 OFFCURVE",
"626 113 OFFCURVE",
"495 113 CURVE SMOOTH",
"351 113 OFFCURVE",
"285 248 OFFCURVE",
"285 533 CURVE SMOOTH",
"285 559 LINE SMOOTH",
"285 866 OFFCURVE",
"349 979.999 OFFCURVE",
"492 979.999 CURVE SMOOTH"
);
}
);
width = 934;
}
);
unicode = 0062;
},
{
glyphname = c;
lastChange = "2013-03-07 05:32:13 +0200";
layers = (
{
layerId = "2E887DCB-F502-4FE4-8513-1FC10DF56BD7";
name = "Regular Condensed";
paths = (
{
closed = 1;
nodes = (
"206 1115 OFFCURVE",
"88 919 OFFCURVE",
"88 541 CURVE SMOOTH",
"88 173 OFFCURVE",
"209 -20 OFFCURVE",
"442 -20 CURVE SMOOTH",
"500 -20 OFFCURVE",
"577 -1 OFFCURVE",
"629 26 CURVE",
"629 157 LINE",
"570 130 OFFCURVE",
"514 115 OFFCURVE",
"463 115 CURVE SMOOTH",
"314 115 OFFCURVE",
"244 249 OFFCURVE",
"244 543 CURVE SMOOTH",
"244 834 OFFCURVE",
"313 979.999 OFFCURVE",
"457 979.999 CURVE SMOOTH",
"496 979.999 OFFCURVE",
"540 967.999 OFFCURVE",
"588 943 CURVE",
"638 1067 LINE",
"587 1097 OFFCURVE",
"514 1115 OFFCURVE",
"442 1115 CURVE SMOOTH"
);
}
);
width = 676;
}
);
unicode = 0063;
},
{
glyphname = ccedilla;
lastChange = "2013-03-07 05:32:14 +0200";
layers = (
{
layerId = "2E887DCB-F502-4FE4-8513-1FC10DF56BD7";
name = "Regular Condensed";
paths = (
{
closed = 1;
nodes = (
"206 1115 OFFCURVE",
"88 919 OFFCURVE",
"88 541 CURVE SMOOTH",
"88 173 OFFCURVE",
"209 -20 OFFCURVE",
"442 -20 CURVE SMOOTH",
"500 -20 OFFCURVE",
"577 -1 OFFCURVE",
"629 26 CURVE",
"629 157 LINE",
"570 130 OFFCURVE",
"514 115 OFFCURVE",
"463 115 CURVE SMOOTH",
"314 115 OFFCURVE",
"244 249 OFFCURVE",
"244 543 CURVE SMOOTH",
"244 834 OFFCURVE",
"313 979.999 OFFCURVE",
"457 979.999 CURVE SMOOTH",
"496 979.999 OFFCURVE",
"540 967.999 OFFCURVE",
"588 943 CURVE",
"638 1067 LINE",
"587 1097 OFFCURVE",
"514 1115 OFFCURVE",
"442 1115 CURVE SMOOTH"
);
},
{
closed = 1;
nodes = (
"354 0 LINE",
"279 -159 LINE",
"384 -176 OFFCURVE",
"442 -213 OFFCURVE",
"442 -285 CURVE SMOOTH",
"442 -348 OFFCURVE",
"401 -388 OFFCURVE",
"311 -388 CURVE SMOOTH",
"277 -388 OFFCURVE",
"247 -383 OFFCURVE",
"219 -375 CURVE",
"219 -478 LINE",
"243 -487 OFFCURVE",
"276 -492 OFFCURVE",
"320 -492 CURVE SMOOTH",
"483 -492 OFFCURVE",
"573 -417 OFFCURVE",
"573 -281 CURVE SMOOTH",
"573 -187 OFFCURVE",
"516 -127 OFFCURVE",
"415 -102 CURVE",
"461 0 LINE"
);
}
);
width = 676;
}
);
unicode = 00E7;
},
{
glyphname = d;
lastChange = "2013-03-07 05:32:14 +0200";
layers = (
{
layerId = "2E887DCB-F502-4FE4-8513-1FC10DF56BD7";
name = "Regular Condensed";
paths = (
{
closed = 1;
nodes = (
"648 1556 LINE",
"648 1106 LINE SMOOTH",
"649 1066 OFFCURVE",
"651 1015 OFFCURVE",
"655 955 CURVE",
"644 955 LINE",
"589 1058 OFFCURVE",
"497 1115 OFFCURVE",
"404 1115 CURVE SMOOTH",
"199 1115 OFFCURVE",
"87 909 OFFCURVE",
"87 545 CURVE SMOOTH",
"87 173 OFFCURVE",
"202 -20 OFFCURVE",
"408 -20 CURVE SMOOTH",
"516 -20 OFFCURVE",
"599 39 OFFCURVE",
"653 149 CURVE",
"662 149 LINE",
"668 98.9999 OFFCURVE",
"675 50 OFFCURVE",
"682 0 CURVE",
"799 0 LINE",
"799 1556 LINE"
);
},
{
closed = 1;
nodes = (
"578 978.999 OFFCURVE",
"647 849 OFFCURVE",
"647 544 CURVE SMOOTH",
"647 491 LINE SMOOTH",
"647 231 OFFCURVE",
"572 109 OFFCURVE",
"441 109 CURVE SMOOTH",
"303 109 OFFCURVE",
"244 257 OFFCURVE",
"244 542 CURVE SMOOTH",
"244 826 OFFCURVE",
"300 978.999 OFFCURVE",
"437 978.999 CURVE SMOOTH"
);
}
);
width = 934;
}
);
unicode = 0064;
},
{
glyphname = eth;
lastChange = "2013-03-07 05:32:14 +0200";
layers = (
{
layerId = "2E887DCB-F502-4FE4-8513-1FC10DF56BD7";
name = "Regular Condensed";
paths = (
{
closed = 1;
nodes = (
"272 1530 OFFCURVE",
"252 1498 OFFCURVE",
"231 1467 CURVE",
"277 1436 OFFCURVE",
"319 1404 OFFCURVE",
"356 1371 CURVE",
"186 1268 LINE",
"243 1176 LINE",
"433 1292 LINE",
"544 1165 OFFCURVE",
"618 1017 OFFCURVE",
"652 846 CURVE",
"649 845 OFFCURVE",
"646 845 OFFCURVE",
"643 845 CURVE",
"591 925 OFFCURVE",
"518 966 OFFCURVE",
"423 966 CURVE SMOOTH",
"208 966 OFFCURVE",
"87 787 OFFCURVE",
"87 473 CURVE SMOOTH",
"87 181 OFFCURVE",
"228 -20 OFFCURVE",
"449 -20 CURVE SMOOTH",
"690 -20 OFFCURVE",
"820 171 OFFCURVE",
"820 532 CURVE SMOOTH",
"820 879 OFFCURVE",
"730 1154 OFFCURVE",
"544 1361 CURVE",
"716 1467 LINE",
"659 1558 LINE",
"594 1517 OFFCURVE",
"530 1478 OFFCURVE",
"465 1438 CURVE",
"416 1482 OFFCURVE",
"359 1523 OFFCURVE",
"293 1560 CURVE"
);
},
{
closed = 1;
nodes = (
"580 836 OFFCURVE",
"666 696 OFFCURVE",
"666 498 CURVE SMOOTH",
"666 239 OFFCURVE",
"602 112 OFFCURVE",
"455 112 CURVE SMOOTH",
"319 112 OFFCURVE",
"241 251 OFFCURVE",
"241 468 CURVE SMOOTH",
"241 711 OFFCURVE",
"314 836 OFFCURVE",
"457 836 CURVE SMOOTH"
);
}
);
width = 907;
}
);
unicode = 00F0;
},
{
glyphname = e;
lastChange = "2013-03-07 05:32:14 +0200";
layers = (
{
layerId = "2E887DCB-F502-4FE4-8513-1FC10DF56BD7";
name = "Regular Condensed";
paths = (
{
closed = 1;
nodes = (
"213 1115 OFFCURVE",
"88 909 OFFCURVE",
"88 539 CURVE SMOOTH",
"88 185 OFFCURVE",
"229 -20 OFFCURVE",
"476 -20 CURVE SMOOTH",
"567 -20 OFFCURVE",
"650 3 OFFCURVE",
"724 48 CURVE",
"724 182 LINE",
"644 134 OFFCURVE",
"566 111 OFFCURVE",
"492 111 CURVE SMOOTH",
"329 111 OFFCURVE",
"246 247 OFFCURVE",
"242 525 CURVE",
"763 525 LINE",
"763 631 LINE SMOOTH",
"763 928 OFFCURVE",
"639 1115 OFFCURVE",
"439 1115 CURVE SMOOTH"
);
},
{
closed = 1;
nodes = (
"545 989.999 OFFCURVE",
"613 854 OFFCURVE",
"613 646 CURVE",
"245 646 LINE",
"256 877 OFFCURVE",
"321 989.999 OFFCURVE",
"434 989.999 CURVE SMOOTH"
);
}
);
width = 849;
}
);
unicode = 0065;
},
{
glyphname = eacute;
lastChange = "2013-03-07 05:32:14 +0200";
layers = (
{
layerId = "2E887DCB-F502-4FE4-8513-1FC10DF56BD7";
name = "Regular Condensed";
paths = (
{
closed = 1;
nodes = (
"213 1115 OFFCURVE",
"88 909 OFFCURVE",
"88 539 CURVE SMOOTH",
"88 185 OFFCURVE",
"229 -20 OFFCURVE",
"476 -20 CURVE SMOOTH",
"567 -20 OFFCURVE",
"650 3 OFFCURVE",
"724 48 CURVE",
"724 182 LINE",
"644 134 OFFCURVE",
"566 111 OFFCURVE",
"492 111 CURVE SMOOTH",
"329 111 OFFCURVE",
"246 247 OFFCURVE",
"242 525 CURVE",
"763 525 LINE",
"763 631 LINE SMOOTH",
"763 928 OFFCURVE",
"639 1115 OFFCURVE",
"439 1115 CURVE SMOOTH"
);
},
{
closed = 1;
nodes = (
"545 989.999 OFFCURVE",
"613 854 OFFCURVE",
"613 646 CURVE",
"245 646 LINE",
"256 877 OFFCURVE",
"321 989.999 OFFCURVE",
"434 989.999 CURVE SMOOTH"
);
},
{
closed = 1;
nodes = (
"530 1569 LINE",
"491 1483 OFFCURVE",
"416 1357 OFFCURVE",
"345 1263 CURVE",
"345 1241 LINE",
"438 1241 LINE",
"534 1320 OFFCURVE",
"678 1475 OFFCURVE",
"718 1550 CURVE",
"718 1569 LINE"
);
}
);
width = 849;
}
);
unicode = 00E9;
},
{
glyphname = ecircumflex;
lastChange = "2013-03-07 05:32:14 +0200";
layers = (
{
layerId = "2E887DCB-F502-4FE4-8513-1FC10DF56BD7";
name = "Regular Condensed";
paths = (
{
closed = 1;
nodes = (
"213 1115 OFFCURVE",
"88 909 OFFCURVE",
"88 539 CURVE SMOOTH",
"88 185 OFFCURVE",
"229 -20 OFFCURVE",
"476 -20 CURVE SMOOTH",
"567 -20 OFFCURVE",
"650 3 OFFCURVE",
"724 48 CURVE",
"724 182 LINE",
"644 134 OFFCURVE",
"566 111 OFFCURVE",
"492 111 CURVE SMOOTH",
"329 111 OFFCURVE",
"246 247 OFFCURVE",
"242 525 CURVE",
"763 525 LINE",
"763 631 LINE SMOOTH",
"763 928 OFFCURVE",
"639 1115 OFFCURVE",
"439 1115 CURVE SMOOTH"
);
},
{
closed = 1;
nodes = (
"545 989.999 OFFCURVE",
"613 854 OFFCURVE",
"613 646 CURVE",
"245 646 LINE",
"256 877 OFFCURVE",
"321 989.999 OFFCURVE",
"434 989.999 CURVE SMOOTH"
);
},
{
closed = 1;
nodes = (
"359 1569 LINE",
"321 1488 OFFCURVE",
"255 1386 OFFCURVE",
"162 1262 CURVE",
"162 1241 LINE",
"247 1241 LINE",
"305 1293 OFFCURVE",
"373 1370 OFFCURVE",
"437 1442 CURVE",
"527 1341 LINE SMOOTH",
"566 1297 OFFCURVE",
"599 1264 OFFCURVE",
"626 1241 CURVE",
"712 1241 LINE",
"712 1262 LINE",
"626 1373 OFFCURVE",
"542 1503 OFFCURVE",
"514 1569 CURVE"
);
}
);
width = 849;
}
);
unicode = 00EA;
},
{
glyphname = edieresis;
lastChange = "2013-03-07 05:32:14 +0200";
layers = (
{
layerId = "2E887DCB-F502-4FE4-8513-1FC10DF56BD7";
name = "Regular Condensed";
paths = (
{
closed = 1;
nodes = (
"213 1115 OFFCURVE",
"88 909 OFFCURVE",
"88 539 CURVE SMOOTH",
"88 185 OFFCURVE",
"229 -20 OFFCURVE",
"476 -20 CURVE SMOOTH",
"567 -20 OFFCURVE",
"650 3 OFFCURVE",
"724 48 CURVE",
"724 182 LINE",
"644 134 OFFCURVE",
"566 111 OFFCURVE",
"492 111 CURVE SMOOTH",
"329 111 OFFCURVE",
"246 247 OFFCURVE",
"242 525 CURVE",
"763 525 LINE",
"763 631 LINE SMOOTH",
"763 928 OFFCURVE",
"639 1115 OFFCURVE",
"439 1115 CURVE SMOOTH"
);
},
{
closed = 1;
nodes = (
"545 989.999 OFFCURVE",
"613 854 OFFCURVE",
"613 646 CURVE",
"245 646 LINE",
"256 877 OFFCURVE",
"321 989.999 OFFCURVE",
"434 989.999 CURVE SMOOTH"
);
},
{
closed = 1;
nodes = (
"220 1490 OFFCURVE",
"183 1459 OFFCURVE",
"183 1394 CURVE SMOOTH",
"183 1328 OFFCURVE",
"220 1295 OFFCURVE",
"269 1295 CURVE SMOOTH",
"318 1295 OFFCURVE",
"354 1329 OFFCURVE",
"354 1394 CURVE SMOOTH",
"354 1457 OFFCURVE",
"318 1490 OFFCURVE",
"269 1490 CURVE SMOOTH"
);
},
{
closed = 1;
nodes = (
"556 1490 OFFCURVE",
"519 1458 OFFCURVE",
"519 1394 CURVE SMOOTH",
"519 1329 OFFCURVE",
"556 1295 OFFCURVE",
"604 1295 CURVE SMOOTH",
"654 1295 OFFCURVE",
"690 1328 OFFCURVE",
"690 1394 CURVE SMOOTH",
"690 1459 OFFCURVE",
"653 1490 OFFCURVE",
"604 1490 CURVE SMOOTH"
);
}
);
width = 849;
}
);
unicode = 00EB;
},
{
glyphname = egrave;
lastChange = "2013-03-07 05:32:14 +0200";
layers = (
{
layerId = "2E887DCB-F502-4FE4-8513-1FC10DF56BD7";
name = "Regular Condensed";
paths = (
{
closed = 1;
nodes = (
"213 1115 OFFCURVE",
"88 909 OFFCURVE",
"88 539 CURVE SMOOTH",
"88 185 OFFCURVE",
"229 -20 OFFCURVE",
"476 -20 CURVE SMOOTH",
"567 -20 OFFCURVE",
"650 3 OFFCURVE",
"724 48 CURVE",
"724 182 LINE",
"644 134 OFFCURVE",
"566 111 OFFCURVE",
"492 111 CURVE SMOOTH",
"329 111 OFFCURVE",
"246 247 OFFCURVE",
"242 525 CURVE",
"763 525 LINE",
"763 631 LINE SMOOTH",
"763 928 OFFCURVE",
"639 1115 OFFCURVE",
"439 1115 CURVE SMOOTH"
);
},
{
closed = 1;
nodes = (
"545 989.999 OFFCURVE",
"613 854 OFFCURVE",
"613 646 CURVE",
"245 646 LINE",
"256 877 OFFCURVE",
"321 989.999 OFFCURVE",
"434 989.999 CURVE SMOOTH"
);
},
{
closed = 1;
nodes = (
"180 1569 LINE",
"180 1551 LINE",
"202 1510 OFFCURVE",
"243 1457 OFFCURVE",
"302 1393 CURVE SMOOTH",
"362 1329 OFFCURVE",
"415 1278 OFFCURVE",
"460 1241 CURVE",
"554 1241 LINE",
"554 1264 LINE",
"522 1304 OFFCURVE",
"487 1355 OFFCURVE",
"450 1416 CURVE SMOOTH",
"414 1476 OFFCURVE",
"387 1528 OFFCURVE",
"369 1569 CURVE"
);
}
);
width = 849;
}
);
unicode = 00E8;
},
{
glyphname = f;
lastChange = "2013-03-07 05:32:13 +0200";
layers = (
{
layerId = "2E887DCB-F502-4FE4-8513-1FC10DF56BD7";
name = "Regular Condensed";
paths = (
{
closed = 1;
nodes = (
"229 1567 OFFCURVE",
"158 1447 OFFCURVE",
"158 1185 CURVE SMOOTH",
"158 1102 LINE",
"112 1084 OFFCURVE",
"67 1067 OFFCURVE",
"22 1048 CURVE",
"22 967.999 LINE",
"158 967.999 LINE",
"158 0 LINE",
"308 0 LINE",
"308 967.999 LINE",
"483 967.999 LINE",
"483 1094 LINE",
"308 1094 LINE",
"308 1182 LINE SMOOTH",
"308 1369 OFFCURVE",
"336 1431 OFFCURVE",
"420 1434 CURVE",
"451 1434 OFFCURVE",
"483 1426 OFFCURVE",
"518 1409 CURVE",
"563 1535 LINE",
"517 1556 OFFCURVE",
"467 1567 OFFCURVE",
"411 1567 CURVE SMOOTH"
);
}
);
width = 505;
}
);
unicode = 0066;
},
{
glyphname = g;
lastChange = "2013-03-07 05:32:14 +0200";
layers = (
{
layerId = "2E887DCB-F502-4FE4-8513-1FC10DF56BD7";
name = "Regular Condensed";
paths = (
{
closed = 1;
nodes = (
"204 1115 OFFCURVE",
"91 973.999 OFFCURVE",
"91 739 CURVE SMOOTH",
"91 589 OFFCURVE",
"147 468 OFFCURVE",
"253 416 CURVE",
"169 351 OFFCURVE",
"131 307 OFFCURVE",
"131 241 CURVE SMOOTH",
"131 168 OFFCURVE",
"177 113 OFFCURVE",
"244 85 CURVE",
"99.9999 33 OFFCURVE",
"29 -64 OFFCURVE",
"29 -196 CURVE SMOOTH",
"29 -387 OFFCURVE",
"147 -492 OFFCURVE",
"360 -492 CURVE SMOOTH",
"620 -492 OFFCURVE",
"787 -356 OFFCURVE",
"787 -132 CURVE SMOOTH",
"787 66 OFFCURVE",
"680 170 OFFCURVE",
"487 170 CURVE SMOOTH",
"388 170 LINE SMOOTH",
"307 170 OFFCURVE",
"259 201 OFFCURVE",
"259 258 CURVE SMOOTH",
"259 311 OFFCURVE",
"295 348 OFFCURVE",
"346 386 CURVE",
"358 383 OFFCURVE",
"375 382 OFFCURVE",
"392 382 CURVE SMOOTH",
"400 382 LINE SMOOTH",
"572 382 OFFCURVE",
"695 522 OFFCURVE",
"695 743 CURVE SMOOTH",
"695 834 OFFCURVE",
"670 927 OFFCURVE",
"636 975.999 CURVE",
"779 996.999 LINE",
"779 1093 LINE",
"542 1095 OFFCURVE",
"517 1093 OFFCURVE",
"517 1093 CURVE",
"487 1104 OFFCURVE",
"434 1115 OFFCURVE",
"396 1115 CURVE SMOOTH"
);
},
{
closed = 1;
nodes = (
"586 31 OFFCURVE",
"643 -30 OFFCURVE",
"643 -143 CURVE SMOOTH",
"643 -288 OFFCURVE",
"541 -376 OFFCURVE",
"369 -376 CURVE SMOOTH",
"238 -376 OFFCURVE",
"172 -304 OFFCURVE",
"172 -184 CURVE SMOOTH",
"172 -52 OFFCURVE",
"246 31 OFFCURVE",
"377 31 CURVE SMOOTH",
"453 31 LINE SMOOTH"
);
},
{
closed = 1;
nodes = (
"494 1004 OFFCURVE",
"547 910 OFFCURVE",
"547 744 CURVE SMOOTH",
"547 575 OFFCURVE",
"496 491 OFFCURVE",
"395 491 CURVE SMOOTH",
"298 491 OFFCURVE",
"238 575 OFFCURVE",
"238 737 CURVE SMOOTH",
"238 908 OFFCURVE",
"293 1004 OFFCURVE",
"395 1004 CURVE SMOOTH"
);
}
);
width = 805;
}
);
unicode = 0067;
},
{
glyphname = h;
lastChange = "2013-03-07 05:32:13 +0200";
layers = (
{
layerId = "2E887DCB-F502-4FE4-8513-1FC10DF56BD7";
name = "Regular Condensed";
paths = (
{
closed = 1;
nodes = (
"134 1556 LINE",
"134 0 LINE",
"285 0 LINE",
"285 574 LINE SMOOTH",
"285 850 OFFCURVE",
"352 981.999 OFFCURVE",
"495 981.999 CURVE SMOOTH",
"600 981.999 OFFCURVE",
"645 905 OFFCURVE",
"645 720 CURVE SMOOTH",
"645 0 LINE",
"797 0 LINE",
"797 741 LINE SMOOTH",
"797 987.999 OFFCURVE",
"715 1115 OFFCURVE",
"525 1115 CURVE SMOOTH",
"425 1115 OFFCURVE",
"333 1052 OFFCURVE",
"289 947 CURVE",
"279 947 LINE",
"283 1006 OFFCURVE",
"285 1057 OFFCURVE",
"285 1103 CURVE SMOOTH",
"285 1556 LINE"
);
}
);
width = 925;
}
);
unicode = 0068;
},
{
glyphname = i;
lastChange = "2013-03-07 05:32:14 +0200";
layers = (
{
layerId = "2E887DCB-F502-4FE4-8513-1FC10DF56BD7";
name = "Regular Condensed";
paths = (
{
closed = 1;
nodes = (
"135 1095 LINE",
"135 0 LINE",
"287 0 LINE",
"287 1095 LINE"
);
},
{
closed = 1;
nodes = (
"158 1503 OFFCURVE",
"122 1462 OFFCURVE",
"122 1392 CURVE SMOOTH",
"122 1324 OFFCURVE",
"159 1282 OFFCURVE",
"214 1282 CURVE SMOOTH",
"266 1282 OFFCURVE",
"301 1324 OFFCURVE",
"301 1392 CURVE SMOOTH",
"301 1462 OFFCURVE",
"267 1503 OFFCURVE",
"214 1503 CURVE SMOOTH"
);
}
);
width = 422;
}
);
unicode = 0069;
},
{
glyphname = dotlessi;
lastChange = "2013-03-07 05:32:14 +0200";
layers = (
{
layerId = "2E887DCB-F502-4FE4-8513-1FC10DF56BD7";
name = "Regular Condensed";
paths = (
{
closed = 1;
nodes = (
"135 1095 LINE",
"135 0 LINE",
"287 0 LINE",
"287 1095 LINE"
);
}
);
width = 422;
}
);
unicode = 0131;
},
{
glyphname = iacute;
lastChange = "2013-03-07 05:32:14 +0200";
layers = (
{
layerId = "2E887DCB-F502-4FE4-8513-1FC10DF56BD7";
name = "Regular Condensed";
paths = (
{
closed = 1;
nodes = (
"135 1095 LINE",
"135 0 LINE",
"287 0 LINE",
"287 1095 LINE"
);
},
{
closed = 1;
nodes = (
"298 1569 LINE",
"259 1483 OFFCURVE",
"184 1357 OFFCURVE",
"113 1263 CURVE",
"113 1241 LINE",
"206 1241 LINE",
"302 1320 OFFCURVE",
"446 1475 OFFCURVE",
"486 1550 CURVE",
"486 1569 LINE"
);
}
);
width = 422;
}
);
unicode = 00ED;
},
{
glyphname = icircumflex;
lastChange = "2013-03-07 05:32:14 +0200";
layers = (
{
layerId = "2E887DCB-F502-4FE4-8513-1FC10DF56BD7";
name = "Regular Condensed";
paths = (
{
closed = 1;
nodes = (
"132 1569 LINE",
"93.9999 1488 OFFCURVE",
"28 1386 OFFCURVE",
"-65 1262 CURVE",
"-65 1241 LINE",
"20 1241 LINE",
"78 1293 OFFCURVE",
"146 1370 OFFCURVE",
"210 1442 CURVE",
"300 1341 LINE SMOOTH",
"339 1297 OFFCURVE",
"372 1264 OFFCURVE",
"399 1241 CURVE",
"485 1241 LINE",
"485 1262 LINE",
"399 1373 OFFCURVE",
"315 1503 OFFCURVE",
"287 1569 CURVE"
);
},
{
closed = 1;
nodes = (
"135 1095 LINE",
"135 0 LINE",
"287 0 LINE",
"287 1095 LINE"
);
}
);
width = 422;
}
);
unicode = 00EE;
},
{
glyphname = idieresis;
lastChange = "2013-03-07 05:32:14 +0200";
layers = (
{
layerId = "2E887DCB-F502-4FE4-8513-1FC10DF56BD7";
name = "Regular Condensed";
paths = (
{
closed = 1;
nodes = (
"135 1095 LINE",
"135 0 LINE",
"287 0 LINE",
"287 1095 LINE"
);
},
{
closed = 1;
nodes = (
"-4 1490 OFFCURVE",
"-41 1459 OFFCURVE",
"-41 1394 CURVE SMOOTH",
"-41 1328 OFFCURVE",
"-4 1295 OFFCURVE",
"45 1295 CURVE SMOOTH",
"93.9999 1295 OFFCURVE",
"130 1329 OFFCURVE",
"130 1394 CURVE SMOOTH",
"130 1457 OFFCURVE",
"93.9999 1490 OFFCURVE",
"45 1490 CURVE SMOOTH"
);
},
{
closed = 1;
nodes = (
"332 1490 OFFCURVE",
"295 1458 OFFCURVE",
"295 1394 CURVE SMOOTH",
"295 1329 OFFCURVE",
"332 1295 OFFCURVE",
"380 1295 CURVE SMOOTH",
"430 1295 OFFCURVE",
"466 1328 OFFCURVE",
"466 1394 CURVE SMOOTH",
"466 1459 OFFCURVE",
"429 1490 OFFCURVE",
"380 1490 CURVE SMOOTH"
);
}
);
width = 422;
}
);
unicode = 00EF;
},
{
glyphname = igrave;
lastChange = "2013-03-07 05:32:14 +0200";
layers = (
{
layerId = "2E887DCB-F502-4FE4-8513-1FC10DF56BD7";
name = "Regular Condensed";
paths = (
{
closed = 1;
nodes = (
"135 1095 LINE",
"135 0 LINE",
"287 0 LINE",
"287 1095 LINE"
);
},
{
closed = 1;
nodes = (
"-58 1569 LINE",
"-58 1551 LINE",
"-36 1510 OFFCURVE",
"5 1457 OFFCURVE",
"64 1393 CURVE SMOOTH",
"124 1329 OFFCURVE",
"177 1278 OFFCURVE",
"222 1241 CURVE",
"316 1241 LINE",
"316 1264 LINE",
"284 1304 OFFCURVE",
"249 1355 OFFCURVE",
"212 1416 CURVE SMOOTH",
"176 1476 OFFCURVE",
"149 1528 OFFCURVE",
"131 1569 CURVE"
);
}
);
width = 422;
}
);
unicode = 00EC;
},
{
glyphname = j;
lastChange = "2013-03-07 05:32:14 +0200";
layers = (
{
layerId = "2E887DCB-F502-4FE4-8513-1FC10DF56BD7";
name = "Regular Condensed";
paths = (
{
closed = 1;
nodes = (
"137 1095 LINE",
"137 -175 LINE SMOOTH",
"137 -297 OFFCURVE",
"111 -356 OFFCURVE",
"48 -356 CURVE SMOOTH",
"25 -356 OFFCURVE",
"2 -350 OFFCURVE",
"-22 -339 CURVE",
"-22 -472 LINE",
"0.999999 -485 OFFCURVE",
"31 -492 OFFCURVE",
"69 -492 CURVE SMOOTH",
"214 -492 OFFCURVE",
"289 -387 OFFCURVE",
"289 -177 CURVE SMOOTH",
"289 1095 LINE"
);
},
{
closed = 1;
nodes = (
"160 1503 OFFCURVE",
"124 1462 OFFCURVE",
"124 1392 CURVE SMOOTH",
"124 1324 OFFCURVE",
"162 1282 OFFCURVE",
"216 1282 CURVE SMOOTH",
"269 1282 OFFCURVE",
"303 1325 OFFCURVE",
"303 1392 CURVE SMOOTH",
"303 1461 OFFCURVE",
"270 1503 OFFCURVE",
"216 1503 CURVE SMOOTH"
);
}
);
width = 423;
}
);
unicode = 006A;
},
{
glyphname = k;
lastChange = "2013-03-07 05:32:13 +0200";
layers = (
{
layerId = "2E887DCB-F502-4FE4-8513-1FC10DF56BD7";
name = "Regular Condensed";
paths = (
{
closed = 1;
nodes = (
"134 1556 LINE",
"134 0 LINE",
"286 0 LINE",
"286 419 LINE",
"401 556 LINE",
"625 0 LINE",
"784 0 LINE",
"503 676 LINE",
"763 1095 LINE",
"601 1095 LINE",
"349 675 LINE",
"286 558 LINE",
"277 558 LINE",
"286 753 LINE",
"286 1556 LINE"
);
}
);
width = 795;
}
);
unicode = 006B;
},
{
glyphname = l;
lastChange = "2013-03-07 05:32:13 +0200";
layers = (
{
layerId = "2E887DCB-F502-4FE4-8513-1FC10DF56BD7";
name = "Regular Condensed";
paths = (
{
closed = 1;
nodes = (
"134 1556 LINE",
"134 0 LINE",
"286 0 LINE",
"286 1556 LINE"
);
}
);
width = 419;
}
);
unicode = 006C;
},
{
glyphname = m;
lastChange = "2013-03-07 05:32:13 +0200";
layers = (
{
layerId = "2E887DCB-F502-4FE4-8513-1FC10DF56BD7";
name = "Regular Condensed";
paths = (
{
closed = 1;
nodes = (
"864 1115 OFFCURVE",
"801 1007 OFFCURVE",
"753 925 CURVE",
"717 1050 OFFCURVE",
"643 1115 OFFCURVE",
"518 1115 CURVE SMOOTH",
"414 1115 OFFCURVE",
"331 1060 OFFCURVE",
"285 946 CURVE",
"273 946 LINE",
"267 994.999 OFFCURVE",
"263 1045 OFFCURVE",
"257 1094 CURVE",
"134 1094 LINE",
"134 0 LINE",
"285 0 LINE",
"285 575 LINE SMOOTH",
"285 862 OFFCURVE",
"344 977.999 OFFCURVE",
"478 977.999 CURVE SMOOTH",
"578 977.999 OFFCURVE",
"625 891 OFFCURVE",
"625 714 CURVE SMOOTH",
"625 0 LINE",
"777 0 LINE",
"777 603 LINE SMOOTH",
"777 854 OFFCURVE",
"832 977.999 OFFCURVE",
"969.999 977.999 CURVE SMOOTH",
"1068 977.999 OFFCURVE",
"1117 889 OFFCURVE",
"1117 714 CURVE SMOOTH",
"1117 0 LINE",
"1268 0 LINE",
"1268 714 LINE SMOOTH",
"1268 987.999 OFFCURVE",
"1185 1115 OFFCURVE",
"1010 1115 CURVE SMOOTH"
);
}
);
width = 1397;
}
);
unicode = 006D;
},
{
glyphname = n;
lastChange = "2013-03-07 05:32:13 +0200";
layers = (
{
layerId = "2E887DCB-F502-4FE4-8513-1FC10DF56BD7";
name = "Regular Condensed";
paths = (
{
closed = 1;
nodes = (
"423 1115 OFFCURVE",
"331 1053 OFFCURVE",
"285 946 CURVE",
"273 946 LINE",
"267 994.999 OFFCURVE",
"263 1045 OFFCURVE",
"257 1094 CURVE",
"134 1094 LINE",
"134 0 LINE",
"285 0 LINE",
"285 496 LINE SMOOTH",
"285 844 OFFCURVE",
"332 981.999 OFFCURVE",
"498 981.999 CURVE SMOOTH",
"598 981.999 OFFCURVE",
"645 894 OFFCURVE",
"645 720 CURVE SMOOTH",
"645 0 LINE",
"797 0 LINE",
"797 742 LINE SMOOTH",
"797 996.999 OFFCURVE",
"708 1115 OFFCURVE",
"528 1115 CURVE SMOOTH"
);
}
);
width = 925;
}
);
unicode = 006E;
},
{
glyphname = ntilde;
lastChange = "2013-03-07 05:32:14 +0200";
layers = (
{
layerId = "2E887DCB-F502-4FE4-8513-1FC10DF56BD7";
name = "Regular Condensed";
paths = (
{
closed = 1;
nodes = (
"423 1115 OFFCURVE",
"331 1053 OFFCURVE",
"285 946 CURVE",
"273 946 LINE",
"267 994.999 OFFCURVE",
"263 1045 OFFCURVE",
"257 1094 CURVE",
"134 1094 LINE",
"134 0 LINE",
"285 0 LINE",
"285 496 LINE SMOOTH",
"285 844 OFFCURVE",
"332 981.999 OFFCURVE",
"498 981.999 CURVE SMOOTH",
"598 981.999 OFFCURVE",
"645 894 OFFCURVE",
"645 720 CURVE SMOOTH",
"645 0 LINE",
"797 0 LINE",
"797 742 LINE SMOOTH",
"797 996.999 OFFCURVE",
"708 1115 OFFCURVE",
"528 1115 CURVE SMOOTH"
);
},
{
closed = 1;
nodes = (
"681 1483 LINE",
"668 1407 OFFCURVE",
"649 1361 OFFCURVE",
"603 1361 CURVE SMOOTH",
"532 1361 OFFCURVE",
"456 1481 OFFCURVE",
"355 1481 CURVE SMOOTH",
"250 1481 OFFCURVE",
"188 1394 OFFCURVE",
"172 1240 CURVE",
"268 1240 LINE",
"280 1319 OFFCURVE",
"308 1363 OFFCURVE",
"350 1363 CURVE SMOOTH",
"417 1363 OFFCURVE",
"495 1242 OFFCURVE",
"597 1242 CURVE SMOOTH",
"697 1242 OFFCURVE",
"764 1326 OFFCURVE",
"777 1483 CURVE"
);
}
);
width = 925;
}
);
unicode = 00F1;
},
{
glyphname = o;
lastChange = "2013-03-07 05:32:14 +0200";
layers = (
{
layerId = "2E887DCB-F502-4FE4-8513-1FC10DF56BD7";
name = "Regular Condensed";
paths = (
{
closed = 1;
nodes = (
"218 1115 OFFCURVE",
"87 915 OFFCURVE",
"87 545 CURVE SMOOTH",
"87 186 OFFCURVE",
"223 -20 OFFCURVE",
"449 -20 CURVE SMOOTH",
"682 -20 OFFCURVE",
"816 184 OFFCURVE",
"816 549 CURVE SMOOTH",
"816 903 OFFCURVE",
"677 1115 OFFCURVE",
"453 1115 CURVE SMOOTH"
);
},
{
closed = 1;
nodes = (
"591 979.999 OFFCURVE",
"659 836 OFFCURVE",
"659 549 CURVE SMOOTH",
"659 259 OFFCURVE",
"590 115 OFFCURVE",
"451 115 CURVE SMOOTH",
"307 115 OFFCURVE",
"243 263 OFFCURVE",
"243 549 CURVE SMOOTH",
"243 836 OFFCURVE",
"304 979.999 OFFCURVE",
"451 979.999 CURVE SMOOTH"
);
}
);
width = 903;
}
);
unicode = 006F;
},
{
glyphname = oacute;
lastChange = "2013-03-07 05:32:14 +0200";
layers = (
{
layerId = "2E887DCB-F502-4FE4-8513-1FC10DF56BD7";
name = "Regular Condensed";
paths = (
{
closed = 1;
nodes = (
"218 1115 OFFCURVE",
"87 915 OFFCURVE",
"87 545 CURVE SMOOTH",
"87 186 OFFCURVE",
"223 -20 OFFCURVE",
"449 -20 CURVE SMOOTH",
"682 -20 OFFCURVE",
"816 184 OFFCURVE",
"816 549 CURVE SMOOTH",
"816 903 OFFCURVE",
"677 1115 OFFCURVE",
"453 1115 CURVE SMOOTH"
);
},
{
closed = 1;
nodes = (
"591 979.999 OFFCURVE",
"659 836 OFFCURVE",
"659 549 CURVE SMOOTH",
"659 259 OFFCURVE",
"590 115 OFFCURVE",
"451 115 CURVE SMOOTH",
"307 115 OFFCURVE",
"243 263 OFFCURVE",
"243 549 CURVE SMOOTH",
"243 836 OFFCURVE",
"304 979.999 OFFCURVE",
"451 979.999 CURVE SMOOTH"
);
},
{
closed = 1;
nodes = (
"534 1569 LINE",
"495 1483 OFFCURVE",
"420 1357 OFFCURVE",
"349 1263 CURVE",
"349 1241 LINE",
"442 1241 LINE",
"538 1320 OFFCURVE",
"682 1475 OFFCURVE",
"722 1550 CURVE",
"722 1569 LINE"
);
}
);
width = 903;
}
);
unicode = 00F3;
},
{
glyphname = ocircumflex;
lastChange = "2013-03-07 05:32:14 +0200";
layers = (
{
layerId = "2E887DCB-F502-4FE4-8513-1FC10DF56BD7";
name = "Regular Condensed";
paths = (
{
closed = 1;
nodes = (
"218 1115 OFFCURVE",
"87 915 OFFCURVE",
"87 545 CURVE SMOOTH",
"87 186 OFFCURVE",
"223 -20 OFFCURVE",
"449 -20 CURVE SMOOTH",
"682 -20 OFFCURVE",
"816 184 OFFCURVE",
"816 549 CURVE SMOOTH",
"816 903 OFFCURVE",
"677 1115 OFFCURVE",
"453 1115 CURVE SMOOTH"
);
},
{
closed = 1;
nodes = (
"591 979.999 OFFCURVE",
"659 836 OFFCURVE",
"659 549 CURVE SMOOTH",
"659 259 OFFCURVE",
"590 115 OFFCURVE",
"451 115 CURVE SMOOTH",
"307 115 OFFCURVE",
"243 263 OFFCURVE",
"243 549 CURVE SMOOTH",
"243 836 OFFCURVE",
"304 979.999 OFFCURVE",
"451 979.999 CURVE SMOOTH"
);
},
{
closed = 1;
nodes = (
"375 1569 LINE",
"337 1488 OFFCURVE",
"271 1386 OFFCURVE",
"178 1262 CURVE",
"178 1241 LINE",
"263 1241 LINE",
"321 1293 OFFCURVE",
"389 1370 OFFCURVE",
"453 1442 CURVE",
"543 1341 LINE SMOOTH",
"582 1297 OFFCURVE",
"615 1264 OFFCURVE",
"642 1241 CURVE",
"728 1241 LINE",
"728 1262 LINE",
"642 1373 OFFCURVE",
"558 1503 OFFCURVE",
"530 1569 CURVE"
);
}
);
width = 903;
}
);
unicode = 00F4;
},
{
glyphname = odieresis;
lastChange = "2013-03-07 05:32:14 +0200";
layers = (
{
layerId = "2E887DCB-F502-4FE4-8513-1FC10DF56BD7";
name = "Regular Condensed";
paths = (
{
closed = 1;
nodes = (
"218 1115 OFFCURVE",
"87 915 OFFCURVE",
"87 545 CURVE SMOOTH",
"87 186 OFFCURVE",
"223 -20 OFFCURVE",
"449 -20 CURVE SMOOTH",
"682 -20 OFFCURVE",
"816 184 OFFCURVE",
"816 549 CURVE SMOOTH",
"816 903 OFFCURVE",
"677 1115 OFFCURVE",
"453 1115 CURVE SMOOTH"
);
},
{
closed = 1;
nodes = (
"591 979.999 OFFCURVE",
"659 836 OFFCURVE",
"659 549 CURVE SMOOTH",
"659 259 OFFCURVE",
"590 115 OFFCURVE",
"451 115 CURVE SMOOTH",
"307 115 OFFCURVE",
"243 263 OFFCURVE",
"243 549 CURVE SMOOTH",
"243 836 OFFCURVE",
"304 979.999 OFFCURVE",
"451 979.999 CURVE SMOOTH"
);
},
{
closed = 1;
nodes = (
"236 1490 OFFCURVE",
"199 1459 OFFCURVE",
"199 1394 CURVE SMOOTH",
"199 1328 OFFCURVE",
"236 1295 OFFCURVE",
"285 1295 CURVE SMOOTH",
"334 1295 OFFCURVE",
"370 1329 OFFCURVE",
"370 1394 CURVE SMOOTH",
"370 1457 OFFCURVE",
"334 1490 OFFCURVE",
"285 1490 CURVE SMOOTH"
);
},
{
closed = 1;
nodes = (
"572 1490 OFFCURVE",
"535 1458 OFFCURVE",
"535 1394 CURVE SMOOTH",
"535 1329 OFFCURVE",
"572 1295 OFFCURVE",
"620 1295 CURVE SMOOTH",
"670 1295 OFFCURVE",
"706 1328 OFFCURVE",
"706 1394 CURVE SMOOTH",
"706 1459 OFFCURVE",
"669 1490 OFFCURVE",
"620 1490 CURVE SMOOTH"
);
}
);
width = 903;
}
);
unicode = 00F6;
},
{
glyphname = ograve;
lastChange = "2013-03-07 05:32:14 +0200";
layers = (
{
layerId = "2E887DCB-F502-4FE4-8513-1FC10DF56BD7";
name = "Regular Condensed";
paths = (
{
closed = 1;
nodes = (
"218 1115 OFFCURVE",
"87 915 OFFCURVE",
"87 545 CURVE SMOOTH",
"87 186 OFFCURVE",
"223 -20 OFFCURVE",
"449 -20 CURVE SMOOTH",
"682 -20 OFFCURVE",
"816 184 OFFCURVE",
"816 549 CURVE SMOOTH",
"816 903 OFFCURVE",
"677 1115 OFFCURVE",
"453 1115 CURVE SMOOTH"
);
},
{
closed = 1;
nodes = (
"591 979.999 OFFCURVE",
"659 836 OFFCURVE",
"659 549 CURVE SMOOTH",
"659 259 OFFCURVE",
"590 115 OFFCURVE",
"451 115 CURVE SMOOTH",
"307 115 OFFCURVE",
"243 263 OFFCURVE",
"243 549 CURVE SMOOTH",
"243 836 OFFCURVE",
"304 979.999 OFFCURVE",
"451 979.999 CURVE SMOOTH"
);
},
{
closed = 1;
nodes = (
"190 1569 LINE",
"190 1551 LINE",
"212 1510 OFFCURVE",
"253 1457 OFFCURVE",
"312 1393 CURVE SMOOTH",
"372 1329 OFFCURVE",
"425 1278 OFFCURVE",
"470 1241 CURVE",
"564 1241 LINE",
"564 1264 LINE",
"532 1304 OFFCURVE",
"497 1355 OFFCURVE",
"460 1416 CURVE SMOOTH",
"424 1476 OFFCURVE",
"397 1528 OFFCURVE",
"379 1569 CURVE"
);
}
);
width = 903;
}
);
unicode = 00F2;
},
{
glyphname = oslash;
lastChange = "2013-03-07 05:32:14 +0200";
layers = (
{
layerId = "2E887DCB-F502-4FE4-8513-1FC10DF56BD7";
name = "Regular Condensed";
paths = (
{
closed = 1;
nodes = (
"643 1044 LINE",
"590 1091 OFFCURVE",
"526 1115 OFFCURVE",
"453 1115 CURVE SMOOTH",
"215 1115 OFFCURVE",
"87 913 OFFCURVE",
"87 549 CURVE SMOOTH",
"87 365 OFFCURVE",
"122 223 OFFCURVE",
"185 126 CURVE",
"152 59 OFFCURVE",
"118 -7 OFFCURVE",
"84 -74 CURVE",
"188 -127 LINE",
"216 -72 OFFCURVE",
"243 -16 OFFCURVE",
"271 38 CURVE",
"318 0 OFFCURVE",
"378 -20 OFFCURVE",
"449 -20 CURVE SMOOTH",
"684 -20 OFFCURVE",
"816 184 OFFCURVE",
"816 549 CURVE SMOOTH",
"816 719 OFFCURVE",
"786 852 OFFCURVE",
"727 951 CURVE",
"819 1138 LINE",
"785 1155 OFFCURVE",
"750 1172 OFFCURVE",
"716 1190 CURVE"
);
},
{
closed = 1;
nodes = (
"654 719 OFFCURVE",
"662 642 OFFCURVE",
"663 549 CURVE SMOOTH",
"663 264 OFFCURVE",
"591 115 OFFCURVE",
"451 115 CURVE SMOOTH",
"401 115 OFFCURVE",
"362 131 OFFCURVE",
"334 164 CURVE",
"640 778 LINE"
);
},
{
closed = 1;
nodes = (
"504 979.999 OFFCURVE",
"547 958 OFFCURVE",
"579 917 CURVE",
"475 708 OFFCURVE",
"371 500 OFFCURVE",
"266 292 CURVE",
"252 359 OFFCURVE",
"240 441 OFFCURVE",
"240 549 CURVE SMOOTH",
"240 835 OFFCURVE",
"304 979.999 OFFCURVE",
"451 979.999 CURVE SMOOTH"
);
}
);
width = 903;
}
);
unicode = 00F8;
},
{
glyphname = otilde;
lastChange = "2013-03-07 05:32:14 +0200";
layers = (
{
layerId = "2E887DCB-F502-4FE4-8513-1FC10DF56BD7";
name = "Regular Condensed";
paths = (
{
closed = 1;
nodes = (
"218 1115 OFFCURVE",
"87 915 OFFCURVE",
"87 545 CURVE SMOOTH",
"87 186 OFFCURVE",
"223 -20 OFFCURVE",
"449 -20 CURVE SMOOTH",
"682 -20 OFFCURVE",
"816 184 OFFCURVE",
"816 549 CURVE SMOOTH",
"816 903 OFFCURVE",
"677 1115 OFFCURVE",
"453 1115 CURVE SMOOTH"
);
},
{
closed = 1;
nodes = (
"591 979.999 OFFCURVE",
"659 836 OFFCURVE",
"659 549 CURVE SMOOTH",
"659 259 OFFCURVE",
"590 115 OFFCURVE",
"451 115 CURVE SMOOTH",
"307 115 OFFCURVE",
"243 263 OFFCURVE",
"243 549 CURVE SMOOTH",
"243 836 OFFCURVE",
"304 979.999 OFFCURVE",
"451 979.999 CURVE SMOOTH"
);
},
{
closed = 1;
nodes = (
"662 1483 LINE",
"649 1407 OFFCURVE",
"630 1361 OFFCURVE",
"584 1361 CURVE SMOOTH",
"513 1361 OFFCURVE",
"437 1481 OFFCURVE",
"336 1481 CURVE SMOOTH",
"231 1481 OFFCURVE",
"169 1394 OFFCURVE",
"153 1240 CURVE",
"249 1240 LINE",
"261 1319 OFFCURVE",
"289 1363 OFFCURVE",
"331 1363 CURVE SMOOTH",
"398 1363 OFFCURVE",
"476 1242 OFFCURVE",
"578 1242 CURVE SMOOTH",
"678 1242 OFFCURVE",
"745 1326 OFFCURVE",
"758 1483 CURVE"
);
}
);
width = 903;
}
);
unicode = 00F5;
},
{
glyphname = oe;
lastChange = "2013-03-07 05:32:14 +0200";
layers = (
{
layerId = "2E887DCB-F502-4FE4-8513-1FC10DF56BD7";
name = "Regular Condensed";
paths = (
{
closed = 1;
nodes = (
"884 1115 OFFCURVE",
"792 1049 OFFCURVE",
"733 917 CURVE",
"671 1049 OFFCURVE",
"577 1115 OFFCURVE",
"453 1115 CURVE SMOOTH",
"211 1115 OFFCURVE",
"87 917 OFFCURVE",
"87 545 CURVE SMOOTH",
"87 186 OFFCURVE",
"223 -20 OFFCURVE",
"449 -20 CURVE SMOOTH",
"579 -20 OFFCURVE",
"676 47 OFFCURVE",
"737 181 CURVE",
"802 47 OFFCURVE",
"905 -20 OFFCURVE",
"1046 -20 CURVE SMOOTH",
"1136 -20 OFFCURVE",
"1219 3 OFFCURVE",
"1294 48 CURVE",
"1294 180 LINE",
"1215 133 OFFCURVE",
"1140 110 OFFCURVE",
"1068 110 CURVE SMOOTH",
"904 110 OFFCURVE",
"817 242 OFFCURVE",
"812 525 CURVE",
"1332 525 LINE",
"1332 631 LINE SMOOTH",
"1332 929 OFFCURVE",
"1208 1115 OFFCURVE",
"1009 1115 CURVE SMOOTH"
);
},
{
closed = 1;
nodes = (
"590 979.999 OFFCURVE",
"658 836 OFFCURVE",
"658 549 CURVE SMOOTH",
"658 532 LINE SMOOTH",
"658 252 OFFCURVE",
"589 112 OFFCURVE",
"451 112 CURVE SMOOTH",
"310 112 OFFCURVE",
"243 259 OFFCURVE",
"243 549 CURVE SMOOTH",
"243 836 OFFCURVE",
"304 979.999 OFFCURVE",
"451 979.999 CURVE SMOOTH"
);
},
{
closed = 1;
nodes = (
"1115 987.999 OFFCURVE",
"1183 856 OFFCURVE",
"1183 646 CURVE",
"815 646 LINE",
"826 875 OFFCURVE",
"891 987.999 OFFCURVE",
"1004 987.999 CURVE SMOOTH"
);
}
);
width = 1418;
}
);
unicode = 0153;
},
{
glyphname = p;
lastChange = "2013-03-07 05:32:14 +0200";
layers = (
{
layerId = "2E887DCB-F502-4FE4-8513-1FC10DF56BD7";
name = "Regular Condensed";
paths = (
{
closed = 1;
nodes = (
"430 1112 OFFCURVE",
"343 1063 OFFCURVE",
"286 946 CURVE",
"276 946 LINE",
"254 1094 LINE",
"134 1094 LINE",
"134 -492 LINE",
"286 -492 LINE",
"286 8 LINE",
"285 41 OFFCURVE",
"281 85 OFFCURVE",
"276 142 CURVE",
"287 142 LINE",
"339 36 OFFCURVE",
"427 -20 OFFCURVE",
"532 -20 CURVE SMOOTH",
"734 -20 OFFCURVE",
"846 189 OFFCURVE",
"846 549 CURVE SMOOTH",
"846 907 OFFCURVE",
"739 1112 OFFCURVE",
"536 1112 CURVE SMOOTH"
);
},
{
closed = 1;
nodes = (
"634 979.999 OFFCURVE",
"690 837 OFFCURVE",
"690 550 CURVE SMOOTH",
"690 253 OFFCURVE",
"626 113 OFFCURVE",
"495 113 CURVE SMOOTH",
"352 113 OFFCURVE",
"285 250 OFFCURVE",
"285 554 CURVE SMOOTH",
"285 586 LINE SMOOTH",
"286 860 OFFCURVE",
"351 979.999 OFFCURVE",
"492 979.999 CURVE SMOOTH"
);
}
);
width = 934;
}
);
unicode = 0070;
},
{
glyphname = thorn;
lastChange = "2013-03-07 05:32:14 +0200";
layers = (
{
layerId = "2E887DCB-F502-4FE4-8513-1FC10DF56BD7";
name = "Regular Condensed";
paths = (
{
closed = 1;
nodes = (
"134 1556 LINE",
"134 -492 LINE",
"289 -492 LINE",
"289 8 LINE",
"276 142 LINE",
"285 142 LINE",
"336 37 OFFCURVE",
"425 -20 OFFCURVE",
"531 -20 CURVE SMOOTH",
"730 -20 OFFCURVE",
"846 189 OFFCURVE",
"846 549 CURVE SMOOTH",
"846 923 OFFCURVE",
"731 1115 OFFCURVE",
"526 1115 CURVE SMOOTH",
"426 1115 OFFCURVE",
"342 1060 OFFCURVE",
"285 946 CURVE",
"278 946 LINE",
"281 1010 OFFCURVE",
"284 1060 OFFCURVE",
"285 1095 CURVE SMOOTH",
"285 1556 LINE"
);
},
{
closed = 1;
nodes = (
"631 979.999 OFFCURVE",
"688 846 OFFCURVE",
"688 550 CURVE SMOOTH",
"688 242 OFFCURVE",
"622 113 OFFCURVE",
"495 113 CURVE SMOOTH",
"352 113 OFFCURVE",
"285 250 OFFCURVE",
"285 554 CURVE SMOOTH",
"285 586 LINE SMOOTH",
"286 860 OFFCURVE",
"351 979.999 OFFCURVE",
"492 979.999 CURVE SMOOTH"
);
}
);
width = 934;
}
);
unicode = 00FE;
},
{
glyphname = q;
lastChange = "2013-03-07 05:32:14 +0200";
layers = (
{
layerId = "2E887DCB-F502-4FE4-8513-1FC10DF56BD7";
name = "Regular Condensed";
paths = (
{
closed = 1;
nodes = (
"205 1111 OFFCURVE",
"87 918 OFFCURVE",
"87 545 CURVE SMOOTH",
"87 172 OFFCURVE",
"202 -20 OFFCURVE",
"406 -20 CURVE SMOOTH",
"511 -20 OFFCURVE",
"592 36 OFFCURVE",
"649 153 CURVE",
"658 153 LINE",
"651 73 OFFCURVE",
"648 15 OFFCURVE",
"648 -23 CURVE SMOOTH",
"648 -492 LINE",
"799 -492 LINE",
"799 1094 LINE",
"674 1094 LINE",
"667 1046 OFFCURVE",
"661 997.999 OFFCURVE",
"655 950 CURVE",
"645 950 LINE",
"586 1065 OFFCURVE",
"507 1111 OFFCURVE",
"400 1111 CURVE SMOOTH"
);
},
{
closed = 1;
nodes = (
"581 978.999 OFFCURVE",
"647 845 OFFCURVE",
"647 544 CURVE SMOOTH",
"647 499 LINE SMOOTH",
"647 242 OFFCURVE",
"575 111 OFFCURVE",
"442 111 CURVE SMOOTH",
"305 111 OFFCURVE",
"244 242 OFFCURVE",
"244 542 CURVE SMOOTH",
"244 827 OFFCURVE",
"301 978.999 OFFCURVE",
"436 978.999 CURVE SMOOTH"
);
}
);
width = 934;
}
);
unicode = 0071;
},
{
glyphname = r;
lastChange = "2013-03-07 05:32:13 +0200";
layers = (
{
layerId = "2E887DCB-F502-4FE4-8513-1FC10DF56BD7";
name = "Regular Condensed";
paths = (
{
closed = 1;
nodes = (
"404 1116 OFFCURVE",
"337 1051 OFFCURVE",
"283 910 CURVE",
"276 910 LINE",
"259 1095 LINE",
"134 1095 LINE",
"134 0 LINE",
"286 0 LINE",
"286 574 LINE SMOOTH",
"286 802 OFFCURVE",
"373 966 OFFCURVE",
"489 966 CURVE SMOOTH",
"516 966 OFFCURVE",
"540 961 OFFCURVE",
"563 952 CURVE",
"588 1101 LINE",
"559 1111 OFFCURVE",
"527 1116 OFFCURVE",
"493 1116 CURVE SMOOTH"
);
}
);
width = 602;
}
);
unicode = 0072;
},
{
glyphname = s;
lastChange = "2013-03-07 05:32:13 +0200";
layers = (
{
layerId = "2E887DCB-F502-4FE4-8513-1FC10DF56BD7";
name = "Regular Condensed";
paths = (
{
closed = 1;
nodes = (
"286 1116 OFFCURVE",
"212 1089 OFFCURVE",
"155 1037 CURVE SMOOTH",
"97.9999 983.999 OFFCURVE",
"70 917 OFFCURVE",
"70 833 CURVE SMOOTH",
"70 720 OFFCURVE",
"113 642 OFFCURVE",
"201 573 CURVE SMOOTH",
"239 542 OFFCURVE",
"287 507 OFFCURVE",
"344 467 CURVE SMOOTH",
"417 414 OFFCURVE",
"474 377 OFFCURVE",
"474 271 CURVE SMOOTH",
"474 188 OFFCURVE",
"418 117 OFFCURVE",
"305 117 CURVE SMOOTH",
"222 117 OFFCURVE",
"115 152 OFFCURVE",
"70 193 CURVE",
"70 42 LINE",
"121 7 OFFCURVE",
"203 -20 OFFCURVE",
"305 -20 CURVE SMOOTH",
"508 -20 OFFCURVE",
"617 77 OFFCURVE",
"617 271 CURVE SMOOTH",
"617 439 OFFCURVE",
"528 514 OFFCURVE",
"409 603 CURVE SMOOTH",
"279 700 LINE SMOOTH",
"225 741 OFFCURVE",
"219 792 OFFCURVE",
"219 834 CURVE SMOOTH",
"219 924 OFFCURVE",
"279 985.999 OFFCURVE",
"376 985.999 CURVE SMOOTH",
"435 985.999 OFFCURVE",
"495 967 OFFCURVE",
"555 930 CURVE",
"617 1048 LINE",
"548 1093 OFFCURVE",
"469 1116 OFFCURVE",
"378 1116 CURVE SMOOTH"
);
}
);
width = 685;
}
);
unicode = 0073;
},
{
glyphname = scaron;
lastChange = "2013-03-07 05:32:14 +0200";
layers = (
{
layerId = "2E887DCB-F502-4FE4-8513-1FC10DF56BD7";
name = "Regular Condensed";
paths = (
{
closed = 1;
nodes = (
"286 1116 OFFCURVE",
"212 1089 OFFCURVE",
"155 1037 CURVE SMOOTH",
"97.9999 983.999 OFFCURVE",
"70 917 OFFCURVE",
"70 833 CURVE SMOOTH",
"70 720 OFFCURVE",
"113 642 OFFCURVE",
"201 573 CURVE SMOOTH",
"239 542 OFFCURVE",
"287 507 OFFCURVE",
"344 467 CURVE SMOOTH",
"417 414 OFFCURVE",
"474 377 OFFCURVE",
"474 271 CURVE SMOOTH",
"474 188 OFFCURVE",
"418 117 OFFCURVE",
"305 117 CURVE SMOOTH",
"222 117 OFFCURVE",
"115 152 OFFCURVE",
"70 193 CURVE",
"70 42 LINE",
"121 7 OFFCURVE",
"203 -20 OFFCURVE",
"305 -20 CURVE SMOOTH",
"508 -20 OFFCURVE",
"617 77 OFFCURVE",
"617 271 CURVE SMOOTH",
"617 439 OFFCURVE",
"528 514 OFFCURVE",
"409 603 CURVE SMOOTH",
"279 700 LINE SMOOTH",
"225 741 OFFCURVE",
"219 792 OFFCURVE",
"219 834 CURVE SMOOTH",
"219 924 OFFCURVE",
"279 985.999 OFFCURVE",
"376 985.999 CURVE SMOOTH",
"435 985.999 OFFCURVE",
"495 967 OFFCURVE",
"555 930 CURVE",
"617 1048 LINE",
"548 1093 OFFCURVE",
"469 1116 OFFCURVE",
"378 1116 CURVE SMOOTH"
);
},
{
closed = 1;
nodes = (
"541 1569 LINE",
"505 1539 OFFCURVE",
"437 1468 OFFCURVE",
"354 1367 CURVE",
"288 1441 OFFCURVE",
"220 1518 OFFCURVE",
"162 1569 CURVE",
"77 1569 LINE",
"77 1547 LINE",
"167 1427 OFFCURVE",
"232 1325 OFFCURVE",
"274 1241 CURVE",
"429 1241 LINE",
"459 1304 OFFCURVE",
"544 1439 OFFCURVE",
"627 1547 CURVE",
"627 1569 LINE"
);
}
);
width = 685;
}
);
unicode = 0161;
},
{
glyphname = germandbls;
lastChange = "2013-03-07 05:32:13 +0200";
layers = (
{
layerId = "2E887DCB-F502-4FE4-8513-1FC10DF56BD7";
name = "Regular Condensed";
paths = (
{
closed = 1;
nodes = (
"267 1567 OFFCURVE",
"149 1441 OFFCURVE",
"137 1222 CURVE SMOOTH",
"135 1189 OFFCURVE",
"134 1154 OFFCURVE",
"134 1119 CURVE SMOOTH",
"134 0 LINE",
"285 0 LINE",
"285 1190 LINE SMOOTH",
"285 1349 OFFCURVE",
"345 1433 OFFCURVE",
"457 1433 CURVE SMOOTH",
"555 1433 OFFCURVE",
"605 1374 OFFCURVE",
"605 1262 CURVE SMOOTH",
"605 1190 OFFCURVE",
"580 1136 OFFCURVE",
"528 1065 CURVE",
"446 982.999 OFFCURVE",
"418 916 OFFCURVE",
"418 841 CURVE SMOOTH",
"418 741 OFFCURVE",
"458 662 OFFCURVE",
"567 549 CURVE SMOOTH",
"682 430 OFFCURVE",
"700 380 OFFCURVE",
"700 299 CURVE SMOOTH",
"700 179 OFFCURVE",
"642 110 OFFCURVE",
"539 110 CURVE SMOOTH",
"465 110 OFFCURVE",
"412 138 OFFCURVE",
"361 174 CURVE",
"361 33 LINE",
"408 -4 OFFCURVE",
"485 -20 OFFCURVE",
"554 -20 CURVE SMOOTH",
"742 -20 OFFCURVE",
"855 103 OFFCURVE",
"855 310 CURVE",
"854 434 OFFCURVE",
"809 519 OFFCURVE",
"711 616 CURVE SMOOTH",
"664 662 LINE",
"578 759 OFFCURVE",
"567 791 OFFCURVE",
"567 853 CURVE SMOOTH",
"567 899 OFFCURVE",
"596 947 OFFCURVE",
"654 1019 CURVE",
"663 1028 LINE",
"727 1106 OFFCURVE",
"759 1188 OFFCURVE",
"759 1275 CURVE SMOOTH",
"759 1456 OFFCURVE",
"650 1567 OFFCURVE",
"462 1567 CURVE SMOOTH"
);
}
);
width = 917;
}
);
unicode = 00DF;
},
{
glyphname = t;
lastChange = "2013-03-07 05:32:13 +0200";
layers = (
{
layerId = "2E887DCB-F502-4FE4-8513-1FC10DF56BD7";
name = "Regular Condensed";
paths = (
{
closed = 1;
nodes = (
"193 1346 LINE",
"149 1095 LINE",
"39 1045 LINE",
"39 967.999 LINE",
"141 967.999 LINE",
"141 348 LINE SMOOTH",
"141 103 OFFCURVE",
"187 -20 OFFCURVE",
"347 -20 CURVE SMOOTH",
"407 -20 OFFCURVE",
"454 -10 OFFCURVE",
"487 8 CURVE",
"487 130 LINE",
"458 118 OFFCURVE",
"427 113 OFFCURVE",
"395 113 CURVE SMOOTH",
"319 113 OFFCURVE",
"293 160 OFFCURVE",
"293 277 CURVE SMOOTH",
"293 967.999 LINE",
"475 967.999 LINE",
"475 1094 LINE",
"293 1094 LINE",
"293 1346 LINE"
);
}
);
width = 520;
}
);
unicode = 0074;
},
{
glyphname = u;
lastChange = "2013-03-07 05:32:13 +0200";
layers = (
{
layerId = "2E887DCB-F502-4FE4-8513-1FC10DF56BD7";
name = "Regular Condensed";
paths = (
{
closed = 1;
nodes = (
"640 1094 LINE",
"640 519 LINE SMOOTH",
"640 231 OFFCURVE",
"571 113 OFFCURVE",
"426 113 CURVE SMOOTH",
"325 113 OFFCURVE",
"280 203 OFFCURVE",
"280 401 CURVE SMOOTH",
"280 1094 LINE",
"128 1094 LINE",
"128 380 LINE SMOOTH",
"128 101 OFFCURVE",
"216 -20 OFFCURVE",
"397 -20 CURVE SMOOTH",
"500 -20 OFFCURVE",
"591 41 OFFCURVE",
"639 149 CURVE",
"649 149 LINE",
"655 98.9999 OFFCURVE",
"661 50 OFFCURVE",
"668 0 CURVE",
"791 0 LINE",
"791 1094 LINE"
);
}
);
width = 925;
}
);
unicode = 0075;
},
{
glyphname = uacute;
lastChange = "2013-03-07 05:32:14 +0200";
layers = (
{
layerId = "2E887DCB-F502-4FE4-8513-1FC10DF56BD7";
name = "Regular Condensed";
paths = (
{
closed = 1;
nodes = (
"640 1094 LINE",
"640 519 LINE SMOOTH",
"640 231 OFFCURVE",
"571 113 OFFCURVE",
"426 113 CURVE SMOOTH",
"325 113 OFFCURVE",
"280 203 OFFCURVE",
"280 401 CURVE SMOOTH",
"280 1094 LINE",
"128 1094 LINE",
"128 380 LINE SMOOTH",
"128 101 OFFCURVE",
"216 -20 OFFCURVE",
"397 -20 CURVE SMOOTH",
"500 -20 OFFCURVE",
"591 41 OFFCURVE",
"639 149 CURVE",
"649 149 LINE",
"655 98.9999 OFFCURVE",
"661 50 OFFCURVE",
"668 0 CURVE",
"791 0 LINE",
"791 1094 LINE"
);
},
{
closed = 1;
nodes = (
"546 1569 LINE",
"507 1483 OFFCURVE",
"432 1357 OFFCURVE",
"361 1263 CURVE",
"361 1241 LINE",
"454 1241 LINE",
"550 1320 OFFCURVE",
"694 1475 OFFCURVE",
"734 1550 CURVE",
"734 1569 LINE"
);
}
);
width = 925;
}
);
unicode = 00FA;
},
{
glyphname = ucircumflex;
lastChange = "2013-03-07 05:32:14 +0200";
layers = (
{
layerId = "2E887DCB-F502-4FE4-8513-1FC10DF56BD7";
name = "Regular Condensed";
paths = (
{
closed = 1;
nodes = (
"640 1094 LINE",
"640 519 LINE SMOOTH",
"640 231 OFFCURVE",
"571 113 OFFCURVE",
"426 113 CURVE SMOOTH",
"325 113 OFFCURVE",
"280 203 OFFCURVE",
"280 401 CURVE SMOOTH",
"280 1094 LINE",
"128 1094 LINE",
"128 380 LINE SMOOTH",
"128 101 OFFCURVE",
"216 -20 OFFCURVE",
"397 -20 CURVE SMOOTH",
"500 -20 OFFCURVE",
"591 41 OFFCURVE",
"639 149 CURVE",
"649 149 LINE",
"655 98.9999 OFFCURVE",
"661 50 OFFCURVE",
"668 0 CURVE",
"791 0 LINE",
"791 1094 LINE"
);
},
{
closed = 1;
nodes = (
"378 1569 LINE",
"340 1488 OFFCURVE",
"274 1386 OFFCURVE",
"181 1262 CURVE",
"181 1241 LINE",
"266 1241 LINE",
"324 1293 OFFCURVE",
"392 1370 OFFCURVE",
"456 1442 CURVE",
"546 1341 LINE SMOOTH",
"585 1297 OFFCURVE",
"618 1264 OFFCURVE",
"645 1241 CURVE",
"731 1241 LINE",
"731 1262 LINE",
"645 1373 OFFCURVE",
"561 1503 OFFCURVE",
"533 1569 CURVE"
);
}
);
width = 925;
}
);
unicode = 00FB;
},
{
glyphname = udieresis;
lastChange = "2013-03-07 05:32:14 +0200";
layers = (
{
layerId = "2E887DCB-F502-4FE4-8513-1FC10DF56BD7";
name = "Regular Condensed";
paths = (
{
closed = 1;
nodes = (
"640 1094 LINE",
"640 519 LINE SMOOTH",
"640 231 OFFCURVE",
"571 113 OFFCURVE",
"426 113 CURVE SMOOTH",
"325 113 OFFCURVE",
"280 203 OFFCURVE",
"280 401 CURVE SMOOTH",
"280 1094 LINE",
"128 1094 LINE",
"128 380 LINE SMOOTH",
"128 101 OFFCURVE",
"216 -20 OFFCURVE",
"397 -20 CURVE SMOOTH",
"500 -20 OFFCURVE",
"591 41 OFFCURVE",
"639 149 CURVE",
"649 149 LINE",
"655 98.9999 OFFCURVE",
"661 50 OFFCURVE",
"668 0 CURVE",
"791 0 LINE",
"791 1094 LINE"
);
},
{
closed = 1;
nodes = (
"245 1490 OFFCURVE",
"208 1459 OFFCURVE",
"208 1394 CURVE SMOOTH",
"208 1328 OFFCURVE",
"245 1295 OFFCURVE",
"294 1295 CURVE SMOOTH",
"343 1295 OFFCURVE",
"379 1329 OFFCURVE",
"379 1394 CURVE SMOOTH",
"379 1457 OFFCURVE",
"343 1490 OFFCURVE",
"294 1490 CURVE SMOOTH"
);
},
{
closed = 1;
nodes = (
"581 1490 OFFCURVE",
"544 1458 OFFCURVE",
"544 1394 CURVE SMOOTH",
"544 1329 OFFCURVE",
"581 1295 OFFCURVE",
"629 1295 CURVE SMOOTH",
"679 1295 OFFCURVE",
"715 1328 OFFCURVE",
"715 1394 CURVE SMOOTH",
"715 1459 OFFCURVE",
"678 1490 OFFCURVE",
"629 1490 CURVE SMOOTH"
);
}
);
width = 925;
}
);
unicode = 00FC;
},
{
glyphname = ugrave;
lastChange = "2013-03-07 05:32:14 +0200";
layers = (
{
layerId = "2E887DCB-F502-4FE4-8513-1FC10DF56BD7";
name = "Regular Condensed";
paths = (
{
closed = 1;
nodes = (
"640 1094 LINE",
"640 519 LINE SMOOTH",
"640 231 OFFCURVE",
"571 113 OFFCURVE",
"426 113 CURVE SMOOTH",
"325 113 OFFCURVE",
"280 203 OFFCURVE",
"280 401 CURVE SMOOTH",
"280 1094 LINE",
"128 1094 LINE",
"128 380 LINE SMOOTH",
"128 101 OFFCURVE",
"216 -20 OFFCURVE",
"397 -20 CURVE SMOOTH",
"500 -20 OFFCURVE",
"591 41 OFFCURVE",
"639 149 CURVE",
"649 149 LINE",
"655 98.9999 OFFCURVE",
"661 50 OFFCURVE",
"668 0 CURVE",
"791 0 LINE",
"791 1094 LINE"
);
},
{
closed = 1;
nodes = (
"184 1569 LINE",
"184 1551 LINE",
"206 1510 OFFCURVE",
"247 1457 OFFCURVE",
"306 1393 CURVE SMOOTH",
"366 1329 OFFCURVE",
"419 1278 OFFCURVE",
"464 1241 CURVE",
"558 1241 LINE",
"558 1264 LINE",
"526 1304 OFFCURVE",
"491 1355 OFFCURVE",
"454 1416 CURVE SMOOTH",
"418 1476 OFFCURVE",
"391 1528 OFFCURVE",
"373 1569 CURVE"
);
}
);
width = 925;
}
);
unicode = 00F9;
},
{
glyphname = v;
lastChange = "2013-03-07 05:32:13 +0200";
layers = (
{
layerId = "2E887DCB-F502-4FE4-8513-1FC10DF56BD7";
name = "Regular Condensed";
paths = (
{
closed = 1;
nodes = (
"576 1094 LINE",
"436 486 OFFCURVE",
"399 316 OFFCURVE",
"388 258 CURVE SMOOTH",
"380 217 OFFCURVE",
"376 182 OFFCURVE",
"372 152 CURVE",
"365 152 LINE",
"304 516 OFFCURVE",
"232 783 OFFCURVE",
"162 1094 CURVE",
"6 1094 LINE",
"274 0 LINE",
"458 0 LINE",
"732 1094 LINE"
);
}
);
width = 739;
}
);
unicode = 0076;
},
{
glyphname = w;
lastChange = "2013-03-07 05:32:13 +0200";
layers = (
{
layerId = "2E887DCB-F502-4FE4-8513-1FC10DF56BD7";
name = "Regular Condensed";
paths = (
{
closed = 1;
nodes = (
"1072 1094 LINE",
"960 543 OFFCURVE",
"897 218 OFFCURVE",
"892 148 CURVE",
"886 148 LINE",
"865 308 OFFCURVE",
"849 415 OFFCURVE",
"837 468 CURVE SMOOTH",
"710 1094 LINE",
"530 1094 LINE",
"404 470 LINE SMOOTH",
"386 383 OFFCURVE",
"363 228 OFFCURVE",
"354 148 CURVE",
"348 148 LINE",
"296 505 OFFCURVE",
"234 778 OFFCURVE",
"171 1094 CURVE",
"20 1094 LINE",
"251 0 LINE",
"439 0 LINE",
"528 452 OFFCURVE",
"590 750 OFFCURVE",
"618 936 CURVE",
"621 936 LINE",
"630 873 OFFCURVE",
"640 810 OFFCURVE",
"650 747 CURVE SMOOTH",
"671 635 LINE",
"794 0 LINE",
"982.999 0 LINE",
"1062 364 OFFCURVE",
"1142 729 OFFCURVE",
"1220 1094 CURVE"
);
}
);
width = 1241;
}
);
unicode = 0077;
},
{
glyphname = x;
lastChange = "2013-03-07 05:32:13 +0200";
layers = (
{
layerId = "2E887DCB-F502-4FE4-8513-1FC10DF56BD7";
name = "Regular Condensed";
paths = (
{
closed = 1;
nodes = (
"549 1095 LINE",
"377 688 LINE",
"206 1095 LINE",
"46 1095 LINE",
"297 565 LINE",
"28 0 LINE",
"185 0 LINE",
"371 432 LINE",
"559 0 LINE",
"718 0 LINE",
"451 557 LINE",
"706 1095 LINE"
);
}
);
width = 746;
}
);
unicode = 0078;
},
{
glyphname = y;
lastChange = "2013-03-07 05:32:13 +0200";
layers = (
{
layerId = "2E887DCB-F502-4FE4-8513-1FC10DF56BD7";
name = "Regular Condensed";
paths = (
{
closed = 1;
nodes = (
"575 1094 LINE",
"515 825 OFFCURVE",
"464 602 OFFCURVE",
"424 426 CURVE SMOOTH",
"405 333 OFFCURVE",
"390 243 OFFCURVE",
"379 171 CURVE",
"372 171 LINE",
"357 273 OFFCURVE",
"340 360 OFFCURVE",
"322 433 CURVE SMOOTH",
"162 1094 LINE",
"6 1094 LINE",
"297 -4 LINE",
"258 -153 LINE SMOOTH",
"225 -294 OFFCURVE",
"178 -357 OFFCURVE",
"94.9999 -357 CURVE SMOOTH",
"67 -357 OFFCURVE",
"39 -352 OFFCURVE",
"12 -343 CURVE",
"12 -475 LINE",
"47 -486 OFFCURVE",
"82 -492 OFFCURVE",
"117 -492 CURVE SMOOTH",
"308 -492 OFFCURVE",
"371 -317 OFFCURVE",
"453 -6 CURVE SMOOTH",
"545 360 OFFCURVE",
"638 727 OFFCURVE",
"732 1094 CURVE"
);
}
);
width = 739;
}
);
unicode = 0079;
},
{
glyphname = yacute;
lastChange = "2013-03-07 05:32:14 +0200";
layers = (
{
layerId = "2E887DCB-F502-4FE4-8513-1FC10DF56BD7";
name = "Regular Condensed";
paths = (
{
closed = 1;
nodes = (
"575 1094 LINE",
"515 825 OFFCURVE",
"464 602 OFFCURVE",
"424 426 CURVE SMOOTH",
"405 333 OFFCURVE",
"390 243 OFFCURVE",
"379 171 CURVE",
"372 171 LINE",
"357 273 OFFCURVE",
"340 360 OFFCURVE",
"322 433 CURVE SMOOTH",
"162 1094 LINE",
"6 1094 LINE",
"297 -4 LINE",
"258 -153 LINE SMOOTH",
"225 -294 OFFCURVE",
"178 -357 OFFCURVE",
"94.9999 -357 CURVE SMOOTH",
"67 -357 OFFCURVE",
"39 -352 OFFCURVE",
"12 -343 CURVE",
"12 -475 LINE",
"47 -486 OFFCURVE",
"82 -492 OFFCURVE",
"117 -492 CURVE SMOOTH",
"308 -492 OFFCURVE",
"371 -317 OFFCURVE",
"453 -6 CURVE SMOOTH",
"545 360 OFFCURVE",
"638 727 OFFCURVE",
"732 1094 CURVE"
);
},
{
closed = 1;
nodes = (
"457 1569 LINE",
"418 1483 OFFCURVE",
"343 1357 OFFCURVE",
"272 1263 CURVE",
"272 1241 LINE",
"365 1241 LINE",
"461 1320 OFFCURVE",
"605 1475 OFFCURVE",
"645 1550 CURVE",
"645 1569 LINE"
);
}
);
width = 739;
}
);
unicode = 00FD;
},
{
glyphname = ydieresis;
lastChange = "2013-03-07 05:32:14 +0200";
layers = (
{
layerId = "2E887DCB-F502-4FE4-8513-1FC10DF56BD7";
name = "Regular Condensed";
paths = (
{
closed = 1;
nodes = (
"575 1094 LINE",
"515 825 OFFCURVE",
"464 602 OFFCURVE",
"424 426 CURVE SMOOTH",
"405 333 OFFCURVE",
"390 243 OFFCURVE",
"379 171 CURVE",
"372 171 LINE",
"357 273 OFFCURVE",
"340 360 OFFCURVE",
"322 433 CURVE SMOOTH",
"162 1094 LINE",
"6 1094 LINE",
"297 -4 LINE",
"258 -153 LINE SMOOTH",
"225 -294 OFFCURVE",
"178 -357 OFFCURVE",
"94.9999 -357 CURVE SMOOTH",
"67 -357 OFFCURVE",
"39 -352 OFFCURVE",
"12 -343 CURVE",
"12 -475 LINE",
"47 -486 OFFCURVE",
"82 -492 OFFCURVE",
"117 -492 CURVE SMOOTH",
"308 -492 OFFCURVE",
"371 -317 OFFCURVE",
"453 -6 CURVE SMOOTH",
"545 360 OFFCURVE",
"638 727 OFFCURVE",
"732 1094 CURVE"
);
},
{
closed = 1;
nodes = (
"156 1490 OFFCURVE",
"119 1459 OFFCURVE",
"119 1394 CURVE SMOOTH",
"119 1328 OFFCURVE",
"156 1295 OFFCURVE",
"205 1295 CURVE SMOOTH",
"254 1295 OFFCURVE",
"290 1329 OFFCURVE",
"290 1394 CURVE SMOOTH",
"290 1457 OFFCURVE",
"254 1490 OFFCURVE",
"205 1490 CURVE SMOOTH"
);
},
{
closed = 1;
nodes = (
"492 1490 OFFCURVE",
"455 1458 OFFCURVE",
"455 1394 CURVE SMOOTH",
"455 1329 OFFCURVE",
"492 1295 OFFCURVE",
"540 1295 CURVE SMOOTH",
"590 1295 OFFCURVE",
"626 1328 OFFCURVE",
"626 1394 CURVE SMOOTH",
"626 1459 OFFCURVE",
"589 1490 OFFCURVE",
"540 1490 CURVE SMOOTH"
);
}
);
width = 739;
}
);
unicode = 00FF;
},
{
glyphname = z;
lastChange = "2013-03-07 05:32:13 +0200";
layers = (
{
layerId = "2E887DCB-F502-4FE4-8513-1FC10DF56BD7";
name = "Regular Condensed";
paths = (
{
closed = 1;
nodes = (
"74 1095 LINE",
"74 967 LINE",
"380 967 LINE",
"53 107 LINE",
"53 0 LINE",
"559 0 LINE",
"559 127 LINE",
"221 127 LINE",
"544 980.999 LINE",
"544 1095 LINE"
);
}
);
width = 604;
}
);
unicode = 007A;
},
{
glyphname = zcaron;
lastChange = "2013-03-07 05:32:14 +0200";
layers = (
{
layerId = "2E887DCB-F502-4FE4-8513-1FC10DF56BD7";
name = "Regular Condensed";
paths = (
{
closed = 1;
nodes = (
"74 1095 LINE",
"74 967 LINE",
"380 967 LINE",
"53 107 LINE",
"53 0 LINE",
"559 0 LINE",
"559 127 LINE",
"221 127 LINE",
"544 980.999 LINE",
"544 1095 LINE"
);
},
{
closed = 1;
nodes = (
"502 1569 LINE",
"466 1539 OFFCURVE",
"398 1468 OFFCURVE",
"315 1367 CURVE",
"249 1441 OFFCURVE",
"181 1518 OFFCURVE",
"123 1569 CURVE",
"38 1569 LINE",
"38 1547 LINE",
"128 1427 OFFCURVE",
"193 1325 OFFCURVE",
"235 1241 CURVE",
"390 1241 LINE",
"420 1304 OFFCURVE",
"505 1439 OFFCURVE",
"588 1547 CURVE",
"588 1569 LINE"
);
}
);
width = 604;
}
);
unicode = 017E;
},
{
glyphname = uniFB01;
lastChange = "2013-03-07 05:32:14 +0200";
layers = (
{
layerId = "2E887DCB-F502-4FE4-8513-1FC10DF56BD7";
name = "Regular Condensed";
paths = (
{
closed = 1;
nodes = (
"229 1567 OFFCURVE",
"158 1447 OFFCURVE",
"158 1185 CURVE SMOOTH",
"158 1102 LINE",
"112 1084 OFFCURVE",
"67 1067 OFFCURVE",
"22 1048 CURVE",
"22 967.999 LINE",
"158 967.999 LINE",
"158 0 LINE",
"308 0 LINE",
"308 967.999 LINE",
"483 967.999 LINE",
"483 1094 LINE",
"308 1094 LINE",
"308 1182 LINE SMOOTH",
"308 1369 OFFCURVE",
"336 1431 OFFCURVE",
"420 1434 CURVE",
"451 1434 OFFCURVE",
"483 1426 OFFCURVE",
"518 1409 CURVE",
"563 1535 LINE",
"517 1556 OFFCURVE",
"467 1567 OFFCURVE",
"411 1567 CURVE SMOOTH"
);
},
{
closed = 1;
nodes = (
"640 1095 LINE",
"640 0 LINE",
"792 0 LINE",
"792 1095 LINE"
);
},
{
closed = 1;
nodes = (
"663 1503 OFFCURVE",
"627 1462 OFFCURVE",
"627 1392 CURVE SMOOTH",
"627 1324 OFFCURVE",
"664 1282 OFFCURVE",
"719 1282 CURVE SMOOTH",
"771 1282 OFFCURVE",
"806 1324 OFFCURVE",
"806 1392 CURVE SMOOTH",
"806 1462 OFFCURVE",
"772 1503 OFFCURVE",
"719 1503 CURVE SMOOTH"
);
}
);
width = 927;
}
);
unicode = FB01;
},
{
glyphname = uniFB02;
lastChange = "2013-03-07 05:32:14 +0200";
layers = (
{
layerId = "2E887DCB-F502-4FE4-8513-1FC10DF56BD7";
name = "Regular Condensed";
paths = (
{
closed = 1;
nodes = (
"229 1567 OFFCURVE",
"158 1447 OFFCURVE",
"158 1185 CURVE SMOOTH",
"158 1102 LINE",
"112 1084 OFFCURVE",
"67 1067 OFFCURVE",
"22 1048 CURVE",
"22 967.999 LINE",
"158 967.999 LINE",
"158 0 LINE",
"308 0 LINE",
"308 967.999 LINE",
"483 967.999 LINE",
"483 1094 LINE",
"308 1094 LINE",
"308 1182 LINE SMOOTH",
"308 1369 OFFCURVE",
"336 1431 OFFCURVE",
"420 1434 CURVE",
"451 1434 OFFCURVE",
"483 1426 OFFCURVE",
"518 1409 CURVE",
"563 1535 LINE",
"517 1556 OFFCURVE",
"467 1567 OFFCURVE",
"411 1567 CURVE SMOOTH"
);
},
{
closed = 1;
nodes = (
"639 1556 LINE",
"639 0 LINE",
"791 0 LINE",
"791 1556 LINE"
);
}
);
width = 925;
}
);
unicode = FB02;
},
{
glyphname = ordfeminine;
lastChange = "2013-03-07 05:32:14 +0200";
layers = (
{
layerId = "2E887DCB-F502-4FE4-8513-1FC10DF56BD7";
name = "Regular Condensed";
paths = (
{
closed = 1;
nodes = (
"239 1479 OFFCURVE",
"172 1460 OFFCURVE",
"108 1423 CURVE",
"121 1395 OFFCURVE",
"133 1366 OFFCURVE",
"145 1338 CURVE",
"198 1368 OFFCURVE",
"246 1383 OFFCURVE",
"288 1383 CURVE SMOOTH",
"362 1383 OFFCURVE",
"393 1343 OFFCURVE",
"393 1250 CURVE SMOOTH",
"393 1199 LINE",
"304 1193 LINE SMOOTH",
"130 1181 OFFCURVE",
"57 1111 OFFCURVE",
"57 984.999 CURVE SMOOTH",
"57 859 OFFCURVE",
"125 789 OFFCURVE",
"224 789 CURVE SMOOTH",
"299 789 OFFCURVE",
"352 826 OFFCURVE",
"407 892 CURVE",
"414 861 OFFCURVE",
"420 831 OFFCURVE",
"426 801 CURVE",
"503 801 LINE",
"503 1253 LINE SMOOTH",
"503 1404 OFFCURVE",
"444 1479 OFFCURVE",
"307 1479 CURVE SMOOTH"
);
},
{
closed = 1;
nodes = (
"393 1063 LINE SMOOTH",
"393 949 OFFCURVE",
"342 882 OFFCURVE",
"256 882 CURVE SMOOTH",
"199 882 OFFCURVE",
"171 916 OFFCURVE",
"171 983.999 CURVE SMOOTH",
"171 1069 OFFCURVE",
"217 1101 OFFCURVE",
"327 1113 CURVE SMOOTH",
"393 1120 LINE"
);
}
);
width = 612;
}
);
unicode = 00AA;
},
{
glyphname = ordmasculine;
lastChange = "2013-03-07 05:32:14 +0200";
layers = (
{
layerId = "2E887DCB-F502-4FE4-8513-1FC10DF56BD7";
name = "Regular Condensed";
paths = (
{
closed = 1;
nodes = (
"160 1479 OFFCURVE",
"67 1352 OFFCURVE",
"67 1135 CURVE SMOOTH",
"67 915 OFFCURVE",
"155 789 OFFCURVE",
"321 789 CURVE SMOOTH",
"482 789 OFFCURVE",
"574 912 OFFCURVE",
"574 1135 CURVE SMOOTH",
"574 1359 OFFCURVE",
"478 1479 OFFCURVE",
"321 1479 CURVE SMOOTH"
);
},
{
closed = 1;
nodes = (
"415 1378 OFFCURVE",
"457 1305 OFFCURVE",
"457 1135 CURVE SMOOTH",
"457 964 OFFCURVE",
"418 889 OFFCURVE",
"320 889 CURVE SMOOTH",
"226 889 OFFCURVE",
"184 964 OFFCURVE",
"184 1135 CURVE SMOOTH",
"184 1304 OFFCURVE",
"233 1378 OFFCURVE",
"320 1378 CURVE SMOOTH"
);
}
);
width = 640;
}
);
unicode = 00BA;
},
{
glyphname = "alef-hb";
lastChange = "2013-03-07 05:32:14 +0200";
layers = (
{
anchors = (
{
name = bottom;
position = "{430, 0}";
},
{
name = bottomleft;
position = "{20, 0}";
},
{
name = center;
position = "{353, 107}";
},
{
name = top;
position = "{430, 1024}";
},
{
name = topleft;
position = "{113, 1127}";
}
);
layerId = "2E887DCB-F502-4FE4-8513-1FC10DF56BD7";
name = "Regular Condensed";
paths = (
{
closed = 1;
nodes = (
"634 1290 LINE",
"634 861 LINE SMOOTH",
"634 711 OFFCURVE",
"616 623 OFFCURVE",
"538 572 CURVE",
"433 803 LINE",
"238 1290 LINE",
"68 1290 LINE",
"264 843 LINE",
"94.9999 764 OFFCURVE",
"76 588 OFFCURVE",
"76 455 CURVE SMOOTH",
"76 0 LINE",
"225 0 LINE",
"225 417 LINE SMOOTH",
"225 562 OFFCURVE",
"243 662 OFFCURVE",
"320 718 CURVE",
"616 0 LINE",
"787 0 LINE",
"723 149 OFFCURVE",
"658 297 OFFCURVE",
"594 447 CURVE",
"765 521 OFFCURVE",
"783 688 OFFCURVE",
"783 823 CURVE SMOOTH",
"783 1290 LINE"
);
}
);
width = 859;
}
);
unicode = 05D0;
},
{
glyphname = "bet-hb";
lastChange = "2013-03-07 05:32:14 +0200";
layers = (
{
anchors = (
{
name = bottom;
position = "{405, 0}";
},
{
name = bottomleft;
position = "{20, 0}";
},
{
name = center;
position = "{293, 512}";
},
{
name = top;
position = "{405, 1024}";
},
{
name = topleft;
position = "{147, 1127}";
}
);
layerId = "2E887DCB-F502-4FE4-8513-1FC10DF56BD7";
name = "Regular Condensed";
paths = (
{
closed = 1;
nodes = (
"200 1310 OFFCURVE",
"92.9999 1298 OFFCURVE",
"92.9999 1298 CURVE",
"92.9999 1167 LINE",
"92.9999 1167 OFFCURVE",
"191 1180 OFFCURVE",
"305 1180 CURVE SMOOTH",
"458 1180 OFFCURVE",
"524 1137 OFFCURVE",
"524 918 CURVE SMOOTH",
"524 127 LINE",
"93.9999 127 LINE",
"93.9999 0 LINE",
"778 0 LINE",
"778 127 LINE",
"676 127 LINE",
"676 918 LINE SMOOTH",
"676 1163 OFFCURVE",
"619 1310 OFFCURVE",
"318 1310 CURVE SMOOTH"
);
}
);
width = 810;
}
);
unicode = 05D1;
},
{
glyphname = "gimel-hb";
lastChange = "2013-03-07 05:32:14 +0200";
layers = (
{
anchors = (
{
name = bottom;
position = "{350, 0}";
},
{
name = bottomleft;
position = "{20, 0}";
},
{
name = center;
position = "{247, 512}";
},
{
name = top;
position = "{350, 1024}";
},
{
name = topleft;
position = "{200, 1127}";
}
);
layerId = "2E887DCB-F502-4FE4-8513-1FC10DF56BD7";
name = "Regular Condensed";
paths = (
{
closed = 1;
nodes = (
"230 1310 OFFCURVE",
"185 1296 OFFCURVE",
"170 1292 CURVE",
"170 1159 LINE",
"185 1163 OFFCURVE",
"236 1178 OFFCURVE",
"279 1178 CURVE SMOOTH",
"398 1178 OFFCURVE",
"419 1096 OFFCURVE",
"419 958 CURVE SMOOTH",
"419 515 LINE SMOOTH",
"419 269 OFFCURVE",
"354 135 OFFCURVE",
"172 135 CURVE SMOOTH",
"139 135 OFFCURVE",
"108 145 OFFCURVE",
"108 146 CURVE",
"89 0.999999 LINE",
"89 0.999999 OFFCURVE",
"123 -9 OFFCURVE",
"164 -9 CURVE SMOOTH",
"360 -9 OFFCURVE",
"404 149 OFFCURVE",
"422 204 CURVE",
"432 204 LINE",
"434 157 OFFCURVE",
"451 47 OFFCURVE",
"453 0 CURVE",
"570 0 LINE",
"570 958 LINE SMOOTH",
"570 1144 OFFCURVE",
"539 1310 OFFCURVE",
"297 1310 CURVE SMOOTH"
);
}
);
width = 699;
}
);
unicode = 05D2;
},
{
glyphname = "dalet-hb";
lastChange = "2013-03-07 05:32:14 +0200";
layers = (
{
anchors = (
{
name = bottom;
position = "{433, 0}";
},
{
name = bottomleft;
position = "{20, 0}";
},
{
name = center;
position = "{207, 512}";
},
{
name = top;
position = "{367, 1024}";
},
{
name = topleft;
position = "{87, 1127}";
}
);
layerId = "2E887DCB-F502-4FE4-8513-1FC10DF56BD7";
name = "Regular Condensed";
paths = (
{
closed = 1;
nodes = (
"20 1290 LINE",
"20 1162 LINE",
"433 1162 OFFCURVE",
"500 1162 OFFCURVE",
"500 1162 CURVE SMOOTH",
"500 1162 OFFCURVE",
"361 1100 OFFCURVE",
"361 894 CURVE SMOOTH",
"361 0 LINE",
"512 0 LINE",
"512 892 LINE SMOOTH",
"512 1059 OFFCURVE",
"600 1136 OFFCURVE",
"706 1174 CURVE",
"706 1290 LINE"
);
}
);
width = 733;
}
);
unicode = 05D3;
},
{
glyphname = "he-hb";
lastChange = "2013-03-07 05:32:14 +0200";
layers = (
{
anchors = (
{
name = bottom;
position = "{478, 0}";
},
{
name = bottomleft;
position = "{20, 0}";
},
{
name = center;
position = "{478, 512}";
},
{
name = top;
position = "{478, 1024}";
},
{
name = topleft;
position = "{180, 1127}";
}
);
layerId = "2E887DCB-F502-4FE4-8513-1FC10DF56BD7";
name = "Regular Condensed";
paths = (
{
closed = 1;
nodes = (
"296 1310 OFFCURVE",
"169 1288 OFFCURVE",
"134 1282 CURVE",
"134 1153 LINE",
"176 1159 OFFCURVE",
"331 1180 OFFCURVE",
"430 1180 CURVE SMOOTH",
"609 1180 OFFCURVE",
"675 1139 OFFCURVE",
"675 920 CURVE SMOOTH",
"675 0 LINE",
"828 0 LINE",
"828 920 LINE SMOOTH",
"828 1218 OFFCURVE",
"723 1310 OFFCURVE",
"443 1310 CURVE SMOOTH"
);
},
{
closed = 1;
nodes = (
"134 816 LINE",
"134 0 LINE",
"286 0 LINE",
"286 816 LINE"
);
}
);
width = 956;
}
);
unicode = 05D4;
},
{
glyphname = "vav-hb";
lastChange = "2013-03-07 05:32:14 +0200";
layers = (
{
anchors = (
{
name = bottom;
position = "{210, 0}";
},
{
name = bottomleft;
position = "{20, 0}";
},
{
name = center;
position = "{-15, 512}";
},
{
name = top;
position = "{210, 1024}";
},
{
name = topleft;
position = "{171, 1127}";
}
);
layerId = "2E887DCB-F502-4FE4-8513-1FC10DF56BD7";
name = "Regular Condensed";
paths = (
{
closed = 1;
nodes = (
"134 1290 LINE",
"134 0 LINE",
"285 0 LINE",
"285 1290 LINE"
);
}
);
width = 420;
}
);
unicode = 05D5;
},
{
glyphname = "zayin-hb";
lastChange = "2013-03-07 05:32:14 +0200";
layers = (
{
anchors = (
{
name = bottom;
position = "{241, 0}";
},
{
name = bottomleft;
position = "{20, 0}";
},
{
name = center;
position = "{27, 512}";
},
{
name = top;
position = "{241, 1024}";
},
{
name = topleft;
position = "{144, 1127}";
}
);
layerId = "2E887DCB-F502-4FE4-8513-1FC10DF56BD7";
name = "Regular Condensed";
paths = (
{
closed = 1;
nodes = (
"129 1290 LINE",
"129 1162 LINE",
"315 1162 LINE",
"230 1050 OFFCURVE",
"168 846 OFFCURVE",
"168 555 CURVE SMOOTH",
"168 0 LINE",
"319 0 LINE",
"319 555 LINE SMOOTH",
"319 710 OFFCURVE",
"315 1018 OFFCURVE",
"450 1170 CURVE",
"450 1290 LINE"
);
}
);
width = 481;
}
);
unicode = 05D6;
},
{
glyphname = "het-hb";
lastChange = "2013-03-07 05:32:14 +0200";
layers = (
{
anchors = (
{
name = bottom;
position = "{478, 0}";
},
{
name = bottomleft;
position = "{20, 0}";
},
{
name = center;
position = "{478, 512}";
},
{
name = top;
position = "{478, 1024}";
},
{
name = topleft;
position = "{187, 1127}";
}
);
layerId = "2E887DCB-F502-4FE4-8513-1FC10DF56BD7";
name = "Regular Condensed";
paths = (
{
closed = 1;
nodes = (
"316 1310 OFFCURVE",
"183 1288 OFFCURVE",
"134 1282 CURVE",
"134 0 LINE",
"286 0 LINE",
"286 1169 LINE",
"334 1175 OFFCURVE",
"392 1180 OFFCURVE",
"430 1180 CURVE SMOOTH",
"609 1180 OFFCURVE",
"675 1139 OFFCURVE",
"675 920 CURVE SMOOTH",
"675 0 LINE",
"828 0 LINE",
"828 920 LINE SMOOTH",
"828 1218 OFFCURVE",
"723 1310 OFFCURVE",
"443 1310 CURVE SMOOTH"
);
}
);
width = 956;
}
);
unicode = 05D7;
},
{
glyphname = "tet-hb";
lastChange = "2013-03-07 05:32:14 +0200";
layers = (
{
anchors = (
{
name = bottom;
position = "{468, 0}";
},
{
name = bottomleft;
position = "{20, 0}";
},
{
name = center;
position = "{468, 512}";
},
{
name = top;
position = "{468, 1024}";
},
{
name = topleft;
position = "{120, 1127}";
}
);
layerId = "2E887DCB-F502-4FE4-8513-1FC10DF56BD7";
name = "Regular Condensed";
paths = (
{
closed = 1;
nodes = (
"443 1310 OFFCURVE",
"406 1303 OFFCURVE",
"387 1299 CURVE",
"387 1170 LINE",
"406 1174 OFFCURVE",
"441 1180 OFFCURVE",
"471 1180 CURVE SMOOTH",
"592 1180 OFFCURVE",
"691 1067 OFFCURVE",
"691 645 CURVE SMOOTH",
"691 221 OFFCURVE",
"592 110 OFFCURVE",
"472 110 CURVE SMOOTH",
"351 110 OFFCURVE",
"251 221 OFFCURVE",
"251 645 CURVE SMOOTH",
"251 1289 LINE",
"94.9999 1289 LINE",
"94.9999 1074 OFFCURVE",
"94.9999 645 OFFCURVE",
"94.9999 645 CURVE",
"94.9999 147 OFFCURVE",
"276 -20 OFFCURVE",
"472 -20 CURVE SMOOTH",
"667 -20 OFFCURVE",
"847 147 OFFCURVE",
"847 645 CURVE SMOOTH",
"847 1042 OFFCURVE",
"736 1310 OFFCURVE",
"482 1310 CURVE SMOOTH"
);
}
);
width = 935;
}
);
unicode = 05D8;
},
{
glyphname = "yod-hb";
lastChange = "2013-03-07 07:34:21 +0200";
layers = (
{
anchors = (
{
name = bottom;
position = "{207, 0}";
},
{
name = bottomleft;
position = "{20, 0}";
},
{
name = center;
position = "{28, 730}";
},
{
name = top;
position = "{207, 1024}";
},
{
name = topleft;
position = "{167, 1127}";
}
);
layerId = "2E887DCB-F502-4FE4-8513-1FC10DF56BD7";
name = "Regular Condensed";
paths = (
{
closed = 1;
nodes = (
"131 1290 LINE",
"131 466 LINE",
"170 466 LINE",
"208 519 OFFCURVE",
"244 572 OFFCURVE",
"282 625 CURVE",
"282 1290 LINE"
);
}
);
width = 414;
}
);
unicode = 05D9;
},
{
glyphname = "finalkaf-hb";
lastChange = "2013-03-07 05:32:14 +0200";
layers = (
{
anchors = (
{
name = bottom;
position = "{53, 360}";
},
{
name = bottomleft;
position = "{20, 0}";
},
{
name = center;
position = "{233, 512}";
},
{
name = top;
position = "{364, 1024}";
},
{
name = topleft;
position = "{100, 1127}";
}
);
layerId = "2E887DCB-F502-4FE4-8513-1FC10DF56BD7";
name = "Regular Condensed";
paths = (
{
closed = 1;
nodes = (
"138 1310 OFFCURVE",
"67 1281 OFFCURVE",
"45 1276 CURVE",
"45 1134 LINE",
"97.9999 1157 OFFCURVE",
"169 1174 OFFCURVE",
"228 1174 CURVE SMOOTH",
"375 1174 OFFCURVE",
"445 1014 OFFCURVE",
"445 726 CURVE SMOOTH",
"445 -492 LINE",
"598 -492 LINE",
"598 726 LINE SMOOTH",
"598 1048 OFFCURVE",
"521 1310 OFFCURVE",
"236 1310 CURVE SMOOTH"
);
}
);
width = 727;
}
);
unicode = 05DA;
},
{
glyphname = "kaf-hb";
lastChange = "2013-03-07 05:32:14 +0200";
layers = (
{
anchors = (
{
name = bottom;
position = "{344, 0}";
},
{
name = bottomleft;
position = "{20, 0}";
},
{
name = center;
position = "{213, 512}";
},
{
name = top;
position = "{344, 1024}";
},
{
name = topleft;
position = "{100, 1127}";
}
);
layerId = "2E887DCB-F502-4FE4-8513-1FC10DF56BD7";
name = "Regular Condensed";
paths = (
{
closed = 1;
nodes = (
"138 1310 OFFCURVE",
"67 1281 OFFCURVE",
"45 1276 CURVE",
"45 1135 LINE",
"108 1159 OFFCURVE",
"169 1174 OFFCURVE",
"228 1174 CURVE SMOOTH",
"375 1174 OFFCURVE",
"443 1014 OFFCURVE",
"443 726 CURVE SMOOTH",
"443 528 LINE SMOOTH",
"443 410 OFFCURVE",
"430 112 OFFCURVE",
"228 112 CURVE SMOOTH",
"133 112 OFFCURVE",
"70 139 OFFCURVE",
"49 145 CURVE",
"49 8 LINE",
"64 3 OFFCURVE",
"148 -20 OFFCURVE",
"236 -20 CURVE SMOOTH",
"539 -20 OFFCURVE",
"598 280 OFFCURVE",
"598 528 CURVE SMOOTH",
"598 726 LINE SMOOTH",
"598 1048 OFFCURVE",
"521 1310 OFFCURVE",
"236 1310 CURVE SMOOTH"
);
}
);
width = 687;
}
);
unicode = 05DB;
},
{
glyphname = "lamed-hb";
lastChange = "2013-03-07 05:32:14 +0200";
layers = (
{
anchors = (
{
name = bottom;
position = "{339, 0}";
},
{
name = bottomleft;
position = "{20, 0}";
},
{
name = center;
position = "{113, 512}";
},
{
name = top;
position = "{339, 1024}";
},
{
name = topleft;
position = "{-73, 1127}";
}
);
layerId = "2E887DCB-F502-4FE4-8513-1FC10DF56BD7";
name = "Regular Condensed";
paths = (
{
closed = 1;
nodes = (
"44 1564 LINE",
"44 1161 LINE",
"494 1161 LINE",
"328 496 LINE",
"308 385 OFFCURVE",
"255 110 OFFCURVE",
"235 0 CURVE",
"385 0 LINE",
"417 168 OFFCURVE",
"449 335 OFFCURVE",
"480 503 CURVE",
"534 722 OFFCURVE",
"587 942 OFFCURVE",
"641 1160 CURVE",
"641 1294 LINE",
"195 1294 LINE",
"195 1564 LINE"
);
}
);
width = 678;
}
);
unicode = 05DC;
},
{
glyphname = "finalmem-hb";
lastChange = "2013-03-07 05:32:14 +0200";
layers = (
{
anchors = (
{
name = bottom;
position = "{478, 0}";
},
{
name = bottomleft;
position = "{20, 0}";
},
{
name = center;
position = "{478, 512}";
},
{
name = top;
position = "{478, 1024}";
},
{
name = topleft;
position = "{167, 1127}";
}
);
layerId = "2E887DCB-F502-4FE4-8513-1FC10DF56BD7";
name = "Regular Condensed";
paths = (
{
closed = 1;
nodes = (
"316 1310 OFFCURVE",
"183 1294 OFFCURVE",
"134 1287 CURVE",
"134 0 LINE",
"828 0 LINE",
"828 929 LINE SMOOTH",
"828 1226 OFFCURVE",
"752 1310 OFFCURVE",
"443 1310 CURVE SMOOTH"
);
},
{
closed = 1;
nodes = (
"630 1181 OFFCURVE",
"676 1148 OFFCURVE",
"676 929 CURVE SMOOTH",
"676 127 LINE",
"286 127 LINE",
"286 1171 LINE",
"334 1177 OFFCURVE",
"392 1181 OFFCURVE",
"430 1181 CURVE SMOOTH"
);
}
);
width = 956;
}
);
unicode = 05DD;
},
{
glyphname = "mem-hb";
lastChange = "2013-03-07 05:32:14 +0200";
layers = (
{
anchors = (
{
name = bottom;
position = "{467, 0}";
},
{
name = bottomleft;
position = "{20, 0}";
},
{
name = center;
position = "{467, 512}";
},
{
name = top;
position = "{467, 1024}";
},
{
name = topleft;
position = "{107, 1127}";
}
);
layerId = "2E887DCB-F502-4FE4-8513-1FC10DF56BD7";
name = "Regular Condensed";
paths = (
{
closed = 1;
nodes = (
"362 1310 OFFCURVE",
"282 1140 OFFCURVE",
"282 1140 CURVE SMOOTH",
"273 1140 LINE",
"264 1179 OFFCURVE",
"234 1273 OFFCURVE",
"227 1290 CURVE",
"76 1290 LINE",
"89 1253 OFFCURVE",
"141 1125 OFFCURVE",
"141 1020 CURVE SMOOTH",
"140 965 OFFCURVE",
"135 910 OFFCURVE",
"130 853 CURVE SMOOTH",
"53 0 LINE",
"205 0 LINE",
"292 963 LINE",
"292 963 OFFCURVE",
"349 1178 OFFCURVE",
"514 1178 CURVE SMOOTH",
"649 1178 OFFCURVE",
"653 999.999 OFFCURVE",
"653 835 CURVE SMOOTH",
"653 127 LINE",
"425 127 LINE",
"425 0 LINE",
"804 0 LINE",
"804 835 LINE SMOOTH",
"804 1039 OFFCURVE",
"792 1310 OFFCURVE",
"545 1310 CURVE SMOOTH"
);
}
);
width = 933;
}
);
unicode = 05DE;
},
{
glyphname = "finalnun-hb";
lastChange = "2013-03-07 05:32:14 +0200";
layers = (
{
anchors = (
{
name = bottom;
position = "{-247, 367}";
},
{
name = bottomleft;
position = "{20, 0}";
},
{
name = center;
position = "{13, 512}";
},
{
name = top;
position = "{212, 1024}";
},
{
name = topleft;
position = "{107, 1127}";
}
);
layerId = "2E887DCB-F502-4FE4-8513-1FC10DF56BD7";
name = "Regular Condensed";
paths = (
{
closed = 1;
nodes = (
"88 1290 LINE SMOOTH",
"88 1290 OFFCURVE",
"140 1099 OFFCURVE",
"140 878 CURVE SMOOTH",
"140 -492 LINE",
"292 -492 LINE",
"292 878 LINE SMOOTH",
"292 1104 OFFCURVE",
"241 1290 OFFCURVE",
"241 1290 CURVE SMOOTH"
);
}
);
width = 424;
}
);
unicode = 05DF;
},
{
glyphname = "nun-hb";
lastChange = "2013-03-07 05:32:14 +0200";
layers = (
{
anchors = (
{
name = bottom;
position = "{309, 0}";
},
{
name = bottomleft;
position = "{20, 0}";
},
{
name = center;
position = "{187, 512}";
},
{
name = top;
position = "{309, 1024}";
},
{
name = topleft;
position = "{133, 1127}";
}
);
layerId = "2E887DCB-F502-4FE4-8513-1FC10DF56BD7";
name = "Regular Condensed";
paths = (
{
closed = 1;
nodes = (
"154 1310 OFFCURVE",
"117 1299 OFFCURVE",
"91 1293 CURVE",
"91 1161 LINE",
"116 1167 OFFCURVE",
"155 1178 OFFCURVE",
"198 1178 CURVE SMOOTH",
"319 1178 OFFCURVE",
"338 1088 OFFCURVE",
"338 987.999 CURVE SMOOTH",
"338 340 LINE SMOOTH",
"338 210 OFFCURVE",
"314 127 OFFCURVE",
"314 127 CURVE SMOOTH",
"40 127 LINE",
"40 0 LINE",
"447 0 LINE",
"447 0 OFFCURVE",
"489 169 OFFCURVE",
"489 340 CURVE SMOOTH",
"489 921 LINE SMOOTH",
"489 1141 OFFCURVE",
"470 1310 OFFCURVE",
"216 1310 CURVE SMOOTH"
);
}
);
width = 617;
}
);
unicode = 05E0;
},
{
glyphname = "samekh-hb";
lastChange = "2013-03-07 05:32:14 +0200";
layers = (
{
anchors = (
{
name = bottom;
position = "{463, 0}";
},
{
name = bottomleft;
position = "{20, 0}";
},
{
name = center;
position = "{463, 512}";
},
{
name = top;
position = "{463, 1024}";
},
{
name = topleft;
position = "{167, 1127}";
}
);
layerId = "2E887DCB-F502-4FE4-8513-1FC10DF56BD7";
name = "Regular Condensed";
paths = (
{
closed = 1;
nodes = (
"295 1310 OFFCURVE",
"158 1296 OFFCURVE",
"105 1291 CURVE",
"105 1162 LINE",
"233 1169 LINE",
"149 1059 OFFCURVE",
"87 886 OFFCURVE",
"87 645 CURVE SMOOTH",
"87 147 OFFCURVE",
"266 -20 OFFCURVE",
"462 -20 CURVE SMOOTH",
"658 -20 OFFCURVE",
"838 147 OFFCURVE",
"838 645 CURVE SMOOTH",
"838 1143 OFFCURVE",
"658 1310 OFFCURVE",
"462 1310 CURVE SMOOTH"
);
},
{
closed = 1;
nodes = (
"583 1178 OFFCURVE",
"682 1069 OFFCURVE",
"682 645 CURVE SMOOTH",
"682 221 OFFCURVE",
"583 111 OFFCURVE",
"462 111 CURVE SMOOTH",
"341 111 OFFCURVE",
"243 221 OFFCURVE",
"243 645 CURVE SMOOTH",
"243 890 OFFCURVE",
"270 1058 OFFCURVE",
"376 1173 CURVE",
"376 1173 OFFCURVE",
"416 1178 OFFCURVE",
"462 1178 CURVE SMOOTH"
);
}
);
width = 926;
}
);
unicode = 05E1;
},
{
glyphname = "ayin-hb";
lastChange = "2013-03-07 05:32:14 +0200";
layers = (
{
anchors = (
{
name = bottom;
position = "{444, 0}";
},
{
name = bottomleft;
position = "{20, 0}";
},
{
name = center;
position = "{500, 580}";
},
{
name = top;
position = "{444, 1024}";
},
{
name = topleft;
position = "{80, 1127}";
}
);
layerId = "2E887DCB-F502-4FE4-8513-1FC10DF56BD7";
name = "Regular Condensed";
paths = (
{
closed = 1;
nodes = (
"67 1290 LINE",
"322 122 LINE",
"238 103 OFFCURVE",
"150 90 OFFCURVE",
"65 76 CURVE",
"65 -52 LINE",
"154 -36 OFFCURVE",
"242 -20 OFFCURVE",
"330 -5 CURVE SMOOTH",
"738 62 OFFCURVE",
"767 413 OFFCURVE",
"797 720 CURVE SMOOTH",
"852 1289 LINE",
"700 1289 LINE",
"681 1095 OFFCURVE",
"664 900 OFFCURVE",
"645 706 CURVE SMOOTH",
"619 448 OFFCURVE",
"570 257 OFFCURVE",
"438 171 CURVE",
"345 706 LINE",
"219 1290 LINE"
);
}
);
width = 888;
}
);
unicode = 05E2;
},
{
glyphname = "finalpe-hb";
lastChange = "2013-03-07 05:32:14 +0200";
layers = (
{
anchors = (
{
name = bottom;
position = "{280, 367}";
},
{
name = bottomleft;
position = "{20, 0}";
},
{
name = center;
position = "{472, 740}";
},
{
name = top;
position = "{472, 1024}";
},
{
name = topleft;
position = "{127, 1127}";
}
);
layerId = "2E887DCB-F502-4FE4-8513-1FC10DF56BD7";
name = "Regular Condensed";
paths = (
{
closed = 1;
nodes = (
"234 1310 OFFCURVE",
"80 1135 OFFCURVE",
"80 857 CURVE SMOOTH",
"80 569 OFFCURVE",
"215 435 OFFCURVE",
"415 436 CURVE",
"443 555 LINE",
"435 556 OFFCURVE",
"429 557 OFFCURVE",
"421 557 CURVE",
"285 565 OFFCURVE",
"229 673 OFFCURVE",
"229 860 CURVE SMOOTH",
"229 969.999 OFFCURVE",
"280 1178 OFFCURVE",
"439 1178 CURVE SMOOTH",
"560 1178 OFFCURVE",
"663 1069 OFFCURVE",
"663 645 CURVE SMOOTH",
"663 -492 LINE",
"815 -492 LINE",
"815 645 LINE SMOOTH",
"815 1143 OFFCURVE",
"635 1310 OFFCURVE",
"439 1310 CURVE SMOOTH"
);
}
);
width = 943;
}
);
unicode = 05E3;
},
{
glyphname = "pe-hb";
lastChange = "2013-03-07 05:32:14 +0200";
layers = (
{
anchors = (
{
name = bottom;
position = "{452, 0}";
},
{
name = bottomleft;
position = "{20, 0}";
},
{
name = center;
position = "{452, 740}";
},
{
name = top;
position = "{452, 1024}";
},
{
name = topleft;
position = "{147, 1127}";
}
);
layerId = "2E887DCB-F502-4FE4-8513-1FC10DF56BD7";
name = "Regular Condensed";
paths = (
{
closed = 1;
nodes = (
"234 1310 OFFCURVE",
"81 1136 OFFCURVE",
"81 857 CURVE SMOOTH",
"81 581 OFFCURVE",
"207 445 OFFCURVE",
"395 438 CURVE",
"416 436 LINE",
"443 556 LINE",
"421 558 LINE",
"278 563 OFFCURVE",
"229 677 OFFCURVE",
"229 857 CURVE SMOOTH",
"229 966 OFFCURVE",
"280 1178 OFFCURVE",
"440 1178 CURVE SMOOTH",
"561 1178 OFFCURVE",
"659 1070 OFFCURVE",
"659 645 CURVE SMOOTH",
"659 221 OFFCURVE",
"549 112 OFFCURVE",
"428 112 CURVE SMOOTH",
"311 112 OFFCURVE",
"178 136 OFFCURVE",
"178 136 CURVE",
"178 3 LINE",
"178 3 OFFCURVE",
"288 -20 OFFCURVE",
"428 -20 CURVE SMOOTH",
"624 -20 OFFCURVE",
"815 147 OFFCURVE",
"815 645 CURVE SMOOTH",
"815 1144 OFFCURVE",
"636 1310 OFFCURVE",
"440 1310 CURVE SMOOTH"
);
}
);
width = 903;
}
);
unicode = 05E4;
},
{
glyphname = "finaltsadi-hb";
lastChange = "2013-03-07 05:32:14 +0200";
layers = (
{
anchors = (
{
name = bottom;
position = "{-180, 367}";
},
{
name = bottomleft;
position = "{20, 0}";
},
{
name = center;
position = "{366, 512}";
},
{
name = top;
position = "{366, 1024}";
},
{
name = topleft;
position = "{56, 1127}";
}
);
layerId = "2E887DCB-F502-4FE4-8513-1FC10DF56BD7";
name = "Regular Condensed";
paths = (
{
closed = 1;
nodes = (
"513 1290 LINE",
"513 835 LINE SMOOTH",
"513 678 OFFCURVE",
"459 598 OFFCURVE",
"358 563 CURVE",
"169 1290 LINE",
"3 1290 LINE",
"201 558 LINE",
"201 -492 LINE",
"357 -492 LINE",
"357 441 LINE",
"357 441 OFFCURVE",
"356 441 OFFCURVE",
"356 441 CURVE",
"605 477 OFFCURVE",
"664 673 OFFCURVE",
"664 835 CURVE SMOOTH",
"664 1290 LINE"
);
}
);
width = 731;
}
);
unicode = 05E5;
},
{
glyphname = "tsadi-hb";
lastChange = "2013-03-07 05:32:14 +0200";
layers = (
{
anchors = (
{
name = bottom;
position = "{419, 0}";
},
{
name = bottomleft;
position = "{20, 0}";
},
{
name = center;
position = "{167, 427}";
},
{
name = top;
position = "{419, 1024}";
},
{
name = topleft;
position = "{127, 1127}";
}
);
layerId = "2E887DCB-F502-4FE4-8513-1FC10DF56BD7";
name = "Regular Condensed";
paths = (
{
closed = 1;
nodes = (
"58 1290 LINE",
"394 480 LINE",
"576 123 LINE",
"576 123 OFFCURVE",
"576 122 OFFCURVE",
"576 122 CURVE SMOOTH",
"401 127 LINE",
"61 127 LINE",
"61 0 LINE",
"747 0 LINE",
"747 80 LINE",
"555 481 LINE",
"694 616 OFFCURVE",
"726 802 OFFCURVE",
"752 1073 CURVE SMOOTH",
"773 1289 LINE",
"621 1289 LINE",
"592 988.999 LINE SMOOTH",
"577 829 OFFCURVE",
"552 674 OFFCURVE",
"489 605 CURVE",
"217 1290 LINE"
);
}
);
width = 837;
}
);
unicode = 05E6;
},
{
glyphname = "qof-hb";
lastChange = "2013-03-07 05:32:14 +0200";
layers = (
{
anchors = (
{
name = bottom;
position = "{710, 0}";
},
{
name = bottomleft;
position = "{20, 0}";
},
{
name = center;
position = "{415, 550}";
},
{
name = top;
position = "{460, 1024}";
},
{
name = topleft;
position = "{167, 1127}";
}
);
layerId = "2E887DCB-F502-4FE4-8513-1FC10DF56BD7";
name = "Regular Condensed";
paths = (
{
closed = 1;
nodes = (
"141 1290 LINE",
"141 1162 LINE",
"699 1162 LINE",
"648 977.999 OFFCURVE",
"540 567 OFFCURVE",
"540 567 CURVE",
"481 351 OFFCURVE",
"419 139 OFFCURVE",
"419 22 CURVE SMOOTH",
"419 0 LINE",
"568 0 LINE",
"568 22 LINE SMOOTH",
"568 131 OFFCURVE",
"639 380 OFFCURVE",
"690 567 CURVE SMOOTH",
"857 1178 LINE",
"857 1290 LINE"
);
},
{
closed = 1;
nodes = (
"142 763 LINE",
"142 -492 LINE",
"293 -492 LINE",
"293 763 LINE"
);
}
);
width = 920;
}
);
unicode = 05E7;
},
{
glyphname = "resh-hb";
lastChange = "2013-03-07 05:32:14 +0200";
layers = (
{
anchors = (
{
name = bottom;
position = "{520, 0}";
},
{
name = bottomleft;
position = "{20, 0}";
},
{
name = center;
position = "{247, 512}";
},
{
name = top;
position = "{360, 1024}";
},
{
name = topleft;
position = "{80, 1127}";
}
);
layerId = "2E887DCB-F502-4FE4-8513-1FC10DF56BD7";
name = "Regular Condensed";
paths = (
{
closed = 1;
nodes = (
"123 1310 OFFCURVE",
"58 1301 OFFCURVE",
"29 1298 CURVE",
"29 1168 LINE",
"59 1171 OFFCURVE",
"129 1180 OFFCURVE",
"215 1180 CURVE SMOOTH",
"397 1180 OFFCURVE",
"439 1133 OFFCURVE",
"439 920 CURVE SMOOTH",
"439 0 LINE",
"591 0 LINE",
"591 920 LINE SMOOTH",
"591 1218 OFFCURVE",
"510 1310 OFFCURVE",
"228 1310 CURVE SMOOTH"
);
}
);
width = 719;
}
);
unicode = 05E8;
},
{
glyphname = "shin-hb";
lastChange = "2013-03-07 05:32:14 +0200";
layers = (
{
anchors = (
{
name = bottom;
position = "{564, 0}";
},
{
name = bottomleft;
position = "{20, 0}";
},
{
name = center;
position = "{560, 300}";
},
{
name = top;
position = "{564, 1024}";
},
{
name = topleft;
position = "{107, 1127}";
},
{
name = topright;
position = "{1011, 1127}";
}
);
layerId = "2E887DCB-F502-4FE4-8513-1FC10DF56BD7";
name = "Regular Condensed";
paths = (
{
closed = 1;
nodes = (
"922 1290 LINE",
"870 727 LINE SMOOTH",
"838 379 OFFCURVE",
"656 129 OFFCURVE",
"361 129 CURVE SMOOTH",
"307 129 LINE",
"280 455 LINE",
"532 517 OFFCURVE",
"602 689 OFFCURVE",
"626 961 CURVE SMOOTH",
"655 1290 LINE",
"512 1290 LINE",
"483 960 LINE SMOOTH",
"463 728 OFFCURVE",
"403 629 OFFCURVE",
"269 580 CURVE",
"210 1290 LINE",
"64 1290 LINE",
"171 0 LINE",
"361 0 LINE SMOOTH",
"855 0 OFFCURVE",
"986.999 434 OFFCURVE",
"1014 727 CURVE SMOOTH",
"1066 1290 LINE"
);
}
);
width = 1128;
}
);
unicode = 05E9;
},
{
glyphname = "tav-hb";
lastChange = "2013-03-07 05:32:14 +0200";
layers = (
{
anchors = (
{
name = bottom;
position = "{474, 0}";
},
{
name = bottomleft;
position = "{20, 0}";
},
{
name = center;
position = "{474, 512}";
},
{
name = top;
position = "{474, 1024}";
},
{
name = topleft;
position = "{107, 1127}";
}
);
layerId = "2E887DCB-F502-4FE4-8513-1FC10DF56BD7";
name = "Regular Condensed";
paths = (
{
closed = 1;
nodes = (
"252 1310 OFFCURVE",
"107 1283 OFFCURVE",
"71 1279 CURVE",
"71 1150 LINE",
"99.9999 1154 OFFCURVE",
"128 1158 OFFCURVE",
"157 1161 CURVE",
"157 256 LINE SMOOTH",
"157 176 OFFCURVE",
"136 130 OFFCURVE",
"74 130 CURVE SMOOTH",
"50 130 OFFCURVE",
"37 136 OFFCURVE",
"21 139 CURVE",
"21 7 LINE",
"34 4 OFFCURVE",
"76 -6 OFFCURVE",
"114 -6 CURVE SMOOTH",
"272 -6 OFFCURVE",
"309 90 OFFCURVE",
"309 353 CURVE SMOOTH",
"309 1175 LINE",
"374 1179 OFFCURVE",
"374 1180 OFFCURVE",
"435 1180 CURVE SMOOTH",
"594 1180 OFFCURVE",
"665 1137 OFFCURVE",
"665 918 CURVE SMOOTH",
"665 0 LINE",
"816 0 LINE",
"816 918 LINE SMOOTH",
"816 1123 OFFCURVE",
"769 1310 OFFCURVE",
"448 1310 CURVE SMOOTH"
);
}
);
width = 948;
}
);
unicode = 05EA;
},
{
glyphname = zero;
lastChange = "2013-03-07 05:32:14 +0200";
layers = (
{
layerId = "2E887DCB-F502-4FE4-8513-1FC10DF56BD7";
name = "Regular Condensed";
paths = (
{
closed = 1;
nodes = (
"194 1483 OFFCURVE",
"83 1244 OFFCURVE",
"83 732 CURVE SMOOTH",
"83 197 OFFCURVE",
"183 -20 OFFCURVE",
"428 -20 CURVE SMOOTH",
"665 -20 OFFCURVE",
"776 221 OFFCURVE",
"776 732 CURVE SMOOTH",
"776 1248 OFFCURVE",
"672 1483 OFFCURVE",
"430 1483 CURVE SMOOTH"
);
},
{
closed = 1;
nodes = (
"558 1344 OFFCURVE",
"618 1160 OFFCURVE",
"618 732 CURVE SMOOTH",
"618 276 OFFCURVE",
"551 119 OFFCURVE",
"429 119 CURVE SMOOTH",
"294 119 OFFCURVE",
"241 298 OFFCURVE",
"241 732 CURVE SMOOTH",
"241 1164 OFFCURVE",
"294 1344 OFFCURVE",
"429 1344 CURVE SMOOTH"
);
}
);
width = 862;
}
);
unicode = 0030;
},
{
glyphname = one;
lastChange = "2013-03-07 05:32:13 +0200";
layers = (
{
layerId = "2E887DCB-F502-4FE4-8513-1FC10DF56BD7";
name = "Regular Condensed";
paths = (
{
closed = 1;
nodes = (
"450 1462 LINE",
"133 1169 LINE",
"217 1072 LINE",
"246 1101 OFFCURVE",
"348 1198 OFFCURVE",
"358 1209 CURVE",
"402 1254 OFFCURVE",
"430 1284 OFFCURVE",
"441 1299 CURVE",
"435 1192 OFFCURVE",
"431 1092 OFFCURVE",
"431 1003 CURVE SMOOTH",
"431 0 LINE",
"584 0 LINE",
"584 1462 LINE"
);
}
);
width = 862;
}
);
unicode = 0031;
},
{
glyphname = two;
lastChange = "2013-03-07 05:32:13 +0200";
layers = (
{
layerId = "2E887DCB-F502-4FE4-8513-1FC10DF56BD7";
name = "Regular Condensed";
paths = (
{
closed = 1;
nodes = (
"277 1483 OFFCURVE",
"191 1449 OFFCURVE",
"83 1349 CURVE",
"112 1315 OFFCURVE",
"139 1280 OFFCURVE",
"168 1246 CURVE",
"244 1314 OFFCURVE",
"305 1342 OFFCURVE",
"392 1342 CURVE SMOOTH",
"520 1342 OFFCURVE",
"585 1225 OFFCURVE",
"585 1115 CURVE SMOOTH",
"585 907 OFFCURVE",
"527 791 OFFCURVE",
"357 539 CURVE SMOOTH",
"74 119 LINE",
"74 0 LINE",
"771 0 LINE",
"771 140 LINE",
"249 140 LINE",
"249 148 LINE",
"385 339 OFFCURVE",
"542 555 OFFCURVE",
"604 666 CURVE",
"703 827 OFFCURVE",
"739 963 OFFCURVE",
"739 1120 CURVE SMOOTH",
"739 1340 OFFCURVE",
"614 1483 OFFCURVE",
"401 1483 CURVE SMOOTH"
);
}
);
width = 862;
}
);
unicode = 0032;
},
{
glyphname = three;
lastChange = "2013-03-07 05:32:13 +0200";
layers = (
{
layerId = "2E887DCB-F502-4FE4-8513-1FC10DF56BD7";
name = "Regular Condensed";
paths = (
{
closed = 1;
nodes = (
"272 1483 OFFCURVE",
"170 1442 OFFCURVE",
"71 1345 CURVE",
"153 1242 LINE",
"236 1321 OFFCURVE",
"303 1347 OFFCURVE",
"390 1347 CURVE SMOOTH",
"514 1347 OFFCURVE",
"585 1260 OFFCURVE",
"585 1110 CURVE SMOOTH",
"585 934 OFFCURVE",
"480 819 OFFCURVE",
"312 819 CURVE SMOOTH",
"232 819 LINE",
"232 690 LINE",
"309 690 LINE SMOOTH",
"507 690 OFFCURVE",
"608 579 OFFCURVE",
"608 409 CURVE SMOOTH",
"608 218 OFFCURVE",
"517 113 OFFCURVE",
"358 113 CURVE SMOOTH",
"259 113 OFFCURVE",
"162 140 OFFCURVE",
"77 191 CURVE",
"77 38 LINE",
"154 0 OFFCURVE",
"251 -20 OFFCURVE",
"369 -20 CURVE SMOOTH",
"615 -20 OFFCURVE",
"764 147 OFFCURVE",
"764 403 CURVE SMOOTH",
"764 598 OFFCURVE",
"665 726 OFFCURVE",
"495 759 CURVE",
"495 767 LINE",
"656 822 OFFCURVE",
"739 952 OFFCURVE",
"739 1135 CURVE SMOOTH",
"739 1344 OFFCURVE",
"607 1483 OFFCURVE",
"399 1483 CURVE SMOOTH"
);
}
);
width = 862;
}
);
unicode = 0033;
},
{
glyphname = four;
lastChange = "2013-03-07 05:32:14 +0200";
layers = (
{
layerId = "2E887DCB-F502-4FE4-8513-1FC10DF56BD7";
name = "Regular Condensed";
paths = (
{
closed = 1;
nodes = (
"503 1473 LINE",
"37 452 LINE",
"37 323 LINE",
"532 323 LINE",
"532 0 LINE",
"680 0 LINE",
"680 323 LINE",
"834 323 LINE",
"834 458 LINE",
"680 458 LINE",
"680 1473 LINE"
);
},
{
closed = 1;
nodes = (
"534 1169 OFFCURVE",
"532 1053 OFFCURVE",
"532 938 CURVE SMOOTH",
"532 458 LINE",
"179 458 LINE",
"423 1004 LINE SMOOTH",
"462 1095 OFFCURVE",
"500 1184 OFFCURVE",
"534 1280 CURVE",
"541 1280 LINE"
);
}
);
width = 862;
}
);
unicode = 0034;
},
{
glyphname = five;
lastChange = "2013-03-07 05:32:13 +0200";
layers = (
{
layerId = "2E887DCB-F502-4FE4-8513-1FC10DF56BD7";
name = "Regular Condensed";
paths = (
{
closed = 1;
nodes = (
"154 1462 LINE",
"110 791 LINE",
"172 727 LINE",
"240 747 OFFCURVE",
"305 758 OFFCURVE",
"369 758 CURVE SMOOTH",
"524 758 OFFCURVE",
"613 660 OFFCURVE",
"613 462 CURVE SMOOTH",
"616 248 OFFCURVE",
"488 120 OFFCURVE",
"299 125 CURVE SMOOTH",
"224 127 OFFCURVE",
"155 156 OFFCURVE",
"94.9999 198 CURVE",
"94.9999 41 LINE",
"161 0 OFFCURVE",
"250 -20 OFFCURVE",
"361 -20 CURVE SMOOTH",
"651 -14 OFFCURVE",
"769 219 OFFCURVE",
"771 472 CURVE",
"769 705 OFFCURVE",
"651 885 OFFCURVE",
"414 888 CURVE SMOOTH",
"360 888 OFFCURVE",
"307 882 OFFCURVE",
"254 870 CURVE",
"285 1319 LINE",
"692 1319 LINE",
"692 1462 LINE"
);
}
);
width = 862;
}
);
unicode = 0035;
},
{
glyphname = six;
lastChange = "2013-03-07 05:32:14 +0200";
layers = (
{
layerId = "2E887DCB-F502-4FE4-8513-1FC10DF56BD7";
name = "Regular Condensed";
paths = (
{
closed = 1;
nodes = (
"248 1482 OFFCURVE",
"91 1212 OFFCURVE",
"91 622 CURVE SMOOTH",
"91 203 OFFCURVE",
"212 -20 OFFCURVE",
"438 -20 CURVE SMOOTH",
"645 -20 OFFCURVE",
"776 162 OFFCURVE",
"776 460 CURVE SMOOTH",
"776 743 OFFCURVE",
"664 916 OFFCURVE",
"477 916 CURVE SMOOTH",
"373 916 OFFCURVE",
"291 856 OFFCURVE",
"246 752 CURVE",
"237 752 LINE",
"249 1160 OFFCURVE",
"361 1344 OFFCURVE",
"563 1344 CURVE SMOOTH",
"612 1344 OFFCURVE",
"657 1337 OFFCURVE",
"698 1322 CURVE",
"698 1461 LINE",
"666 1474 OFFCURVE",
"615 1482 OFFCURVE",
"561 1482 CURVE SMOOTH"
);
},
{
closed = 1;
nodes = (
"560 782 OFFCURVE",
"622 664 OFFCURVE",
"622 456 CURVE SMOOTH",
"622 228 OFFCURVE",
"555 118 OFFCURVE",
"440 118 CURVE SMOOTH",
"329 118 OFFCURVE",
"248 262 OFFCURVE",
"248 519 CURVE SMOOTH",
"248 669 OFFCURVE",
"323 782 OFFCURVE",
"440 782 CURVE SMOOTH"
);
}
);
width = 862;
}
);
unicode = 0036;
},
{
glyphname = seven;
lastChange = "2013-03-07 05:32:13 +0200";
layers = (
{
layerId = "2E887DCB-F502-4FE4-8513-1FC10DF56BD7";
name = "Regular Condensed";
paths = (
{
closed = 1;
nodes = (
"65 1461 LINE",
"65 1319 LINE",
"630 1319 LINE",
"190 0 LINE",
"351 0 LINE",
"786 1346 LINE",
"786 1461 LINE"
);
}
);
width = 862;
}
);
unicode = 0037;
},
{
glyphname = eight;
lastChange = "2013-03-07 05:32:14 +0200";
layers = (
{
layerId = "2E887DCB-F502-4FE4-8513-1FC10DF56BD7";
name = "Regular Condensed";
paths = (
{
closed = 1;
nodes = (
"241 1482 OFFCURVE",
"103 1343 OFFCURVE",
"103 1135 CURVE SMOOTH",
"103 990.999 OFFCURVE",
"168 869 OFFCURVE",
"308 762 CURVE",
"139 651 OFFCURVE",
"72 528 OFFCURVE",
"72 356 CURVE SMOOTH",
"72 128 OFFCURVE",
"215 -20 OFFCURVE",
"439 -20 CURVE SMOOTH",
"649 -20 OFFCURVE",
"791 142 OFFCURVE",
"791 367 CURVE SMOOTH",
"791 533 OFFCURVE",
"715 640 OFFCURVE",
"532 765 CURVE",
"689 862 OFFCURVE",
"762 984.999 OFFCURVE",
"762 1138 CURVE SMOOTH",
"762 1349 OFFCURVE",
"631 1482 OFFCURVE",
"432 1482 CURVE SMOOTH"
);
},
{
closed = 1;
nodes = (
"452 669 LINE SMOOTH",
"583 576 OFFCURVE",
"637 477 OFFCURVE",
"637 372 CURVE SMOOTH",
"637 213 OFFCURVE",
"560 110 OFFCURVE",
"432 110 CURVE SMOOTH",
"306 110 OFFCURVE",
"225 208 OFFCURVE",
"225 360 CURVE SMOOTH",
"225 516 OFFCURVE",
"278 607 OFFCURVE",
"414 696 CURVE"
);
},
{
closed = 1;
nodes = (
"544 1352 OFFCURVE",
"608 1271 OFFCURVE",
"608 1129 CURVE SMOOTH",
"608 1008 OFFCURVE",
"557 915 OFFCURVE",
"431 834 CURVE",
"299 927 OFFCURVE",
"256 1004 OFFCURVE",
"256 1129 CURVE SMOOTH",
"256 1270 OFFCURVE",
"321 1352 OFFCURVE",
"430 1352 CURVE SMOOTH"
);
}
);
width = 862;
}
);
unicode = 0038;
},
{
glyphname = nine;
lastChange = "2013-03-07 05:32:14 +0200";
layers = (
{
layerId = "2E887DCB-F502-4FE4-8513-1FC10DF56BD7";
name = "Regular Condensed";
paths = (
{
closed = 1;
nodes = (
"210 1482 OFFCURVE",
"77 1301 OFFCURVE",
"77 999.999 CURVE SMOOTH",
"77 722 OFFCURVE",
"188 544 OFFCURVE",
"376 544 CURVE SMOOTH",
"481 544 OFFCURVE",
"562 606 OFFCURVE",
"607 708 CURVE",
"615 708 LINE",
"602 318 OFFCURVE",
"487 116 OFFCURVE",
"284 116 CURVE SMOOTH",
"231 116 OFFCURVE",
"185 124 OFFCURVE",
"145 139 CURVE",
"145 0 LINE",
"171 -9 OFFCURVE",
"239 -20 OFFCURVE",
"288 -20 CURVE SMOOTH",
"600 -20 OFFCURVE",
"762 270 OFFCURVE",
"762 847 CURVE SMOOTH",
"762 1257 OFFCURVE",
"644 1482 OFFCURVE",
"421 1482 CURVE SMOOTH"
);
},
{
closed = 1;
nodes = (
"527 1342 OFFCURVE",
"606 1199 OFFCURVE",
"606 957 CURVE SMOOTH",
"606 798 OFFCURVE",
"527 678 OFFCURVE",
"412 678 CURVE SMOOTH",
"292 678 OFFCURVE",
"232 795 OFFCURVE",
"232 1005 CURVE SMOOTH",
"232 1233 OFFCURVE",
"303 1342 OFFCURVE",
"418 1342 CURVE SMOOTH"
);
}
);
width = 862;
}
);
unicode = 0039;
},
{
glyphname = fraction;
lastChange = "2013-03-07 05:32:14 +0200";
layers = (
{
layerId = "2E887DCB-F502-4FE4-8513-1FC10DF56BD7";
name = "Regular Condensed";
paths = (
{
closed = 1;
nodes = (
"437 1462 LINE",
"-322 0 LINE",
"-193 0 LINE",
"566 1462 LINE"
);
}
);
width = 245;
}
);
unicode = 2044;
},
{
glyphname = onehalf;
lastChange = "2013-03-07 05:32:14 +0200";
layers = (
{
layerId = "2E887DCB-F502-4FE4-8513-1FC10DF56BD7";
name = "Regular Condensed";
paths = (
{
closed = 1;
nodes = (
"1019 1462 LINE",
"260 0 LINE",
"389 0 LINE",
"1148 1462 LINE"
);
},
{
closed = 1;
nodes = (
"303 1462 LINE",
"54 1271 LINE",
"117 1189 LINE",
"223 1268 OFFCURVE",
"248 1287 OFFCURVE",
"293 1332 CURVE",
"286 1244 OFFCURVE",
"286 1154 OFFCURVE",
"286 1067 CURVE SMOOTH",
"286 586 LINE",
"408 586 LINE",
"408 1462 LINE"
);
},
{
closed = 1;
nodes = (
"1042 898 OFFCURVE",
"961 860 OFFCURVE",
"891 784 CURVE",
"914 755 OFFCURVE",
"938 726 OFFCURVE",
"962 697 CURVE",
"1015 753 OFFCURVE",
"1069 781 OFFCURVE",
"1125 781 CURVE SMOOTH",
"1201 781 OFFCURVE",
"1249 727 OFFCURVE",
"1249 654 CURVE SMOOTH",
"1249 546 OFFCURVE",
"1219 498 OFFCURVE",
"1076 327 CURVE SMOOTH",
"1014 253 OFFCURVE",
"952 179 OFFCURVE",
"891 105 CURVE",
"891 0.999999 LINE",
"1394 0.999999 LINE",
"1394 117 LINE",
"1039 117 LINE",
"1176 280 OFFCURVE",
"1305 429 OFFCURVE",
"1339 498 CURVE SMOOTH",
"1364 549 OFFCURVE",
"1377 603 OFFCURVE",
"1377 660 CURVE SMOOTH",
"1377 807 OFFCURVE",
"1287 898 OFFCURVE",
"1134 898 CURVE SMOOTH"
);
}
);
width = 1485;
}
);
unicode = 00BD;
},
{
glyphname = onequarter;
lastChange = "2013-03-07 05:32:14 +0200";
layers = (
{
layerId = "2E887DCB-F502-4FE4-8513-1FC10DF56BD7";
name = "Regular Condensed";
paths = (
{
closed = 1;
nodes = (
"1035 1462 LINE",
"276 0 LINE",
"404 0 LINE",
"1164 1462 LINE"
);
},
{
closed = 1;
nodes = (
"302 1462 LINE",
"54 1271 LINE",
"117 1189 LINE",
"220 1268 OFFCURVE",
"249 1287 OFFCURVE",
"292 1332 CURVE",
"286 1243 OFFCURVE",
"287 1154 OFFCURVE",
"285 1067 CURVE SMOOTH",
"285 586 LINE",
"408 586 LINE",
"408 1462 LINE"
);
},
{
closed = 1;
nodes = (
"1141 883 LINE",
"1027 683 OFFCURVE",
"912 484 OFFCURVE",
"798 285 CURVE",
"798 193 LINE",
"1136 193 LINE",
"1136 0.999999 LINE",
"1258 0.999999 LINE",
"1258 193 LINE",
"1362 193 LINE",
"1362 301 LINE",
"1258 301 LINE",
"1258 883 LINE"
);
},
{
closed = 1;
nodes = (
"1138 686 OFFCURVE",
"1137 634 OFFCURVE",
"1136 566 CURVE SMOOTH",
"1136 301 LINE",
"918 301 LINE",
"1055 543 OFFCURVE",
"1124 684 OFFCURVE",
"1140 721 CURVE"
);
}
);
width = 1485;
}
);
unicode = 00BC;
},
{
glyphname = threequarters;
lastChange = "2013-03-07 05:32:14 +0200";
layers = (
{
layerId = "2E887DCB-F502-4FE4-8513-1FC10DF56BD7";
name = "Regular Condensed";
paths = (
{
closed = 1;
nodes = (
"1074 1462 LINE",
"315 0 LINE",
"443 0 LINE",
"697 487 OFFCURVE",
"950 974.999 OFFCURVE",
"1203 1462 CURVE"
);
},
{
closed = 1;
nodes = (
"203 1483 OFFCURVE",
"127 1454 OFFCURVE",
"51 1388 CURVE",
"73 1358 OFFCURVE",
"92.9999 1328 OFFCURVE",
"115 1298 CURVE",
"169 1348 OFFCURVE",
"220 1372 OFFCURVE",
"277 1372 CURVE SMOOTH",
"361 1372 OFFCURVE",
"409 1326 OFFCURVE",
"409 1248 CURVE SMOOTH",
"409 1150 OFFCURVE",
"349 1092 OFFCURVE",
"241 1092 CURVE SMOOTH",
"170 1092 LINE",
"170 987.999 LINE",
"243 987.999 LINE SMOOTH",
"368 987.999 OFFCURVE",
"432 931 OFFCURVE",
"432 827 CURVE SMOOTH",
"432 735 OFFCURVE",
"380 679 OFFCURVE",
"266 679 CURVE SMOOTH",
"193 679 OFFCURVE",
"123 698 OFFCURVE",
"57 738 CURVE",
"57 616 LINE",
"120 584 OFFCURVE",
"191 569 OFFCURVE",
"270 569 CURVE SMOOTH",
"447 569 OFFCURVE",
"556 672 OFFCURVE",
"556 822 CURVE SMOOTH",
"556 934 OFFCURVE",
"501 1012 OFFCURVE",
"387 1042 CURVE",
"387 1052 LINE",
"478 1085 OFFCURVE",
"529 1156 OFFCURVE",
"529 1253 CURVE SMOOTH",
"529 1394 OFFCURVE",
"438 1483 OFFCURVE",
"289 1483 CURVE SMOOTH"
);
},
{
closed = 1;
nodes = (
"1169 883 LINE",
"1055 683 OFFCURVE",
"940 484 OFFCURVE",
"826 285 CURVE",
"826 193 LINE",
"1164 193 LINE",
"1164 0.999999 LINE",
"1286 0.999999 LINE",
"1286 193 LINE",
"1390 193 LINE",
"1390 301 LINE",
"1286 301 LINE",
"1286 883 LINE"
);
},
{
closed = 1;
nodes = (
"1166 686 OFFCURVE",
"1165 634 OFFCURVE",
"1164 566 CURVE SMOOTH",
"1164 301 LINE",
"946 301 LINE",
"1083 543 OFFCURVE",
"1152 684 OFFCURVE",
"1168 721 CURVE"
);
}
);
width = 1485;
}
);
unicode = 00BE;
},
{
glyphname = onesuperior;
lastChange = "2013-03-07 05:32:13 +0200";
layers = (
{
layerId = "2E887DCB-F502-4FE4-8513-1FC10DF56BD7";
name = "Regular Condensed";
paths = (
{
closed = 1;
nodes = (
"325 1462 LINE",
"76 1271 LINE",
"139 1189 LINE",
"245 1268 OFFCURVE",
"270 1287 OFFCURVE",
"315 1332 CURVE",
"308 1244 OFFCURVE",
"308 1154 OFFCURVE",
"308 1067 CURVE SMOOTH",
"308 586 LINE",
"430 586 LINE",
"430 1462 LINE"
);
}
);
width = 638;
}
);
unicode = 00B9;
},
{
glyphname = twosuperior;
lastChange = "2013-03-07 05:32:13 +0200";
layers = (
{
layerId = "2E887DCB-F502-4FE4-8513-1FC10DF56BD7";
name = "Regular Condensed";
paths = (
{
closed = 1;
nodes = (
"201 1483 OFFCURVE",
"120 1445 OFFCURVE",
"50 1369 CURVE",
"73 1340 OFFCURVE",
"96.9999 1311 OFFCURVE",
"121 1282 CURVE",
"174 1338 OFFCURVE",
"228 1366 OFFCURVE",
"284 1366 CURVE SMOOTH",
"360 1366 OFFCURVE",
"408 1312 OFFCURVE",
"408 1239 CURVE SMOOTH",
"408 1131 OFFCURVE",
"378 1083 OFFCURVE",
"235 912 CURVE SMOOTH",
"173 838 OFFCURVE",
"111 764 OFFCURVE",
"50 690 CURVE",
"50 586 LINE",
"553 586 LINE",
"553 702 LINE",
"198 702 LINE",
"335 865 OFFCURVE",
"464 1014 OFFCURVE",
"498 1083 CURVE SMOOTH",
"523 1134 OFFCURVE",
"536 1188 OFFCURVE",
"536 1245 CURVE SMOOTH",
"536 1392 OFFCURVE",
"446 1483 OFFCURVE",
"293 1483 CURVE SMOOTH"
);
}
);
width = 638;
}
);
unicode = 00B2;
},
{
glyphname = threesuperior;
lastChange = "2013-03-07 05:32:13 +0200";
layers = (
{
layerId = "2E887DCB-F502-4FE4-8513-1FC10DF56BD7";
name = "Regular Condensed";
paths = (
{
closed = 1;
nodes = (
"202 1483 OFFCURVE",
"125 1454 OFFCURVE",
"50 1388 CURVE",
"71 1358 OFFCURVE",
"92 1328 OFFCURVE",
"114 1298 CURVE",
"168 1348 OFFCURVE",
"219 1372 OFFCURVE",
"276 1372 CURVE SMOOTH",
"360 1372 OFFCURVE",
"408 1326 OFFCURVE",
"408 1248 CURVE SMOOTH",
"408 1150 OFFCURVE",
"348 1092 OFFCURVE",
"240 1092 CURVE SMOOTH",
"169 1092 LINE",
"169 987.999 LINE",
"242 987.999 LINE SMOOTH",
"367 987.999 OFFCURVE",
"430 931 OFFCURVE",
"430 827 CURVE SMOOTH",
"430 735 OFFCURVE",
"378 679 OFFCURVE",
"265 679 CURVE SMOOTH",
"191 679 OFFCURVE",
"121 698 OFFCURVE",
"56 738 CURVE",
"56 616 LINE",
"119 584 OFFCURVE",
"190 569 OFFCURVE",
"268 569 CURVE SMOOTH",
"445 569 OFFCURVE",
"555 671 OFFCURVE",
"555 822 CURVE SMOOTH",
"555 934 OFFCURVE",
"500 1012 OFFCURVE",
"386 1042 CURVE",
"386 1052 LINE",
"477 1085 OFFCURVE",
"527 1156 OFFCURVE",
"527 1253 CURVE SMOOTH",
"527 1395 OFFCURVE",
"435 1483 OFFCURVE",
"288 1483 CURVE SMOOTH"
);
}
);
width = 638;
}
);
unicode = 00B3;
},
{
glyphname = asterisk;
lastChange = "2013-03-07 05:32:13 +0200";
layers = (
{
layerId = "2E887DCB-F502-4FE4-8513-1FC10DF56BD7";
name = "Regular Condensed";
paths = (
{
closed = 1;
nodes = (
"327 1556 LINE",
"357 1288 LINE",
"104 1353 LINE",
"80 1208 LINE",
"321 1197 LINE",
"161 964 LINE",
"290 896 LINE",
"407 1142 LINE",
"522 898 LINE",
"653 964 LINE",
"487 1197 LINE",
"733 1208 LINE",
"713 1354 LINE",
"456 1288 LINE",
"487 1556 LINE"
);
}
);
width = 813;
}
);
unicode = 002A;
},
{
glyphname = backslash;
lastChange = "2013-03-07 05:32:13 +0200";
layers = (
{
layerId = "2E887DCB-F502-4FE4-8513-1FC10DF56BD7";
name = "Regular Condensed";
paths = (
{
closed = 1;
nodes = (
"39 1462 LINE",
"568 0 LINE",
"721 0 LINE",
"188 1462 LINE"
);
}
);
width = 751;
}
);
unicode = 005C;
},
{
glyphname = bullet;
lastChange = "2013-03-07 05:32:13 +0200";
layers = (
{
layerId = "2E887DCB-F502-4FE4-8513-1FC10DF56BD7";
name = "Regular Condensed";
paths = (
{
closed = 1;
nodes = (
"229 1011 OFFCURVE",
"145 920 OFFCURVE",
"145 748 CURVE SMOOTH",
"145 578 OFFCURVE",
"231 484 OFFCURVE",
"382 484 CURVE SMOOTH",
"532 484 OFFCURVE",
"618 579 OFFCURVE",
"618 748 CURVE SMOOTH",
"618 920 OFFCURVE",
"533 1011 OFFCURVE",
"382 1011 CURVE SMOOTH"
);
}
);
width = 763;
}
);
unicode = 2022;
},
{
glyphname = colon;
lastChange = "2013-03-07 05:32:14 +0200";
layers = (
{
layerId = "2E887DCB-F502-4FE4-8513-1FC10DF56BD7";
name = "Regular Condensed";
paths = (
{
closed = 1;
nodes = (
"162 231 OFFCURVE",
"126 187 OFFCURVE",
"126 106 CURVE SMOOTH",
"126 24 OFFCURVE",
"162 -20 OFFCURVE",
"232 -20 CURVE SMOOTH",
"296 -20 OFFCURVE",
"339 20 OFFCURVE",
"339 106 CURVE SMOOTH",
"339 193 OFFCURVE",
"297 231 OFFCURVE",
"232 231 CURVE SMOOTH"
);
},
{
closed = 1;
nodes = (
"162 1103 OFFCURVE",
"126 1060 OFFCURVE",
"126 977.999 CURVE SMOOTH",
"126 897 OFFCURVE",
"162 853 OFFCURVE",
"232 853 CURVE SMOOTH",
"296 853 OFFCURVE",
"339 893 OFFCURVE",
"339 977.999 CURVE SMOOTH",
"339 1061 OFFCURVE",
"303 1103 OFFCURVE",
"232 1103 CURVE SMOOTH"
);
}
);
width = 465;
}
);
unicode = 003A;
},
{
glyphname = comma;
lastChange = "2013-03-07 05:32:13 +0200";
layers = (
{
layerId = "2E887DCB-F502-4FE4-8513-1FC10DF56BD7";
name = "Regular Condensed";
paths = (
{
closed = 1;
nodes = (
"169 216 LINE",
"150 68 OFFCURVE",
"117 -92 OFFCURVE",
"69 -264 CURVE",
"178 -264 LINE",
"251 -104 OFFCURVE",
"307 48 OFFCURVE",
"348 193 CURVE",
"334 216 LINE"
);
}
);
width = 465;
}
);
unicode = 002C;
},
{
glyphname = ellipsis;
lastChange = "2013-03-07 05:32:14 +0200";
layers = (
{
layerId = "2E887DCB-F502-4FE4-8513-1FC10DF56BD7";
name = "Regular Condensed";
paths = (
{
closed = 1;
nodes = (
"1092 231 OFFCURVE",
"1056 187 OFFCURVE",
"1056 106 CURVE SMOOTH",
"1056 24 OFFCURVE",
"1092 -20 OFFCURVE",
"1163 -20 CURVE SMOOTH",
"1226 -20 OFFCURVE",
"1270 20 OFFCURVE",
"1270 106 CURVE SMOOTH",
"1270 193 OFFCURVE",
"1228 231 OFFCURVE",
"1163 231 CURVE SMOOTH"
);
},
{
closed = 1;
nodes = (
"162 231 OFFCURVE",
"126 187 OFFCURVE",
"126 106 CURVE SMOOTH",
"126 24 OFFCURVE",
"162 -20 OFFCURVE",
"232 -20 CURVE SMOOTH",
"296 -20 OFFCURVE",
"339 20 OFFCURVE",
"339 106 CURVE SMOOTH",
"339 193 OFFCURVE",
"297 231 OFFCURVE",
"232 231 CURVE SMOOTH"
);
},
{
closed = 1;
nodes = (
"627 231 OFFCURVE",
"591 187 OFFCURVE",
"591 106 CURVE SMOOTH",
"591 24 OFFCURVE",
"627 -20 OFFCURVE",
"698 -20 CURVE SMOOTH",
"761 -20 OFFCURVE",
"805 20 OFFCURVE",
"805 106 CURVE SMOOTH",
"805 193 OFFCURVE",
"762 231 OFFCURVE",
"698 231 CURVE SMOOTH"
);
}
);
width = 1396;
}
);
unicode = 2026;
},
{
glyphname = exclam;
lastChange = "2013-03-07 05:32:14 +0200";
layers = (
{
layerId = "2E887DCB-F502-4FE4-8513-1FC10DF56BD7";
name = "Regular Condensed";
paths = (
{
closed = 1;
nodes = (
"148 1462 LINE",
"187 401 LINE",
"297 401 LINE",
"337 1462 LINE"
);
},
{
closed = 1;
nodes = (
"171 231 OFFCURVE",
"135 187 OFFCURVE",
"135 106 CURVE SMOOTH",
"135 24 OFFCURVE",
"171 -20 OFFCURVE",
"242 -20 CURVE SMOOTH",
"305 -20 OFFCURVE",
"349 20 OFFCURVE",
"349 106 CURVE SMOOTH",
"349 193 OFFCURVE",
"307 231 OFFCURVE",
"242 231 CURVE SMOOTH"
);
}
);
width = 485;
}
);
unicode = 0021;
},
{
glyphname = exclamdown;
lastChange = "2013-03-07 05:32:14 +0200";
layers = (
{
layerId = "2E887DCB-F502-4FE4-8513-1FC10DF56BD7";
name = "Regular Condensed";
paths = (
{
closed = 1;
nodes = (
"186 677 LINE",
"145 -383 LINE",
"336 -383 LINE",
"295 677 LINE"
);
},
{
closed = 1;
nodes = (
"173 1097 OFFCURVE",
"135 1053 OFFCURVE",
"135 971.999 CURVE SMOOTH",
"135 889 OFFCURVE",
"172 846 OFFCURVE",
"241 846 CURVE SMOOTH",
"305 846 OFFCURVE",
"348 884 OFFCURVE",
"348 971.999 CURVE SMOOTH",
"348 1057 OFFCURVE",
"305 1097 OFFCURVE",
"241 1097 CURVE SMOOTH"
);
}
);
width = 485;
}
);
unicode = 00A1;
},
{
glyphname = numbersign;
lastChange = "2013-03-07 05:32:14 +0200";
layers = (
{
layerId = "2E887DCB-F502-4FE4-8513-1FC10DF56BD7";
name = "Regular Condensed";
paths = (
{
closed = 1;
nodes = (
"675 1462 LINE",
"622 1044 LINE",
"403 1044 LINE",
"456 1462 LINE",
"339 1462 LINE",
"288 1044 LINE",
"86 1044 LINE",
"86 923 LINE",
"272 923 LINE",
"229 573 LINE",
"38 573 LINE",
"38 448 LINE",
"213 448 LINE",
"159 0 LINE",
"274 0 LINE",
"330 448 LINE",
"546 448 LINE",
"489 0 LINE",
"607 0 LINE",
"662 448 LINE",
"861 448 LINE",
"861 573 LINE",
"678 573 LINE",
"720 923 LINE",
"910 923 LINE",
"910 1044 LINE",
"737 1044 LINE",
"788 1462 LINE"
);
},
{
closed = 1;
nodes = (
"561 573 LINE",
"346 573 LINE",
"387 923 LINE",
"605 923 LINE"
);
}
);
width = 949;
}
);
unicode = 0023;
},
{
glyphname = period;
lastChange = "2013-03-07 05:32:13 +0200";
layers = (
{
layerId = "2E887DCB-F502-4FE4-8513-1FC10DF56BD7";
name = "Regular Condensed";
paths = (
{
closed = 1;
nodes = (
"162 231 OFFCURVE",
"126 187 OFFCURVE",
"126 106 CURVE SMOOTH",
"126 24 OFFCURVE",
"162 -20 OFFCURVE",
"232 -20 CURVE SMOOTH",
"296 -20 OFFCURVE",
"339 20 OFFCURVE",
"339 106 CURVE SMOOTH",
"339 193 OFFCURVE",
"297 231 OFFCURVE",
"232 231 CURVE SMOOTH"
);
}
);
width = 465;
}
);
unicode = 002E;
},
{
glyphname = periodcentered;
lastChange = "2013-03-07 05:32:13 +0200";
layers = (
{
layerId = "2E887DCB-F502-4FE4-8513-1FC10DF56BD7";
name = "Regular Condensed";
paths = (
{
closed = 1;
nodes = (
"162 847 OFFCURVE",
"126 804 OFFCURVE",
"126 722 CURVE SMOOTH",
"126 640 OFFCURVE",
"162 596 OFFCURVE",
"232 596 CURVE SMOOTH",
"296 596 OFFCURVE",
"339 636 OFFCURVE",
"339 722 CURVE SMOOTH",
"339 804 OFFCURVE",
"303 847 OFFCURVE",
"232 847 CURVE SMOOTH"
);
}
);
width = 465;
}
);
unicode = 00B7;
},
{
glyphname = question;
lastChange = "2013-03-07 05:32:14 +0200";
layers = (
{
layerId = "2E887DCB-F502-4FE4-8513-1FC10DF56BD7";
name = "Regular Condensed";
paths = (
{
closed = 1;
nodes = (
"199 1483 OFFCURVE",
"110 1454 OFFCURVE",
"31 1398 CURVE",
"93.9999 1281 LINE",
"151 1319 OFFCURVE",
"207 1345 OFFCURVE",
"280 1345 CURVE SMOOTH",
"385 1345 OFFCURVE",
"443 1272 OFFCURVE",
"443 1137 CURVE SMOOTH",
"443 1017 OFFCURVE",
"424 957 OFFCURVE",
"311 797 CURVE",
"222 682 OFFCURVE",
"199 605 OFFCURVE",
"199 458 CURVE SMOOTH",
"199 401 LINE",
"327 401 LINE",
"327 445 LINE SMOOTH",
"327 568 OFFCURVE",
"348 619 OFFCURVE",
"433 736 CURVE SMOOTH",
"564 916 OFFCURVE",
"594 979.999 OFFCURVE",
"594 1138 CURVE SMOOTH",
"594 1358 OFFCURVE",
"489 1483 OFFCURVE",
"297 1483 CURVE SMOOTH"
);
},
{
closed = 1;
nodes = (
"197 231 OFFCURVE",
"161 187 OFFCURVE",
"161 105 CURVE SMOOTH",
"161 23 OFFCURVE",
"198 -19 OFFCURVE",
"267 -19 CURVE SMOOTH",
"331 -19 OFFCURVE",
"374 21 OFFCURVE",
"374 105 CURVE SMOOTH",
"374 192 OFFCURVE",
"332 231 OFFCURVE",
"267 231 CURVE SMOOTH"
);
}
);
width = 645;
}
);
unicode = 003F;
},
{
glyphname = questiondown;
lastChange = "2013-03-07 05:32:14 +0200";
layers = (
{
layerId = "2E887DCB-F502-4FE4-8513-1FC10DF56BD7";
name = "Regular Condensed";
paths = (
{
closed = 1;
nodes = (
"316 677 LINE",
"316 630 LINE SMOOTH",
"316 509 OFFCURVE",
"296 456 OFFCURVE",
"212 341 CURVE SMOOTH",
"65 139 OFFCURVE",
"60 110 OFFCURVE",
"50 -26 CURVE SMOOTH",
"49 -37 OFFCURVE",
"49 -49 OFFCURVE",
"49 -60 CURVE SMOOTH",
"49 -278 OFFCURVE",
"152 -405 OFFCURVE",
"347 -405 CURVE SMOOTH",
"445 -405 OFFCURVE",
"533 -376 OFFCURVE",
"613 -320 CURVE",
"592 -281 OFFCURVE",
"572 -242 OFFCURVE",
"550 -203 CURVE",
"489 -242 OFFCURVE",
"436 -267 OFFCURVE",
"361 -267 CURVE SMOOTH",
"258 -267 OFFCURVE",
"201 -192 OFFCURVE",
"201 -60 CURVE SMOOTH",
"201 16 OFFCURVE",
"215 76 OFFCURVE",
"241 133 CURVE SMOOTH",
"265 186 OFFCURVE",
"390 343 OFFCURVE",
"421 437 CURVE SMOOTH",
"437 485 OFFCURVE",
"445 546 OFFCURVE",
"445 618 CURVE SMOOTH",
"445 677 LINE"
);
},
{
closed = 1;
nodes = (
"314 1097 OFFCURVE",
"270 1057 OFFCURVE",
"270 971.999 CURVE SMOOTH",
"270 884 OFFCURVE",
"313 846 OFFCURVE",
"376 846 CURVE SMOOTH",
"447 846 OFFCURVE",
"484 889 OFFCURVE",
"484 971.999 CURVE SMOOTH",
"484 1053 OFFCURVE",
"447 1097 OFFCURVE",
"376 1097 CURVE SMOOTH"
);
}
);
width = 645;
}
);
unicode = 00BF;
},
{
glyphname = quotedbl;
lastChange = "2013-03-07 05:32:14 +0200";
layers = (
{
layerId = "2E887DCB-F502-4FE4-8513-1FC10DF56BD7";
name = "Regular Condensed";
paths = (
{
closed = 1;
nodes = (
"463 1462 LINE",
"499 934 LINE",
"599 934 LINE",
"632 1462 LINE"
);
},
{
closed = 1;
nodes = (
"129 1462 LINE",
"165 934 LINE",
"265 934 LINE",
"298 1462 LINE"
);
}
);
width = 761;
}
);
unicode = 0022;
},
{
glyphname = quotesingle;
lastChange = "2013-03-07 05:32:13 +0200";
layers = (
{
layerId = "2E887DCB-F502-4FE4-8513-1FC10DF56BD7";
name = "Regular Condensed";
paths = (
{
closed = 1;
nodes = (
"129 1462 LINE",
"165 934 LINE",
"265 934 LINE",
"298 1462 LINE"
);
}
);
width = 427;
}
);
unicode = 0027;
},
{
glyphname = semicolon;
lastChange = "2013-03-07 05:32:14 +0200";
layers = (
{
layerId = "2E887DCB-F502-4FE4-8513-1FC10DF56BD7";
name = "Regular Condensed";
paths = (
{
closed = 1;
nodes = (
"169 215 LINE",
"150 68 OFFCURVE",
"116 -91 OFFCURVE",
"69 -264 CURVE",
"178 -264 LINE",
"250 -104 OFFCURVE",
"306 47 OFFCURVE",
"347 192 CURVE",
"333 215 LINE"
);
},
{
closed = 1;
nodes = (
"161 1103 OFFCURVE",
"125 1060 OFFCURVE",
"125 977.999 CURVE SMOOTH",
"125 896 OFFCURVE",
"161 852 OFFCURVE",
"232 852 CURVE SMOOTH",
"295 852 OFFCURVE",
"339 893 OFFCURVE",
"339 977.999 CURVE SMOOTH",
"339 1060 OFFCURVE",
"303 1103 OFFCURVE",
"232 1103 CURVE SMOOTH"
);
}
);
width = 465;
}
);
unicode = 003B;
},
{
glyphname = slash;
lastChange = "2013-03-07 05:32:13 +0200";
layers = (
{
layerId = "2E887DCB-F502-4FE4-8513-1FC10DF56BD7";
name = "Regular Condensed";
paths = (
{
closed = 1;
nodes = (
"572 1462 LINE",
"39 0 LINE",
"192 0 LINE",
"721 1462 LINE"
);
}
);
width = 751;
}
);
unicode = 002F;
},
{
glyphname = underscore;
lastChange = "2013-03-07 05:32:13 +0200";
layers = (
{
layerId = "2E887DCB-F502-4FE4-8513-1FC10DF56BD7";
name = "Regular Condensed";
paths = (
{
closed = 1;
nodes = (
"-4 -184 LINE",
"-4 -285 LINE",
"798 -285 LINE",
"798 -184 LINE"
);
}
);
width = 794;
}
);
unicode = 005F;
},
{
glyphname = braceleft;
lastChange = "2013-03-07 05:32:13 +0200";
layers = (
{
layerId = "2E887DCB-F502-4FE4-8513-1FC10DF56BD7";
name = "Regular Condensed";
paths = (
{
closed = 1;
nodes = (
"420 1457 OFFCURVE",
"304 1358 OFFCURVE",
"304 1155 CURVE SMOOTH",
"304 829 LINE SMOOTH",
"304 672 OFFCURVE",
"235 629 OFFCURVE",
"81 629 CURVE",
"81 509 LINE",
"244 509 OFFCURVE",
"304 451 OFFCURVE",
"304 304 CURVE SMOOTH",
"304 -16 LINE SMOOTH",
"306 -217 OFFCURVE",
"416 -319 OFFCURVE",
"656 -324 CURVE",
"656 -200 LINE",
"500 -198 OFFCURVE",
"452 -125 OFFCURVE",
"452 30 CURVE SMOOTH",
"452 320 LINE SMOOTH",
"452 464 OFFCURVE",
"388 539 OFFCURVE",
"245 564 CURVE",
"245 573 LINE",
"387 599 OFFCURVE",
"450 672 OFFCURVE",
"452 821 CURVE SMOOTH",
"452 1133 LINE SMOOTH",
"452 1273 OFFCURVE",
"514 1336 OFFCURVE",
"656 1338 CURVE",
"656 1462 LINE"
);
}
);
width = 737;
}
);
unicode = 007B;
},
{
glyphname = braceright;
lastChange = "2013-03-07 05:32:13 +0200";
layers = (
{
layerId = "2E887DCB-F502-4FE4-8513-1FC10DF56BD7";
name = "Regular Condensed";
paths = (
{
closed = 1;
nodes = (
"80 1338 LINE",
"226 1336 OFFCURVE",
"286 1270 OFFCURVE",
"286 1133 CURVE SMOOTH",
"286 821 LINE SMOOTH",
"286 672 OFFCURVE",
"352 598 OFFCURVE",
"492 573 CURVE",
"492 564 LINE",
"349 538 OFFCURVE",
"286 464 OFFCURVE",
"286 319 CURVE SMOOTH",
"286 5 LINE SMOOTH",
"286 -131 OFFCURVE",
"226 -198 OFFCURVE",
"80 -200 CURVE",
"80 -324 LINE",
"315 -319 OFFCURVE",
"433 -214 OFFCURVE",
"433 -16 CURVE SMOOTH",
"433 304 LINE SMOOTH",
"433 474 OFFCURVE",
"515 509 OFFCURVE",
"656 509 CURVE",
"656 629 LINE",
"495 629 OFFCURVE",
"433 681 OFFCURVE",
"433 829 CURVE SMOOTH",
"433 1155 LINE SMOOTH",
"433 1352 OFFCURVE",
"315 1456 OFFCURVE",
"80 1462 CURVE"
);
}
);
width = 737;
}
);
unicode = 007D;
},
{
glyphname = bracketleft;
lastChange = "2013-03-07 05:32:13 +0200";
layers = (
{
layerId = "2E887DCB-F502-4FE4-8513-1FC10DF56BD7";
name = "Regular Condensed";
paths = (
{
closed = 1;
nodes = (
"160 1462 LINE",
"160 -324 LINE",
"581 -324 LINE",
"581 -197 LINE",
"305 -197 LINE",
"305 1336 LINE",
"581 1336 LINE",
"581 1462 LINE"
);
}
);
width = 646;
}
);
unicode = 005B;
},
{
glyphname = bracketright;
lastChange = "2013-03-07 05:32:13 +0200";
layers = (
{
layerId = "2E887DCB-F502-4FE4-8513-1FC10DF56BD7";
name = "Regular Condensed";
paths = (
{
closed = 1;
nodes = (
"65 1462 LINE",
"65 1336 LINE",
"342 1336 LINE",
"342 -197 LINE",
"65 -197 LINE",
"65 -324 LINE",
"486 -324 LINE",
"486 1462 LINE"
);
}
);
width = 646;
}
);
unicode = 005D;
},
{
glyphname = parenleft;
lastChange = "2013-03-07 05:32:13 +0200";
layers = (
{
layerId = "2E887DCB-F502-4FE4-8513-1FC10DF56BD7";
name = "Regular Condensed";
paths = (
{
closed = 1;
nodes = (
"392 1462 LINE",
"204 1233 OFFCURVE",
"93.9999 906 OFFCURVE",
"93.9999 561 CURVE SMOOTH",
"93.9999 215 OFFCURVE",
"202 -102 OFFCURVE",
"392 -324 CURVE",
"521 -324 LINE",
"352 -91 OFFCURVE",
"247 240 OFFCURVE",
"247 563 CURVE SMOOTH",
"247 881 OFFCURVE",
"342 1200 OFFCURVE",
"523 1462 CURVE"
);
}
);
width = 598;
}
);
unicode = 0028;
},
{
glyphname = parenright;
lastChange = "2013-03-07 05:32:13 +0200";
layers = (
{
layerId = "2E887DCB-F502-4FE4-8513-1FC10DF56BD7";
name = "Regular Condensed";
paths = (
{
closed = 1;
nodes = (
"74 1462 LINE",
"256 1199 OFFCURVE",
"350 883 OFFCURVE",
"350 563 CURVE SMOOTH",
"350 246 OFFCURVE",
"249 -81 OFFCURVE",
"76 -324 CURVE",
"205 -324 LINE",
"398 -99 OFFCURVE",
"504 218 OFFCURVE",
"504 561 CURVE SMOOTH",
"504 903 OFFCURVE",
"396 1232 OFFCURVE",
"205 1462 CURVE"
);
}
);
width = 598;
}
);
unicode = 0029;
},
{
glyphname = emdash;
lastChange = "2013-03-07 05:32:13 +0200";
layers = (
{
layerId = "2E887DCB-F502-4FE4-8513-1FC10DF56BD7";
name = "Regular Condensed";
paths = (
{
closed = 1;
nodes = (
"78 615 LINE",
"78 489 LINE",
"1815 489 LINE",
"1815 615 LINE"
);
}
);
width = 1893;
}
);
unicode = 2014;
},
{
glyphname = endash;
lastChange = "2013-03-07 05:32:13 +0200";
layers = (
{
layerId = "2E887DCB-F502-4FE4-8513-1FC10DF56BD7";
name = "Regular Condensed";
paths = (
{
closed = 1;
nodes = (
"78 615 LINE",
"78 489 LINE",
"929 489 LINE",
"929 615 LINE"
);
}
);
width = 1007;
}
);
unicode = 2013;
},
{
glyphname = hyphen;
lastChange = "2013-03-07 05:32:13 +0200";
layers = (
{
layerId = "2E887DCB-F502-4FE4-8513-1FC10DF56BD7";
name = "Regular Condensed";
paths = (
{
closed = 1;
nodes = (
"59 624 LINE",
"59 479 LINE",
"500 479 LINE",
"500 624 LINE"
);
}
);
width = 559;
}
);
unicode = 002D;
},
{
glyphname = uni00AD;
lastChange = "2013-03-07 05:32:13 +0200";
layers = (
{
layerId = "2E887DCB-F502-4FE4-8513-1FC10DF56BD7";
name = "Regular Condensed";
paths = (
{
closed = 1;
nodes = (
"59 624 LINE",
"59 479 LINE",
"500 479 LINE",
"500 624 LINE"
);
}
);
width = 559;
}
);
unicode = 00AD;
},
{
glyphname = guillemotleft;
lastChange = "2013-03-07 05:32:14 +0200";
layers = (
{
layerId = "2E887DCB-F502-4FE4-8513-1FC10DF56BD7";
name = "Regular Condensed";
paths = (
{
closed = 1;
nodes = (
"471 550 LINE",
"471 524 LINE",
"765 131 LINE",
"871 192 LINE",
"653 538 LINE",
"871 883 LINE",
"765 943 LINE"
);
},
{
closed = 1;
nodes = (
"79 550 LINE",
"79 524 LINE",
"373 131 LINE",
"479 192 LINE",
"260 538 LINE",
"479 883 LINE",
"373 943 LINE"
);
}
);
width = 950;
}
);
unicode = 00AB;
},
{
glyphname = guillemotright;
lastChange = "2013-03-07 05:32:14 +0200";
layers = (
{
layerId = "2E887DCB-F502-4FE4-8513-1FC10DF56BD7";
name = "Regular Condensed";
paths = (
{
closed = 1;
nodes = (
"471 883 LINE",
"690 538 LINE",
"471 192 LINE",
"577 131 LINE",
"871 524 LINE",
"871 550 LINE",
"577 943 LINE"
);
},
{
closed = 1;
nodes = (
"79 883 LINE",
"297 538 LINE",
"79 192 LINE",
"184 131 LINE",
"479 524 LINE",
"479 550 LINE",
"184 943 LINE"
);
}
);
width = 950;
}
);
unicode = 00BB;
},
{
glyphname = guilsinglleft;
lastChange = "2013-03-07 05:32:13 +0200";
layers = (
{
layerId = "2E887DCB-F502-4FE4-8513-1FC10DF56BD7";
name = "Regular Condensed";
paths = (
{
closed = 1;
nodes = (
"79 550 LINE",
"79 524 LINE",
"373 131 LINE",
"479 192 LINE",
"260 538 LINE",
"479 883 LINE",
"373 943 LINE"
);
}
);
width = 559;
}
);
unicode = 2039;
},
{
glyphname = guilsinglright;
lastChange = "2013-03-07 05:32:13 +0200";
layers = (
{
layerId = "2E887DCB-F502-4FE4-8513-1FC10DF56BD7";
name = "Regular Condensed";
paths = (
{
closed = 1;
nodes = (
"79 883 LINE",
"298 538 LINE",
"79 192 LINE",
"186 131 LINE",
"479 524 LINE",
"479 550 LINE",
"186 943 LINE"
);
}
);
width = 559;
}
);
unicode = 203A;
},
{
glyphname = quotedblbase;
lastChange = "2013-03-07 05:32:14 +0200";
layers = (
{
layerId = "2E887DCB-F502-4FE4-8513-1FC10DF56BD7";
name = "Regular Condensed";
paths = (
{
closed = 1;
nodes = (
"472 215 LINE",
"455 90 OFFCURVE",
"414 -101 OFFCURVE",
"371 -264 CURVE",
"480 -264 LINE",
"554 -97 OFFCURVE",
"611 53 OFFCURVE",
"650 192 CURVE",
"635 215 LINE"
);
},
{
closed = 1;
nodes = (
"139 215 LINE",
"119 68 OFFCURVE",
"86 -91 OFFCURVE",
"38 -264 CURVE",
"148 -264 LINE",
"220 -104 OFFCURVE",
"276 47 OFFCURVE",
"317 192 CURVE",
"303 215 LINE"
);
}
);
width = 767;
}
);
unicode = 201E;
},
{
glyphname = quotedblleft;
lastChange = "2013-03-07 05:32:14 +0200";
layers = (
{
layerId = "2E887DCB-F502-4FE4-8513-1FC10DF56BD7";
name = "Regular Condensed";
paths = (
{
closed = 1;
nodes = (
"537 1462 LINE",
"475 1323 OFFCURVE",
"411 1154 OFFCURVE",
"368 1005 CURVE",
"382 981.999 LINE",
"546 981.999 LINE",
"565 1129 OFFCURVE",
"599 1289 OFFCURVE",
"647 1462 CURVE"
);
},
{
closed = 1;
nodes = (
"205 1462 LINE",
"135 1311 OFFCURVE",
"75 1146 OFFCURVE",
"35 1005 CURVE",
"49 981.999 LINE",
"213 981.999 LINE",
"228 1104 OFFCURVE",
"268 1297 OFFCURVE",
"313 1462 CURVE"
);
}
);
width = 682;
}
);
unicode = 201C;
},
{
glyphname = quotedblright;
lastChange = "2013-03-07 05:32:14 +0200";
layers = (
{
layerId = "2E887DCB-F502-4FE4-8513-1FC10DF56BD7";
name = "Regular Condensed";
paths = (
{
closed = 1;
nodes = (
"136 1462 LINE",
"116 1312 OFFCURVE",
"83 1153 OFFCURVE",
"35 981.999 CURVE",
"145 981.999 LINE",
"218 1147 OFFCURVE",
"274 1300 OFFCURVE",
"314 1440 CURVE",
"300 1462 LINE"
);
},
{
closed = 1;
nodes = (
"469 1462 LINE",
"449 1310 OFFCURVE",
"416 1150 OFFCURVE",
"369 981.999 CURVE",
"477 981.999 LINE",
"551 1148 OFFCURVE",
"607 1301 OFFCURVE",
"647 1440 CURVE",
"633 1462 LINE"
);
}
);
width = 682;
}
);
unicode = 201D;
},
{
glyphname = quoteleft;
lastChange = "2013-03-07 05:32:13 +0200";
layers = (
{
layerId = "2E887DCB-F502-4FE4-8513-1FC10DF56BD7";
name = "Regular Condensed";
paths = (
{
closed = 1;
nodes = (
"205 1462 LINE",
"135 1311 OFFCURVE",
"75 1146 OFFCURVE",
"35 1005 CURVE",
"49 981.999 LINE",
"213 981.999 LINE",
"228 1104 OFFCURVE",
"268 1297 OFFCURVE",
"313 1462 CURVE"
);
}
);
width = 350;
}
);
unicode = 2018;
},
{
glyphname = quoteright;
lastChange = "2013-03-07 05:32:13 +0200";
layers = (
{
layerId = "2E887DCB-F502-4FE4-8513-1FC10DF56BD7";
name = "Regular Condensed";
paths = (
{
closed = 1;
nodes = (
"135 1462 LINE",
"116 1312 OFFCURVE",
"83 1152 OFFCURVE",
"35 981.999 CURVE",
"144 981.999 LINE",
"217 1146 OFFCURVE",
"274 1299 OFFCURVE",
"313 1440 CURVE",
"299 1462 LINE"
);
}
);
width = 350;
}
);
unicode = 2019;
},
{
glyphname = quotesinglbase;
lastChange = "2013-03-07 05:32:13 +0200";
layers = (
{
layerId = "2E887DCB-F502-4FE4-8513-1FC10DF56BD7";
name = "Regular Condensed";
paths = (
{
closed = 1;
nodes = (
"169 216 LINE",
"150 68 OFFCURVE",
"117 -92 OFFCURVE",
"69 -264 CURVE",
"178 -264 LINE",
"251 -104 OFFCURVE",
"307 48 OFFCURVE",
"348 193 CURVE",
"334 216 LINE"
);
}
);
width = 465;
}
);
unicode = 201A;
},
{
glyphname = "geresh-hb";
lastChange = "2013-03-07 05:32:14 +0200";
layers = (
{
layerId = "2E887DCB-F502-4FE4-8513-1FC10DF56BD7";
name = "Regular Condensed";
paths = (
{
closed = 1;
nodes = (
"136 1290 LINE",
"132 1267 OFFCURVE",
"111 1132 OFFCURVE",
"91 1039 CURVE SMOOTH",
"71 947 OFFCURVE",
"43 842 OFFCURVE",
"35 809 CURVE",
"144 809 LINE",
"151 825 OFFCURVE",
"195 927 OFFCURVE",
"221 992.999 CURVE SMOOTH",
"258 1085 OFFCURVE",
"306 1237 OFFCURVE",
"314 1269 CURVE",
"301 1290 LINE"
);
}
);
width = 350;
}
);
unicode = 05F3;
},
{
glyphname = "gershayim-hb";
lastChange = "2013-03-07 05:32:14 +0200";
layers = (
{
layerId = "2E887DCB-F502-4FE4-8513-1FC10DF56BD7";
name = "Regular Condensed";
paths = (
{
closed = 1;
nodes = (
"468 1290 LINE",
"465 1269 OFFCURVE",
"444 1137 OFFCURVE",
"426 1048 CURVE SMOOTH",
"406 953 OFFCURVE",
"376 845 OFFCURVE",
"367 809 CURVE",
"477 809 LINE",
"483 823 OFFCURVE",
"525 924 OFFCURVE",
"551 987.999 CURVE SMOOTH",
"588 1082 OFFCURVE",
"638 1235 OFFCURVE",
"647 1269 CURVE",
"634 1290 LINE"
);
},
{
closed = 1;
nodes = (
"136 1290 LINE",
"132 1267 OFFCURVE",
"111 1132 OFFCURVE",
"91 1039 CURVE SMOOTH",
"71 947 OFFCURVE",
"43 842 OFFCURVE",
"35 809 CURVE",
"144 809 LINE",
"151 825 OFFCURVE",
"195 927 OFFCURVE",
"221 992.999 CURVE SMOOTH",
"258 1085 OFFCURVE",
"306 1237 OFFCURVE",
"314 1269 CURVE",
"301 1290 LINE"
);
}
);
width = 683;
}
);
unicode = 05F4;
},
{
glyphname = "maqaf-hb";
lastChange = "2013-03-07 05:32:14 +0200";
layers = (
{
layerId = "2E887DCB-F502-4FE4-8513-1FC10DF56BD7";
name = "Regular Condensed";
paths = (
{
closed = 1;
nodes = (
"59 1289 LINE",
"59 1144 LINE",
"500 1144 LINE",
"500 1289 LINE"
);
}
);
width = 559;
}
);
unicode = 05BE;
},
{
glyphname = florin;
lastChange = "2013-03-07 05:32:13 +0200";
layers = (
{
layerId = "2E887DCB-F502-4FE4-8513-1FC10DF56BD7";
name = "Regular Condensed";
paths = (
{
closed = 1;
nodes = (
"401 1483 OFFCURVE",
"335 1350 OFFCURVE",
"335 1080 CURVE SMOOTH",
"335 967.999 LINE",
"173 916 LINE",
"173 836 LINE",
"335 836 LINE",
"335 -126 LINE SMOOTH",
"335 -283 OFFCURVE",
"294 -357 OFFCURVE",
"189 -357 CURVE SMOOTH",
"154 -357 OFFCURVE",
"114 -351 OFFCURVE",
"69 -339 CURVE",
"69 -475 LINE",
"114 -486 OFFCURVE",
"161 -492 OFFCURVE",
"211 -492 CURVE SMOOTH",
"400 -492 OFFCURVE",
"491 -369 OFFCURVE",
"491 -114 CURVE SMOOTH",
"491 202 OFFCURVE",
"491 519 OFFCURVE",
"492 836 CURVE",
"691 836 LINE",
"691 963 LINE",
"492 963 LINE",
"492 1108 LINE SMOOTH",
"494 1278 OFFCURVE",
"521 1347 OFFCURVE",
"614 1347 CURVE SMOOTH",
"650 1347 OFFCURVE",
"690 1337 OFFCURVE",
"735 1316 CURVE",
"785 1442 LINE",
"724 1469 OFFCURVE",
"662 1483 OFFCURVE",
"598 1483 CURVE SMOOTH"
);
}
);
width = 862;
}
);
unicode = 0192;
},
{
glyphname = Euro;
lastChange = "2013-03-07 05:32:13 +0200";
layers = (
{
layerId = "2E887DCB-F502-4FE4-8513-1FC10DF56BD7";
name = "Regular Condensed";
paths = (
{
closed = 1;
nodes = (
"365 1485 OFFCURVE",
"206 1268 OFFCURVE",
"174 914 CURVE",
"36 914 LINE",
"36 804 LINE",
"167 804 LINE",
"166 783 OFFCURVE",
"166 762 OFFCURVE",
"166 742 CURVE SMOOTH",
"166 716 LINE SMOOTH",
"166 686 OFFCURVE",
"166 658 OFFCURVE",
"167 628 CURVE",
"36 628 LINE",
"36 519 LINE",
"174 519 LINE",
"210 160 OFFCURVE",
"351 -20 OFFCURVE",
"594 -20 CURVE SMOOTH",
"672 -20 OFFCURVE",
"743 -2 OFFCURVE",
"805 33 CURVE",
"805 180 LINE",
"735 140 OFFCURVE",
"674 125 OFFCURVE",
"598 125 CURVE SMOOTH",
"445 125 OFFCURVE",
"358 257 OFFCURVE",
"332 519 CURVE",
"610 519 LINE",
"610 628 LINE",
"324 628 LINE",
"322 732 LINE",
"324 804 LINE",
"647 804 LINE",
"647 914 LINE",
"332 914 LINE",
"359 1196 OFFCURVE",
"444 1340 OFFCURVE",
"587 1340 CURVE SMOOTH",
"642 1340 OFFCURVE",
"699 1321 OFFCURVE",
"759 1283 CURVE",
"823 1412 LINE",
"749 1461 OFFCURVE",
"674 1485 OFFCURVE",
"581 1485 CURVE SMOOTH"
);
}
);
width = 862;
}
);
unicode = 20AC;
},
{
glyphname = cent;
lastChange = "2013-03-07 05:32:13 +0200";
layers = (
{
layerId = "2E887DCB-F502-4FE4-8513-1FC10DF56BD7";
name = "Regular Condensed";
paths = (
{
closed = 1;
nodes = (
"440 1481 LINE",
"440 1309 LINE",
"252 1269 OFFCURVE",
"161 1075 OFFCURVE",
"161 742 CURVE SMOOTH",
"161 416 OFFCURVE",
"254 226 OFFCURVE",
"440 188 CURVE",
"440 -20 LINE",
"550 -20 LINE",
"550 182 LINE",
"611 189 OFFCURVE",
"661 204 OFFCURVE",
"700 228 CURVE",
"700 362 LINE",
"640 332 OFFCURVE",
"583 317 OFFCURVE",
"529 317 CURVE SMOOTH",
"386 317 OFFCURVE",
"318 460 OFFCURVE",
"318 745 CURVE SMOOTH",
"318 1028 OFFCURVE",
"380 1179 OFFCURVE",
"530 1179 CURVE SMOOTH",
"567 1179 OFFCURVE",
"611 1166 OFFCURVE",
"661 1143 CURVE",
"677 1185 OFFCURVE",
"695 1227 OFFCURVE",
"711 1269 CURVE",
"666 1294 OFFCURVE",
"613 1310 OFFCURVE",
"550 1316 CURVE",
"550 1481 LINE"
);
}
);
width = 862;
}
);
unicode = 00A2;
},
{
glyphname = currency;
lastChange = "2013-03-07 05:32:14 +0200";
layers = (
{
layerId = "2E887DCB-F502-4FE4-8513-1FC10DF56BD7";
name = "Regular Condensed";
paths = (
{
closed = 1;
nodes = (
"882 1126 OFFCURVE",
"837 1082 OFFCURVE",
"793 1038 CURVE",
"725 1090 OFFCURVE",
"648 1116 OFFCURVE",
"563 1116 CURVE SMOOTH",
"476 1116 OFFCURVE",
"398 1089 OFFCURVE",
"329 1037 CURVE",
"196 1171 LINE",
"113 1087 LINE",
"246 954 LINE",
"195 883 OFFCURVE",
"170 806 OFFCURVE",
"170 723 CURVE SMOOTH",
"170 637 OFFCURVE",
"195 559 OFFCURVE",
"246 490 CURVE",
"115 360 LINE",
"198 276 LINE",
"328 407 LINE",
"394 356 OFFCURVE",
"472 330 OFFCURVE",
"563 330 CURVE SMOOTH",
"648 330 OFFCURVE",
"725 356 OFFCURVE",
"793 405 CURVE",
"927 274 LINE",
"1011 356 LINE",
"967 401 OFFCURVE",
"922 445 OFFCURVE",
"878 489 CURVE",
"930 557 OFFCURVE",
"956 635 OFFCURVE",
"956 723 CURVE SMOOTH",
"956 809 OFFCURVE",
"930 887 OFFCURVE",
"878 956 CURVE",
"923 999.999 OFFCURVE",
"967.999 1044 OFFCURVE",
"1012 1089 CURVE",
"926 1171 LINE"
);
},
{
closed = 1;
nodes = (
"719 1001 OFFCURVE",
"843 868 OFFCURVE",
"843 723 CURVE SMOOTH",
"843 569 OFFCURVE",
"716 446 OFFCURVE",
"563 446 CURVE SMOOTH",
"408 446 OFFCURVE",
"286 568 OFFCURVE",
"286 723 CURVE SMOOTH",
"286 880 OFFCURVE",
"412 1001 OFFCURVE",
"570 1001 CURVE SMOOTH"
);
}
);
width = 1127;
}
);
unicode = 00A4;
},
{
glyphname = dollar;
lastChange = "2013-03-07 05:32:14 +0200";
layers = (
{
layerId = "2E887DCB-F502-4FE4-8513-1FC10DF56BD7";
name = "Regular Condensed";
paths = (
{
closed = 1;
nodes = (
"382 1556 LINE",
"382 1378 LINE",
"211 1353 OFFCURVE",
"93.9999 1225 OFFCURVE",
"93.9999 1047 CURVE SMOOTH",
"93.9999 890 OFFCURVE",
"149 801 OFFCURVE",
"325 713 CURVE SMOOTH",
"343 704 OFFCURVE",
"361 695 OFFCURVE",
"382 687 CURVE",
"382 244 LINE",
"282 246 OFFCURVE",
"168 276 OFFCURVE",
"87 324 CURVE",
"87 174 LINE",
"163 133 OFFCURVE",
"262 112 OFFCURVE",
"382 110 CURVE",
"382 -119 LINE",
"475 -119 LINE",
"475 116 LINE",
"661 141 OFFCURVE",
"775 268 OFFCURVE",
"775 448 CURVE SMOOTH",
"775 623 OFFCURVE",
"683 714 OFFCURVE",
"475 801 CURVE",
"475 1246 LINE",
"544 1242 OFFCURVE",
"618 1222 OFFCURVE",
"699 1184 CURVE",
"715 1227 OFFCURVE",
"733 1269 OFFCURVE",
"750 1312 CURVE",
"663 1354 OFFCURVE",
"572 1377 OFFCURVE",
"475 1381 CURVE",
"475 1556 LINE"
);
},
{
closed = 1;
nodes = (
"591 595 OFFCURVE",
"632 539 OFFCURVE",
"632 442 CURVE SMOOTH",
"632 347 OFFCURVE",
"573 273 OFFCURVE",
"475 252 CURVE",
"475 647 LINE"
);
},
{
closed = 1;
nodes = (
"382 841 LINE",
"279 889 OFFCURVE",
"236 941 OFFCURVE",
"236 1051 CURVE SMOOTH",
"236 1147 OFFCURVE",
"290 1222 OFFCURVE",
"382 1242 CURVE"
);
}
);
width = 862;
}
);
unicode = 0024;
},
{
glyphname = sterling;
lastChange = "2013-03-07 05:32:13 +0200";
layers = (
{
layerId = "2E887DCB-F502-4FE4-8513-1FC10DF56BD7";
name = "Regular Condensed";
paths = (
{
closed = 1;
nodes = (
"317 1483 OFFCURVE",
"236 1341 OFFCURVE",
"236 1058 CURVE SMOOTH",
"236 796 LINE",
"79 796 LINE",
"79 671 LINE",
"236 671 LINE",
"236 426 LINE SMOOTH",
"236 280 OFFCURVE",
"187 176 OFFCURVE",
"86 130 CURVE",
"86 0 LINE",
"791 0 LINE",
"791 142 LINE",
"265 142 LINE",
"335 192 OFFCURVE",
"372 272 OFFCURVE",
"379 383 CURVE",
"386 430 OFFCURVE",
"390 479 OFFCURVE",
"390 531 CURVE SMOOTH",
"390 671 LINE",
"637 671 LINE",
"637 796 LINE",
"390 796 LINE",
"390 1102 LINE SMOOTH",
"390 1270 OFFCURVE",
"434 1346 OFFCURVE",
"540 1346 CURVE SMOOTH",
"602 1346 OFFCURVE",
"655 1332 OFFCURVE",
"722 1279 CURVE",
"787 1400 LINE",
"714 1455 OFFCURVE",
"630 1483 OFFCURVE",
"536 1483 CURVE SMOOTH"
);
}
);
width = 862;
}
);
unicode = 00A3;
},
{
glyphname = uni20AA;
lastChange = "2013-03-07 05:32:14 +0200";
layers = (
{
layerId = "2E887DCB-F502-4FE4-8513-1FC10DF56BD7";
name = "Regular Condensed";
paths = (
{
closed = 1;
nodes = (
"1007 1290 LINE",
"1007 689 LINE SMOOTH",
"1007 331 OFFCURVE",
"931 133 OFFCURVE",
"603 133 CURVE SMOOTH",
"569 133 LINE",
"569 960 LINE",
"418 960 LINE",
"418 0 LINE",
"603 0 LINE SMOOTH",
"1109 0 OFFCURVE",
"1154 367 OFFCURVE",
"1154 689 CURVE SMOOTH",
"1154 1290 LINE"
);
},
{
closed = 1;
nodes = (
"141 1290 LINE",
"141 0 LINE",
"292 0 LINE",
"292 1156 LINE",
"475 1156 LINE SMOOTH",
"711 1156 OFFCURVE",
"719 1080 OFFCURVE",
"719 809 CURVE SMOOTH",
"719 329 LINE",
"866 329 LINE",
"866 809 LINE SMOOTH",
"866 1058 OFFCURVE",
"869 1290 OFFCURVE",
"475 1290 CURVE SMOOTH"
);
}
);
width = 1282;
}
);
unicode = 20AA;
},
{
glyphname = yen;
lastChange = "2013-03-07 05:32:13 +0200";
layers = (
{
layerId = "2E887DCB-F502-4FE4-8513-1FC10DF56BD7";
name = "Regular Condensed";
paths = (
{
closed = 1;
nodes = (
"627 1462 LINE",
"431 744 LINE",
"231 1462 LINE",
"73 1462 LINE",
"153 1199 OFFCURVE",
"235 936 OFFCURVE",
"315 673 CURVE",
"126 673 LINE",
"126 562 LINE",
"350 562 LINE",
"350 561 OFFCURVE",
"350 561 OFFCURVE",
"351 561 CURVE",
"351 381 LINE",
"126 381 LINE",
"126 270 LINE",
"351 270 LINE",
"351 0 LINE",
"508 0 LINE",
"508 270 LINE",
"736 270 LINE",
"736 381 LINE",
"508 381 LINE",
"508 562 LINE",
"736 562 LINE",
"736 673 LINE",
"543 673 LINE",
"624 936 OFFCURVE",
"705 1199 OFFCURVE",
"787 1462 CURVE"
);
}
);
width = 862;
}
);
unicode = 00A5;
},
{
glyphname = _181;
lastChange = "2013-03-07 05:32:14 +0200";
layers = (
{
layerId = "2E887DCB-F502-4FE4-8513-1FC10DF56BD7";
name = "Regular Condensed";
paths = (
{
closed = 1;
nodes = (
"642 1094 LINE",
"642 519 LINE SMOOTH",
"642 233 OFFCURVE",
"577 113 OFFCURVE",
"429 113 CURVE SMOOTH",
"334 113 OFFCURVE",
"283 193 OFFCURVE",
"283 372 CURVE SMOOTH",
"283 1094 LINE",
"130 1094 LINE",
"130 -492 LINE",
"283 -492 LINE",
"283 -214 LINE SMOOTH",
"283 -130 OFFCURVE",
"282 -60 OFFCURVE",
"274 64 CURVE",
"323 3 OFFCURVE",
"348 -20 OFFCURVE",
"426 -20 CURVE SMOOTH",
"515 -20 OFFCURVE",
"597 40 OFFCURVE",
"641 149 CURVE",
"651 149 LINE",
"658 98.9999 OFFCURVE",
"664 50 OFFCURVE",
"670 0 CURVE",
"794 0 LINE",
"794 1094 LINE"
);
}
);
width = 928;
}
);
unicode = 00B5;
},
{
glyphname = asciitilde;
lastChange = "2013-03-07 05:32:13 +0200";
layers = (
{
layerId = "2E887DCB-F502-4FE4-8513-1FC10DF56BD7";
name = "Regular Condensed";
paths = (
{
closed = 1;
nodes = (
"733 775 OFFCURVE",
"668 729 OFFCURVE",
"605 729 CURVE SMOOTH",
"565 729 OFFCURVE",
"530 741 OFFCURVE",
"479 768 CURVE SMOOTH",
"415 800 OFFCURVE",
"350 835 OFFCURVE",
"283 840 CURVE",
"190 840 OFFCURVE",
"112 772 OFFCURVE",
"112 772 CURVE",
"112 631 LINE",
"148 658 OFFCURVE",
"209 711 OFFCURVE",
"291 711 CURVE",
"356 696 OFFCURVE",
"414 656 OFFCURVE",
"474 631 CURVE SMOOTH",
"516 613 OFFCURVE",
"554 603 OFFCURVE",
"599 603 CURVE SMOOTH",
"674 603 OFFCURVE",
"737 639 OFFCURVE",
"788 709 CURVE",
"788 847 LINE"
);
}
);
width = 852;
}
);
unicode = 007E;
},
{
glyphname = divide;
lastChange = "2013-03-07 05:32:14 +0200";
layers = (
{
layerId = "2E887DCB-F502-4FE4-8513-1FC10DF56BD7";
name = "Regular Condensed";
paths = (
{
closed = 1;
nodes = (
"74 784 LINE",
"74 660 LINE",
"776 660 LINE",
"776 784 LINE"
);
},
{
closed = 1;
nodes = (
"363 491 OFFCURVE",
"332 452 OFFCURVE",
"332 373 CURVE SMOOTH",
"332 291 OFFCURVE",
"366 253 OFFCURVE",
"425 253 CURVE SMOOTH",
"479 253 OFFCURVE",
"517 292 OFFCURVE",
"517 373 CURVE SMOOTH",
"517 451 OFFCURVE",
"486 491 OFFCURVE",
"425 491 CURVE SMOOTH"
);
},
{
closed = 1;
nodes = (
"363 1190 OFFCURVE",
"332 1150 OFFCURVE",
"332 1071 CURVE SMOOTH",
"332 988.999 OFFCURVE",
"366 952 OFFCURVE",
"425 952 CURVE SMOOTH",
"479 952 OFFCURVE",
"517 989.999 OFFCURVE",
"517 1071 CURVE SMOOTH",
"517 1149 OFFCURVE",
"486 1190 OFFCURVE",
"425 1190 CURVE SMOOTH"
);
}
);
width = 852;
}
);
unicode = 00F7;
},
{
glyphname = equal;
lastChange = "2013-03-07 05:32:14 +0200";
layers = (
{
layerId = "2E887DCB-F502-4FE4-8513-1FC10DF56BD7";
name = "Regular Condensed";
paths = (
{
closed = 1;
nodes = (
"75 574 LINE",
"75 451 LINE",
"777 451 LINE",
"777 574 LINE"
);
},
{
closed = 1;
nodes = (
"75 990.999 LINE",
"75 869 LINE",
"777 869 LINE",
"777 990.999 LINE"
);
}
);
width = 852;
}
);
unicode = 003D;
},
{
glyphname = greater;
lastChange = "2013-03-07 05:32:13 +0200";
layers = (
{
layerId = "2E887DCB-F502-4FE4-8513-1FC10DF56BD7";
name = "Regular Condensed";
paths = (
{
closed = 1;
nodes = (
"73 1041 LINE",
"637 723 LINE",
"73 404 LINE",
"73 261 LINE",
"777 675 LINE",
"777 772 LINE",
"73 1183 LINE"
);
}
);
width = 852;
}
);
unicode = 003E;
},
{
glyphname = less;
lastChange = "2013-03-07 05:32:13 +0200";
layers = (
{
layerId = "2E887DCB-F502-4FE4-8513-1FC10DF56BD7";
name = "Regular Condensed";
paths = (
{
closed = 1;
nodes = (
"75 772 LINE",
"75 675 LINE",
"778 261 LINE",
"778 404 LINE",
"215 723 LINE",
"778 1041 LINE",
"778 1183 LINE"
);
}
);
width = 852;
}
);
unicode = 003C;
},
{
glyphname = logicalnot;
lastChange = "2013-03-07 05:32:13 +0200";
layers = (
{
layerId = "2E887DCB-F502-4FE4-8513-1FC10DF56BD7";
name = "Regular Condensed";
paths = (
{
closed = 1;
nodes = (
"75 784 LINE",
"75 661 LINE",
"643 661 LINE",
"643 250 LINE",
"763 250 LINE",
"763 784 LINE"
);
}
);
width = 852;
}
);
unicode = 00AC;
},
{
glyphname = multiply;
lastChange = "2013-03-07 05:32:13 +0200";
layers = (
{
layerId = "2E887DCB-F502-4FE4-8513-1FC10DF56BD7";
name = "Regular Condensed";
paths = (
{
closed = 1;
nodes = (
"602 1006 OFFCURVE",
"512 910 OFFCURVE",
"424 813 CURVE",
"160 1100 LINE",
"71 1025 LINE",
"162 924 OFFCURVE",
"254 823 OFFCURVE",
"346 723 CURVE",
"69 417 LINE",
"98.9999 391 OFFCURVE",
"129 366 OFFCURVE",
"158 340 CURVE",
"424 632 LINE",
"688 343 LINE",
"717 368 OFFCURVE",
"747 393 OFFCURVE",
"776 419 CURVE",
"685 520 OFFCURVE",
"595 622 OFFCURVE",
"503 723 CURVE",
"596 824 OFFCURVE",
"688 926 OFFCURVE",
"780 1028 CURVE",
"690 1103 LINE"
);
}
);
width = 852;
}
);
unicode = 00D7;
},
{
glyphname = percent;
lastChange = "2013-03-07 05:32:14 +0200";
layers = (
{
layerId = "2E887DCB-F502-4FE4-8513-1FC10DF56BD7";
name = "Regular Condensed";
paths = (
{
closed = 1;
nodes = (
"855 1462 LINE",
"338 0 LINE",
"465 0 LINE",
"982.999 1462 LINE"
);
},
{
closed = 1;
nodes = (
"161 1483 OFFCURVE",
"84 1324 OFFCURVE",
"84 1025 CURVE SMOOTH",
"84 727 OFFCURVE",
"160 565 OFFCURVE",
"314 565 CURVE SMOOTH",
"464 565 OFFCURVE",
"549 730 OFFCURVE",
"549 1026 CURVE SMOOTH",
"549 1327 OFFCURVE",
"468 1483 OFFCURVE",
"314 1483 CURVE SMOOTH"
);
},
{
closed = 1;
nodes = (
"384 1367 OFFCURVE",
"418 1256 OFFCURVE",
"418 1027 CURVE SMOOTH",
"418 794 OFFCURVE",
"388 685 OFFCURVE",
"316 685 CURVE SMOOTH",
"242 685 OFFCURVE",
"214 796 OFFCURVE",
"214 1027 CURVE SMOOTH",
"214 1257 OFFCURVE",
"242 1367 OFFCURVE",
"313 1367 CURVE SMOOTH"
);
},
{
closed = 1;
nodes = (
"853 898 OFFCURVE",
"774 742 OFFCURVE",
"774 439 CURVE SMOOTH",
"774 144 OFFCURVE",
"850 -19 OFFCURVE",
"1004 -19 CURVE SMOOTH",
"1153 -19 OFFCURVE",
"1238 142 OFFCURVE",
"1238 441 CURVE SMOOTH",
"1238 742 OFFCURVE",
"1158 898 OFFCURVE",
"1004 898 CURVE SMOOTH"
);
},
{
closed = 1;
nodes = (
"1073 781 OFFCURVE",
"1108 671 OFFCURVE",
"1108 441 CURVE SMOOTH",
"1108 209 OFFCURVE",
"1078 99.9999 OFFCURVE",
"1006 99.9999 CURVE SMOOTH",
"932 99.9999 OFFCURVE",
"905 211 OFFCURVE",
"905 441 CURVE SMOOTH",
"905 672 OFFCURVE",
"932 781 OFFCURVE",
"1003 781 CURVE SMOOTH"
);
}
);
width = 1322;
}
);
unicode = 0025;
},
{
glyphname = perthousand;
lastChange = "2013-03-07 05:32:14 +0200";
layers = (
{
layerId = "2E887DCB-F502-4FE4-8513-1FC10DF56BD7";
name = "Regular Condensed";
paths = (
{
closed = 1;
nodes = (
"855 1462 LINE",
"336 0 LINE",
"466 0 LINE",
"638 487 OFFCURVE",
"810 974.999 OFFCURVE",
"982.999 1462 CURVE"
);
},
{
closed = 1;
nodes = (
"161 1483 OFFCURVE",
"83 1323 OFFCURVE",
"83 1024 CURVE SMOOTH",
"83 727 OFFCURVE",
"159 565 OFFCURVE",
"313 565 CURVE SMOOTH",
"463 565 OFFCURVE",
"548 730 OFFCURVE",
"548 1026 CURVE SMOOTH",
"548 1326 OFFCURVE",
"467 1483 OFFCURVE",
"313 1483 CURVE SMOOTH"
);
},
{
closed = 1;
nodes = (
"383 1367 OFFCURVE",
"417 1255 OFFCURVE",
"417 1026 CURVE SMOOTH",
"417 794 OFFCURVE",
"387 684 OFFCURVE",
"315 684 CURVE SMOOTH",
"241 684 OFFCURVE",
"214 796 OFFCURVE",
"214 1026 CURVE SMOOTH",
"214 1257 OFFCURVE",
"241 1367 OFFCURVE",
"313 1367 CURVE SMOOTH"
);
},
{
closed = 1;
nodes = (
"853 897 OFFCURVE",
"774 745 OFFCURVE",
"774 439 CURVE SMOOTH",
"774 144 OFFCURVE",
"850 -19 OFFCURVE",
"1004 -19 CURVE SMOOTH",
"1153 -19 OFFCURVE",
"1239 142 OFFCURVE",
"1239 440 CURVE SMOOTH",
"1239 741 OFFCURVE",
"1158 897 OFFCURVE",
"1004 897 CURVE SMOOTH"
);
},
{
closed = 1;
nodes = (
"1073 781 OFFCURVE",
"1108 667 OFFCURVE",
"1108 441 CURVE SMOOTH",
"1108 211 OFFCURVE",
"1077 98.9999 OFFCURVE",
"1006 98.9999 CURVE SMOOTH",
"932 98.9999 OFFCURVE",
"904 210 OFFCURVE",
"904 441 CURVE SMOOTH",
"904 671 OFFCURVE",
"931 781 OFFCURVE",
"1003 781 CURVE SMOOTH"
);
},
{
closed = 1;
nodes = (
"1391 897 OFFCURVE",
"1314 738 OFFCURVE",
"1314 439 CURVE SMOOTH",
"1314 143 OFFCURVE",
"1390 -19 OFFCURVE",
"1544 -19 CURVE SMOOTH",
"1693 -19 OFFCURVE",
"1778 145 OFFCURVE",
"1778 440 CURVE SMOOTH",
"1778 742 OFFCURVE",
"1697 897 OFFCURVE",
"1544 897 CURVE SMOOTH"
);
},
{
closed = 1;
nodes = (
"1612 781 OFFCURVE",
"1647 667 OFFCURVE",
"1647 441 CURVE SMOOTH",
"1647 208 OFFCURVE",
"1618 98.9999 OFFCURVE",
"1546 98.9999 CURVE SMOOTH",
"1472 98.9999 OFFCURVE",
"1445 210 OFFCURVE",
"1445 441 CURVE SMOOTH",
"1445 671 OFFCURVE",
"1472 781 OFFCURVE",
"1543 781 CURVE SMOOTH"
);
}
);
width = 1879;
}
);
unicode = 2030;
},
{
glyphname = plus;
lastChange = "2013-03-07 05:32:13 +0200";
layers = (
{
layerId = "2E887DCB-F502-4FE4-8513-1FC10DF56BD7";
name = "Regular Condensed";
paths = (
{
closed = 1;
nodes = (
"366 1198 LINE",
"366 784 LINE",
"75 784 LINE",
"75 661 LINE",
"366 661 LINE",
"366 250 LINE",
"486 250 LINE",
"486 661 LINE",
"777 661 LINE",
"777 784 LINE",
"486 784 LINE",
"486 1198 LINE"
);
}
);
width = 852;
}
);
unicode = 002B;
},
{
glyphname = plusminus;
lastChange = "2013-03-07 05:32:14 +0200";
layers = (
{
layerId = "2E887DCB-F502-4FE4-8513-1FC10DF56BD7";
name = "Regular Condensed";
paths = (
{
closed = 1;
nodes = (
"366 1198 LINE",
"366 784 LINE",
"75 784 LINE",
"75 661 LINE",
"366 661 LINE",
"366 250 LINE",
"486 250 LINE",
"486 661 LINE",
"777 661 LINE",
"777 784 LINE",
"486 784 LINE",
"486 1198 LINE"
);
},
{
closed = 1;
nodes = (
"75 123 LINE",
"75 0 LINE",
"777 0 LINE",
"777 123 LINE"
);
}
);
width = 852;
}
);
unicode = 00B1;
},
{
glyphname = ampersand;
lastChange = "2013-03-07 05:32:14 +0200";
layers = (
{
layerId = "2E887DCB-F502-4FE4-8513-1FC10DF56BD7";
name = "Regular Condensed";
paths = (
{
closed = 1;
nodes = (
"263 1483 OFFCURVE",
"169 1359 OFFCURVE",
"169 1165 CURVE SMOOTH",
"169 1043 OFFCURVE",
"192 967 OFFCURVE",
"290 794 CURVE",
"125 658 OFFCURVE",
"63 543 OFFCURVE",
"63 367 CURVE SMOOTH",
"63 122 OFFCURVE",
"180 -20 OFFCURVE",
"372 -20 CURVE SMOOTH",
"500 -20 OFFCURVE",
"590 25 OFFCURVE",
"685 152 CURVE",
"715 102 OFFCURVE",
"744 50 OFFCURVE",
"774 0 CURVE",
"946 0 LINE",
"778 263 LINE",
"838 368 OFFCURVE",
"888 543 OFFCURVE",
"898 685 CURVE",
"758 685 LINE",
"752 574 OFFCURVE",
"732 474 OFFCURVE",
"692 393 CURVE",
"616 520 OFFCURVE",
"542 645 OFFCURVE",
"466 771 CURVE",
"603 893 OFFCURVE",
"655 1010 OFFCURVE",
"655 1181 CURVE SMOOTH",
"655 1369 OFFCURVE",
"557 1483 OFFCURVE",
"415 1483 CURVE SMOOTH"
);
},
{
closed = 1;
nodes = (
"609 271 LINE",
"543 169 OFFCURVE",
"473 121 OFFCURVE",
"387 121 CURVE SMOOTH",
"283 121 OFFCURVE",
"216 212 OFFCURVE",
"216 374 CURVE SMOOTH",
"216 508 OFFCURVE",
"250 589 OFFCURVE",
"359 690 CURVE"
);
},
{
closed = 1;
nodes = (
"474 1348 OFFCURVE",
"511 1291 OFFCURVE",
"511 1173 CURVE SMOOTH",
"511 1051 OFFCURVE",
"485 958 OFFCURVE",
"400 877 CURVE",
"349 956 OFFCURVE",
"314 1071 OFFCURVE",
"314 1172 CURVE SMOOTH",
"314 1286 OFFCURVE",
"350 1348 OFFCURVE",
"411 1348 CURVE SMOOTH"
);
}
);
width = 951;
}
);
unicode = 0026;
},
{
glyphname = asciicircum;
lastChange = "2013-03-07 05:32:13 +0200";
layers = (
{
layerId = "2E887DCB-F502-4FE4-8513-1FC10DF56BD7";
name = "Regular Condensed";
paths = (
{
closed = 1;
nodes = (
"400 1463 LINE",
"29 681 LINE",
"170 681 LINE",
"448 1295 LINE",
"737 681 LINE",
"880 681 LINE",
"490 1463 LINE"
);
}
);
width = 908;
}
);
unicode = 005E;
},
{
glyphname = at;
lastChange = "2013-03-07 05:32:14 +0200";
layers = (
{
layerId = "2E887DCB-F502-4FE4-8513-1FC10DF56BD7";
name = "Regular Condensed";
paths = (
{
closed = 1;
nodes = (
"338 1474 OFFCURVE",
"97.9999 1134 OFFCURVE",
"97.9999 580 CURVE SMOOTH",
"97.9999 95.9999 OFFCURVE",
"296 -176 OFFCURVE",
"634 -176 CURVE SMOOTH",
"744 -176 OFFCURVE",
"829 -153 OFFCURVE",
"910 -106 CURVE",
"910 16 LINE",
"836 -29 OFFCURVE",
"740 -59 OFFCURVE",
"639 -59 CURVE SMOOTH",
"379 -59 OFFCURVE",
"228 188 OFFCURVE",
"228 598 CURVE SMOOTH",
"228 1038 OFFCURVE",
"408 1355 OFFCURVE",
"700 1355 CURVE SMOOTH",
"937 1355 OFFCURVE",
"1090 1116 OFFCURVE",
"1090 743 CURVE SMOOTH",
"1090 486 OFFCURVE",
"1053 351 OFFCURVE",
"968.999 351 CURVE SMOOTH",
"909 351 OFFCURVE",
"877 394 OFFCURVE",
"877 511 CURVE SMOOTH",
"877 564 LINE",
"897 1038 LINE",
"833 1060 OFFCURVE",
"768 1071 OFFCURVE",
"703 1071 CURVE SMOOTH",
"517 1071 OFFCURVE",
"407 898 OFFCURVE",
"407 593 CURVE SMOOTH",
"407 358 OFFCURVE",
"485 231 OFFCURVE",
"618 231 CURVE SMOOTH",
"707 231 OFFCURVE",
"762 291 OFFCURVE",
"792 415 CURVE",
"801 415 LINE",
"810 299 OFFCURVE",
"863 231 OFFCURVE",
"967.999 231 CURVE SMOOTH",
"1133 231 OFFCURVE",
"1222 401 OFFCURVE",
"1222 739 CURVE SMOOTH",
"1222 1174 OFFCURVE",
"1026 1474 OFFCURVE",
"699 1474 CURVE SMOOTH"
);
},
{
closed = 1;
nodes = (
"721 960 OFFCURVE",
"744 956 OFFCURVE",
"761 951 CURVE",
"746 671 LINE SMOOTH",
"734 453 OFFCURVE",
"703 351 OFFCURVE",
"641 351 CURVE SMOOTH",
"576 351 OFFCURVE",
"542 433 OFFCURVE",
"542 590 CURVE SMOOTH",
"542 826 OFFCURVE",
"597 960 OFFCURVE",
"692 960 CURVE SMOOTH"
);
}
);
width = 1316;
}
);
unicode = 0040;
},
{
glyphname = bar;
lastChange = "2013-03-07 05:32:13 +0200";
layers = (
{
layerId = "2E887DCB-F502-4FE4-8513-1FC10DF56BD7";
name = "Regular Condensed";
paths = (
{
closed = 1;
nodes = (
"379 1554 LINE",
"379 -485 LINE",
"511 -485 LINE",
"511 1554 LINE"
);
}
);
width = 891;
}
);
unicode = 007C;
},
